<REAPER_PROJECT 0.1 "6.36/OSX64-clang" 1632654777
  RIPPLE 0
  GROUPOVERRIDE 0 0 0
  AUTOXFADE 1
  ENVATTACH 1
  POOLEDENVATTACH 0
  MIXERUIFLAGS 11 48
  PEAKGAIN 1
  FEEDBACK 0
  PANLAW 1
  PROJOFFS 0 0 0
  MAXPROJLEN 0 600
  GRID 3199 8 1 8 1 0 0 0
  TIMEMODE 1 5 -1 30 0 0 -1
  VIDEO_CONFIG 0 0 256
  PANMODE 3
  CURSOR 185.14285714285714
  ZOOM 53.67046468565748 9575 0
  VZOOMEX 7 0
  USE_REC_CFG 0
  RECMODE 1
  SMPTESYNC 0 30 100 40 1000 300 0 0 1 0 0
  LOOP 0
  LOOPGRAN 0 4
  RECORD_PATH "" ""
  <RECORD_CFG
  >
  <APPLYFX_CFG
  >
  RENDER_FILE ""
  RENDER_PATTERN ""
  RENDER_FMT 0 2 0
  RENDER_1X 0
  RENDER_RANGE 1 0 0 18 1000
  RENDER_RESAMPLE 3 0 1
  RENDER_ADDTOPROJ 0
  RENDER_STEMS 0
  RENDER_DITHER 0
  TIMELOCKMODE 1
  TEMPOENVLOCKMODE 1
  ITEMMIX 0
  DEFPITCHMODE 589824 0
  TAKELANE 0
  SAMPLERATE 44100 0 0
  <RENDER_CFG
  >
  LOCK 1
  <METRONOME 6 2
    VOL 0.25 0.125
    FREQ 800 1600 1
    BEATLEN 4
    SAMPLES "" ""
    PATTERN 2863311530 2863311529
  >
  GLOBAL_AUTO -1
  TEMPO 120 4 4
  PLAYRATE 1 0 0.25 4
  SELECTION 1383.5362637362637 1387.2285714285713
  SELECTION2 1383.5362637362637 1387.2285714285713
  MASTERAUTOMODE 0
  MASTERTRACKHEIGHT 0 0
  MASTERPEAKCOL 16576
  MASTERMUTESOLO 0
  MASTERTRACKVIEW 0 0.6667 0.5 0.5 -1 -1 -1 0 0 0 -1 -1 0
  MASTERHWOUT 0 0 1 0 0 0 0 -1
  MASTER_NCH 2 2
  MASTER_VOLUME 1 0 -1 -1 1
  MASTER_FX 1
  MASTER_SEL 0
  <MASTERPLAYSPEEDENV
    EGUID {221473B9-E4E9-4F49-B22C-5E70CBABD9EF}
    ACT 0 -1
    VIS 0 1 1
    LANEHEIGHT 0 0
    ARM 0
    DEFSHAPE 0 -1 -1
  >
  <TEMPOENVEX
    EGUID {951F75B8-B72B-7647-BB66-8DFE04286B72}
    ACT 1 -1
    VIS 1 0 1
    LANEHEIGHT 0 0
    ARM 0
    DEFSHAPE 1 -1 -1
    PT 0.000000000000 105.0000000000 1 262148 0 1
    PT 553.142857142857 56.0000000000 1
    PT 887.428571428571 100.0000000000 1
    PT 1117.228571428571 130.0000000000 1 0 1
    PT 1767.536263736263 110.0000000000 1
    PT 1898.445354645354 90.0000000000 1
  >
  MARKER 2 0 "FANTASIA CHROMATICA" 0 0 1 B {23CC09CC-1964-384A-AE5C-F21D3E7BFF80}
  MARKER 6 185.14285714285714 "royal brum" 0 0 1 B {0B022A15-A586-5242-B63E-3C63586AA190}
  MARKER 5 887.42857142857122 TOCCATA 0 0 1 B {F755A4B6-04E7-2E47-BE8B-233F9985D9E8}
  MARKER 1 1117.6901098901096 "radio intro / orgasme" 0 0 1 B {66B5B6DF-01AA-844F-AE00-E60EE945F5F7}
  MARKER 4 1142.1516483516482 "intro tune" 0 0 1 B {0A83EA48-57A5-6F4F-9D09-C3B685721B85}
  MARKER 3 1151.3824175824179 harmony 0 0 1 B {1CD263D0-8B6C-0F4D-BF9D-5BA350D51659}
  <PROJBAY
  >
  <TRACK {F7C9E64E-A032-ED40-B5E3-147EB49BD0E3}
    NAME "Instrument 1"
    PEAKCOL 16576
    BEAT -1
    AUTOMODE 0
    VOLPAN 1 0 -1 -1 1
    MUTESOLO 0 0 0
    IPHASE 0
    PLAYOFFS 0 1
    ISBUS 0 0
    BUSCOMP 0 0 0 0 0
    SHOWINMIX 1 0.6667 0.5 1 0.5 -1 -1 -1
    FREEMODE 0
    SEL 0
    REC 0 0 1 0 0 0 0
    VU 2
    TRACKHEIGHT 0 0 0 0 0 0
    INQ 0 0 0 0.5 100 0 0 100
    NCHAN 2
    FX 1
    TRACKID {F7C9E64E-A032-ED40-B5E3-147EB49BD0E3}
    PERF 0
    MIDIOUT 0
    MAINSEND 1 0
    <FXCHAIN
      WNDRECT 32 638 724 387
      SHOW 0
      LASTSEL 0
      DOCKED 0
    >
    <ITEM
      POSITION 0
      SNAPOFFS 0
      LENGTH 450.85714285714283
      LOOP 1
      ALLTAKES 0
      FADEIN 1 0 0 1 0 0 0
      FADEOUT 1 0 0 1 0 0 0
      MUTE 0 0
      SEL 0
      IGUID {D05F8327-79A8-F448-A9AE-A5B012219C15}
      IID 1
      NAME "Instrument 1 - fantasia_chromatica.mid"
      VOLPAN 1 0 1 -1
      SOFFS 0 0
      PLAYRATE 1 1 0 -1 0 0.0025
      CHANMODE 0
      GUID {D8F9A615-D56A-6D40-930F-7837B8A1A8CE}
      <SOURCE MIDI
        HASDATA 1 1024 QN
        CCINTERP 32
        POOLEDEVTS {D53350A5-77FF-114D-AAB8-73709B1FE1BA}
        e 10 92 3e 78
        e 3958 82 3e 00
        e 133 92 3e 79
        e 1915 82 3e 00
        e 154 92 3e 78
        e 1766 82 3e 00
        e 261 92 3d 78
        e 2069 92 3c 78
        e 80 82 3d 00
        e 1947 92 3b 78
        e 75 82 3c 00
        e 1994 92 3a 78
        e 80 82 3b 00
        e 1947 92 45 78
        e 0 92 39 77
        e 75 82 3a 00
        e 1959 82 39 00
        e 1048 92 3e 78
        e 881 82 45 00
        e 133 92 45 79
        e 0 92 39 78
        e 34 82 3e 00
        e 1021 92 3b 78
        e 39 82 39 00
        e 821 82 45 00
        e 154 92 45 78
        e 0 92 3c 78
        e 39 82 3b 00
        e 974 92 3e 78
        e 39 82 3c 00
        e 975 92 44 78
        e 0 92 40 77
        e 34 82 3e 00
        e 41 82 45 00
        e 945 82 40 00
        e 35 92 3b 78
        e 1014 92 43 78
        e 80 82 44 00
        e 933 92 3d 78
        e 80 82 3b 00
        e 934 92 42 78
        e 0 92 3e 77
        e 34 82 3d 00
        e 41 82 43 00
        e 945 82 3e 00
        e 35 92 39 78
        e 1014 92 41 78
        e 80 82 42 00
        e 933 92 3b 78
        e 80 82 39 00
        e 934 92 40 77
        e 0 92 3c 78
        e 34 82 3b 00
        e 41 82 41 00
        e 225 92 3b 78
        e 29 82 3c 00
        e 219 92 39 78
        e 29 82 3b 00
        e 218 92 3b 78
        e 29 82 39 00
        e 231 92 3c 78
        e 29 82 3b 00
        e 230 92 39 78
        e 29 82 3c 00
        e 216 92 3b 78
        e 29 82 39 00
        e 217 92 37 78
        e 29 82 3b 00
        e 200 82 40 00
        e 35 92 39 78
        e 0 92 32 79
        e 29 82 37 00
        e 235 92 37 78
        e 29 82 39 00
        e 216 92 35 78
        e 29 82 37 00
        e 217 92 37 78
        e 29 82 35 00
        e 229 92 45 78
        e 0 92 39 78
        e 29 82 37 00
        e 228 92 35 78
        e 29 82 39 00
        e 217 92 37 78
        e 29 82 35 00
        e 217 92 34 78
        e 29 82 37 00
        e 230 82 32 00
        e 6 92 3e 78
        e 0 92 35 77
        e 0 92 32 79
        e 24 82 34 00
        e 10 82 45 00
        e 986 82 35 00
        e 35 92 40 78
        e 0 92 37 78
        e 39 82 3e 00
        e 974 82 32 00
        e 1 92 41 78
        e 0 92 39 78
        e 0 92 32 78
        e 39 82 40 00
        e 0 82 37 00
        e 974 92 43 78
        e 0 92 37 78
        e 39 82 41 00
        e 0 82 39 00
        e 464 92 35 78
        e 60 82 37 00
        e 451 92 45 77
        e 0 92 34 78
        e 0 92 31 78
        e 34 82 43 00
        e 21 82 35 00
        e 20 82 32 00
        e 945 82 45 00
        e 35 92 40 78
        e 504 92 36 78
        e 60 82 34 00
        e 450 92 37 78
        e 0 92 30 78
        e 60 82 36 00
        e 20 82 31 00
        e 933 92 42 78
        e 0 92 39 77
        e 39 82 37 00
        e 41 82 40 00
        e 894 82 39 00
        e 40 92 43 77
        e 0 92 32 78
        e 0 92 2f 78
        e 34 82 42 00
        e 41 82 30 00
        e 945 82 43 00
        e 35 92 3e 78
        e 504 92 34 78
        e 60 82 32 00
        e 450 92 35 78
        e 0 92 2e 78
        e 60 82 34 00
        e 20 82 2f 00
        e 933 92 40 78
        e 0 92 37 77
        e 39 82 35 00
        e 41 82 3e 00
        e 894 82 37 00
        e 40 92 41 78
        e 0 92 39 78
        e 0 92 2d 77
        e 34 82 40 00
        e 41 82 2e 00
        e 473 92 43 78
        e 60 82 41 00
        e 187 92 41 78
        e 29 82 43 00
        e 231 92 40 78
        e 0 92 37 78
        e 29 82 41 00
        e 10 82 39 00
        e 940 82 2d 00
        e 35 92 35 77
        e 0 92 39 79
        e 39 82 37 00
        e 470 92 3e 78
        e 60 82 40 00
        e 186 92 3c 78
        e 29 82 3e 00
        e 229 92 3e 78
        e 0 92 32 78
        e 29 82 3c 00
        e 228 92 40 78
        e 29 82 3e 00
        e 217 92 41 78
        e 29 82 40 00
        e 217 92 3e 78
        e 29 82 41 00
        e 196 82 35 00
        e 34 82 39 00
        e 6 92 40 77
        e 0 92 3c 79
        e 0 92 39 79
        e 0 92 2d 78
        e 24 82 3e 00
        e 10 82 32 00
        e 1021 92 2f 78
        e 39 82 2d 00
        e 974 82 3c 00
        e 0 82 39 00
        e 1 92 3c 78
        e 0 92 39 78
        e 0 92 30 78
        e 39 82 2f 00
        e 974 92 32 78
        e 39 82 30 00
        e 935 82 40 00
        e 40 92 3b 78
        e 0 92 38 78
        e 0 92 34 77
        e 34 82 32 00
        e 41 82 3c 00
        e 0 82 39 00
        e 945 82 34 00
        e 35 92 2f 78
        e 504 92 3d 78
        e 60 82 3b 00
        e 450 92 3e 78
        e 0 92 37 78
        e 60 82 3d 00
        e 20 82 38 00
        e 933 92 40 77
        e 0 92 31 78
        e 39 82 3e 00
        e 41 82 2f 00
        e 894 82 40 00
        e 40 92 39 78
        e 0 92 36 78
        e 0 92 32 77
        e 34 82 31 00
        e 41 82 37 00
        e 945 82 32 00
        e 35 92 2d 78
        e 504 92 3b 78
        e 60 82 39 00
        e 450 92 3c 78
        e 0 92 35 78
        e 60 82 3b 00
        e 20 82 36 00
        e 933 92 3e 78
        e 0 92 2f 78
        e 39 82 3c 00
        e 41 82 2d 00
        e 905 b2 07 6e
        e 29 92 40 77
        e 0 92 34 77
        e 0 92 31 78
        e 34 82 3e 00
        e 0 82 2f 00
        e 41 82 35 00
        e 408 82 40 00
        e 65 92 45 78
        e 507 92 40 78
        e 60 82 45 00
        e 444 92 43 78
        e 60 82 40 00
        e 415 82 34 00
        e 35 92 4a 79
        e 0 92 41 77
        e 0 92 32 77
        e 60 82 43 00
        e 20 82 31 00
        e 933 92 39 78
        e 974 82 32 00
        e 34 82 4a 00
        e 6 92 4a 79
        e 0 92 32 78
        e 0 92 2e 78
        e 34 82 39 00
        e 514 92 43 78
        e 60 82 41 00
        e 187 92 41 78
        e 29 82 43 00
        e 231 92 40 78
        e 0 92 34 78
        e 29 82 41 00
        e 10 82 32 00
        e 465 92 41 78
        e 60 82 40 00
        e 186 92 40 78
        e 29 82 41 00
        e 234 82 4a 00
        e 1 92 4a 78
        e 0 92 3e 77
        e 0 92 35 78
        e 29 82 40 00
        e 10 82 34 00
        e 974 92 37 78
        e 39 82 35 00
        e 935 82 3e 00
        e 40 92 49 78
        e 0 92 39 77
        e 0 92 2d 77
        e 34 82 37 00
        e 41 82 4a 00
        e 82 82 2e 00
        e 863 82 39 00
        e 35 92 34 78
        e 1014 92 48 78
        e 80 82 49 00
        e 933 92 45 78
        e 0 92 36 78
        e 80 82 34 00
        e 894 82 2d 00
        e 40 92 47 78
        e 0 92 3e 78
        e 0 92 37 77
        e 34 82 45 00
        e 0 82 36 00
        e 41 82 48 00
        e 945 82 37 00
        e 35 92 32 78
        e 504 92 40 78
        e 60 82 3e 00
        e 450 92 46 78
        e 0 92 41 78
        e 60 82 40 00
        e 20 82 47 00
        e 933 92 43 77
        e 0 92 34 78
        e 39 82 41 00
        e 41 82 32 00
        e 894 82 43 00
        e 35 92 45 77
        e 0 92 3c 78
        e 0 92 35 78
        e 39 82 34 00
        e 41 82 46 00
        e 216 92 37 78
        e 29 82 35 00
        e 219 92 39 78
        e 29 82 37 00
        e 219 92 37 78
        e 29 82 39 00
        e 231 92 41 78
        e 0 92 35 78
        e 29 82 37 00
        e 10 82 3c 00
        e 218 92 37 78
        e 29 82 35 00
        e 211 92 39 78
        e 29 82 37 00
        e 212 92 3b 78
        e 29 82 39 00
        e 194 82 45 00
        e 35 92 40 77
        e 0 92 3c 78
        e 0 92 39 78
        e 29 82 3b 00
        e 10 82 41 00
        e 1013 92 4c 78
        e 497 92 3b 77
        e 60 82 3c 00
        e 374 82 3b 00
        e 30 82 40 00
        e 34 82 39 00
        e 6 92 45 78
        e 0 92 3c 78
        e 0 92 39 79
        e 34 82 4c 00
        e 1021 92 47 78
        e 0 92 3e 78
        e 39 82 45 00
        e 0 82 3c 00
        e 974 82 39 00
        e 1 92 48 78
        e 0 92 40 78
        e 0 92 39 78
        e 39 82 47 00
        e 0 82 3e 00
        e 974 92 4a 78
        e 0 92 3e 78
        e 39 82 48 00
        e 0 82 40 00
        e 464 92 3c 78
        e 60 82 3e 00
        e 451 92 4c 77
        e 0 92 3b 78
        e 0 92 38 78
        e 34 82 4a 00
        e 21 82 3c 00
        e 20 82 39 00
        e 945 82 4c 00
        e 35 92 47 78
        e 504 92 3d 78
        e 60 82 3b 00
        e 450 92 3e 78
        e 0 92 37 78
        e 60 82 3d 00
        e 20 82 38 00
        e 933 92 49 78
        e 0 92 40 77
        e 39 82 3e 00
        e 41 82 47 00
        e 894 82 40 00
        e 40 92 4a 77
        e 0 92 39 78
        e 0 92 36 78
        e 34 82 49 00
        e 41 82 37 00
        e 945 82 4a 00
        e 35 92 45 78
        e 504 92 3b 78
        e 60 82 39 00
        e 450 92 3c 78
        e 0 92 35 78
        e 60 82 3b 00
        e 20 82 36 00
        e 933 92 47 78
        e 0 92 3e 78
        e 39 82 3c 00
        e 41 82 45 00
        e 934 92 48 78
        e 0 92 40 78
        e 0 92 34 77
        e 34 82 47 00
        e 0 82 3e 00
        e 41 82 35 00
        e 473 92 4a 78
        e 60 82 48 00
        e 187 92 48 78
        e 29 82 4a 00
        e 231 92 47 78
        e 0 92 3e 78
        e 29 82 48 00
        e 10 82 40 00
        e 465 92 48 78
        e 60 82 47 00
        e 186 92 47 78
        e 29 82 48 00
        e 200 82 34 00
        e 35 92 45 78
        e 0 92 3c 78
        e 0 92 39 79
        e 29 82 47 00
        e 10 82 3e 00
        e 470 92 43 78
        e 60 82 45 00
        e 186 92 41 78
        e 29 82 43 00
        e 229 92 40 78
        e 0 92 3b 78
        e 29 82 41 00
        e 10 82 3c 00
        e 218 92 41 78
        e 29 82 40 00
        e 217 92 43 78
        e 29 82 41 00
        e 217 92 40 77
        e 29 82 43 00
        e 181 82 40 00
        e 49 82 39 00
        e 6 92 41 78
        e 0 92 3e 79
        e 0 92 39 77
        e 0 92 32 78
        e 34 82 3b 00
        e 1021 92 43 78
        e 0 92 34 78
        e 39 82 41 00
        e 0 82 32 00
        e 974 82 3e 00
        e 1 92 45 78
        e 0 92 3e 79
        e 0 92 35 78
        e 39 82 43 00
        e 0 82 34 00
        e 973 82 3e 00
        e 1 92 43 78
        e 0 92 3e 78
        e 0 92 37 78
        e 39 82 45 00
        e 0 82 35 00
        e 464 92 41 78
        e 60 82 43 00
        e 411 82 39 00
        e 40 92 40 78
        e 0 92 3d 78
        e 0 92 39 77
        e 34 82 3e 00
        e 0 82 37 00
        e 21 82 41 00
        e 965 82 39 00
        e 35 92 34 78
        e 504 92 42 78
        e 60 82 40 00
        e 450 92 43 78
        e 0 92 3c 78
        e 60 82 42 00
        e 20 82 3d 00
        e 933 92 45 77
        e 0 92 36 78
        e 39 82 43 00
        e 41 82 34 00
        e 894 82 45 00
        e 40 92 3e 78
        e 0 92 3b 78
        e 0 92 37 77
        e 34 82 36 00
        e 41 82 3c 00
        e 945 82 37 00
        e 35 92 32 78
        e 504 92 40 78
        e 60 82 3e 00
        e 450 92 41 78
        e 0 92 3a 78
        e 60 82 40 00
        e 20 82 3b 00
        e 933 92 43 78
        e 0 92 34 78
        e 39 82 41 00
        e 41 82 32 00
        e 934 92 3c 77
        e 0 92 39 77
        e 0 92 35 77
        e 34 82 43 00
        e 0 82 34 00
        e 41 82 3a 00
        e 945 82 3c 00
        e 0 82 39 00
        e 35 92 3e 78
        e 0 92 39 78
        e 259 92 40 78
        e 29 82 3e 00
        e 216 92 41 78
        e 29 82 40 00
        e 217 92 43 78
        e 29 82 41 00
        e 235 92 45 77
        e 0 92 32 78
        e 29 82 43 00
        e 10 82 39 00
        e 974 92 3e 78
        e 503 92 34 78
        e 60 82 32 00
        e 411 82 35 00
        e 34 82 45 00
        e 6 92 45 79
        e 0 92 39 78
        e 0 92 35 78
        e 34 82 3e 00
        e 21 82 34 00
        e 1000 92 3b 78
        e 0 92 37 78
        e 39 82 39 00
        e 0 82 35 00
        e 974 82 45 00
        e 1 92 45 78
        e 0 92 3d 78
        e 0 92 39 77
        e 39 82 3b 00
        e 0 82 37 00
        e 974 92 3e 78
        e 39 82 3d 00
        e 935 82 39 00
        e 40 92 44 78
        e 0 92 40 77
        e 0 92 34 78
        e 34 82 3e 00
        e 41 82 45 00
        e 945 82 40 00
        e 35 92 3b 78
        e 504 92 36 78
        e 60 82 34 00
        e 450 92 43 78
        e 0 92 37 78
        e 60 82 36 00
        e 20 82 44 00
        e 933 92 3d 78
        e 0 92 34 78
        e 39 82 37 00
        e 41 82 3b 00
        e 934 92 42 78
        e 0 92 3e 77
        e 0 92 32 78
        e 34 82 3d 00
        e 0 82 34 00
        e 41 82 43 00
        e 945 82 3e 00
        e 35 92 39 78
        e 504 92 34 78
        e 60 82 32 00
        e 450 92 41 78
        e 0 92 35 78
        e 60 82 34 00
        e 20 82 42 00
        e 933 92 3b 78
        e 0 92 34 78
        e 39 82 35 00
        e 41 82 39 00
        e 423 92 32 77
        e 60 82 34 00
        e 381 82 32 00
        e 70 92 40 77
        e 0 92 3d 78
        e 0 92 39 78
        e 34 82 3b 00
        e 41 82 41 00
        e 473 92 3e 77
        e 60 82 3d 00
        e 382 82 3e 00
        e 30 82 40 00
        e 35 92 40 78
        e 504 92 37 78
        e 60 82 39 00
        e 450 92 3e 78
        e 0 92 36 78
        e 39 82 40 00
        e 21 82 37 00
        e 449 92 37 78
        e 60 82 36 00
        e 186 92 36 78
        e 29 82 37 00
        e 229 92 45 78
        e 0 92 3c 78
        e 0 92 37 78
        e 29 82 36 00
        e 10 82 3e 00
        e 93 92 36 78
        e 14 82 37 00
        e 111 92 37 78
        e 14 82 36 00
        e 109 92 36 78
        e 14 82 37 00
        e 109 92 37 78
        e 14 82 36 00
        e 108 92 36 78
        e 14 82 37 00
        e 110 92 34 78
        e 14 82 36 00
        e 111 92 36 78
        e 14 82 34 00
        e 126 92 3e 78
        e 0 92 3a 78
        e 0 92 37 78
        e 9 82 36 00
        e 25 82 45 00
        e 0 82 3c 00
        e 1021 92 40 78
        e 39 82 3e 00
        e 975 92 41 78
        e 0 92 39 77
        e 0 92 35 78
        e 0 92 32 79
        e 39 82 40 00
        e 41 82 3a 00
        e 0 82 37 00
        e 933 92 43 78
        e 0 92 34 77
        e 39 82 41 00
        e 0 82 35 00
        e 935 82 39 00
        e 0 82 34 00
        e 34 82 32 00
        e 6 92 45 78
        e 0 92 41 78
        e 0 92 32 79
        e 34 82 43 00
        e 1021 92 43 78
        e 0 92 34 78
        e 39 82 45 00
        e 974 82 32 00
        e 1 92 45 78
        e 0 92 35 78
        e 0 92 32 78
        e 39 82 43 00
        e 0 82 34 00
        e 974 92 47 78
        e 0 92 37 78
        e 39 82 45 00
        e 0 82 35 00
        e 975 92 49 78
        e 0 92 40 78
        e 0 92 39 77
        e 0 92 31 78
        e 34 82 47 00
        e 0 82 37 00
        e 41 82 32 00
        e 82 82 41 00
        e 863 82 39 00
        e 35 92 34 78
        e 504 92 4a 78
        e 0 92 42 78
        e 60 82 49 00
        e 0 82 40 00
        e 450 92 4c 77
        e 0 92 43 78
        e 0 92 30 78
        e 60 82 4a 00
        e 0 82 42 00
        e 20 82 31 00
        e 933 92 45 77
        e 0 92 36 78
        e 39 82 43 00
        e 41 82 34 00
        e 894 82 4c 00
        e 0 82 45 00
        e 40 92 4a 78
        e 0 92 3e 78
        e 0 92 37 77
        e 0 92 2f 78
        e 34 82 36 00
        e 41 82 30 00
        e 945 82 37 00
        e 35 92 32 78
        e 504 92 40 78
        e 60 82 3e 00
        e 450 92 41 78
        e 0 92 2e 78
        e 60 82 40 00
        e 20 82 2f 00
        e 933 92 43 78
        e 0 92 34 78
        e 39 82 41 00
        e 41 82 32 00
        e 934 92 48 77
        e 0 92 45 78
        e 0 92 35 78
        e 0 92 2d 77
        e 34 82 43 00
        e 0 82 34 00
        e 41 82 2e 00
        e 82 82 4a 00
        e 898 92 34 77
        e 39 82 35 00
        e 465 92 43 78
        e 60 82 45 00
        e 415 82 48 00
        e 0 82 2d 00
        e 0 82 34 00
        e 35 92 45 79
        e 0 92 41 78
        e 0 92 35 78
        e 60 82 43 00
        e 449 92 37 78
        e 60 82 35 00
        e 444 92 40 78
        e 0 92 39 78
        e 0 92 32 78
        e 39 82 41 00
        e 21 82 37 00
        e 443 92 3e 78
        e 0 92 3b 78
        e 60 82 40 00
        e 0 82 39 00
        e 445 82 45 00
        e 6 92 45 79
        e 0 92 40 77
        e 0 92 3c 77
        e 0 92 2d 78
        e 34 82 32 00
        e 21 82 3e 00
        e 0 82 3b 00
        e 1000 92 2f 78
        e 39 82 2d 00
        e 974 82 45 00
        e 0 82 40 00
        e 0 82 3c 00
        e 1 92 45 78
        e 0 92 40 79
        e 0 92 3c 78
        e 0 92 30 78
        e 39 82 2f 00
        e 974 92 32 78
        e 39 82 30 00
        e 975 92 44 78
        e 0 92 3b 77
        e 0 92 34 77
        e 34 82 32 00
        e 41 82 45 00
        e 0 82 3c 00
        e 945 82 34 00
        e 35 92 3e 78
        e 0 92 2f 78
        e 39 82 40 00
        e 465 92 3c 78
        e 60 82 3e 00
        e 449 82 3b 00
        e 1 92 43 78
        e 0 92 3e 78
        e 0 92 3b 79
        e 60 82 3c 00
        e 20 82 44 00
        e 932 82 3b 00
        e 1 92 40 78
        e 0 92 34 78
        e 0 92 31 78
        e 39 82 3e 00
        e 41 82 2f 00
        e 928 82 34 00
        e 6 92 42 78
        e 0 92 3e 78
        e 0 92 39 79
        e 0 92 32 77
        e 34 82 40 00
        e 0 82 31 00
        e 41 82 43 00
        e 945 82 32 00
        e 35 92 3c 78
        e 0 92 2d 78
        e 39 82 3e 00
        e 465 92 3b 78
        e 60 82 3c 00
        e 449 82 39 00
        e 1 92 41 78
        e 0 92 3c 78
        e 0 92 39 79
        e 60 82 3b 00
        e 20 82 42 00
        e 932 82 39 00
        e 1 92 3e 77
        e 0 92 32 78
        e 0 92 2f 78
        e 39 82 3c 00
        e 41 82 2d 00
        e 894 82 3e 00
        e 34 82 32 00
        e 6 92 40 77
        e 0 92 37 79
        e 0 92 34 79
        e 0 92 30 78
        e 34 82 2f 00
        e 41 82 41 00
        e 979 82 37 00
        e 1 92 39 78
        e 259 92 3b 78
        e 29 82 39 00
        e 216 92 3c 78
        e 29 82 3b 00
        e 217 92 3e 78
        e 29 82 3c 00
        e 200 82 40 00
        e 34 82 34 00
        e 1 92 40 77
        e 0 92 3c 79
        e 0 92 2d 77
        e 29 82 3e 00
        e 51 82 30 00
        e 894 b2 07 6e
        e 39 92 45 78
        e 974 82 2d 00
        e 34 82 40 00
        e 0 82 3c 00
        e 0 82 45 00
        e 6 92 40 79
        e 0 92 3c 79
        e 1055 92 42 78
        e 1013 82 40 00
        e 0 82 3c 00
        e 1 92 43 78
        e 0 92 40 78
        e 0 92 3c 79
        e 39 82 42 00
        e 974 92 45 78
        e 39 82 43 00
        e 969 82 3c 00
        e 6 92 47 77
        e 0 92 3f 78
        e 0 92 3b 78
        e 34 82 45 00
        e 41 82 40 00
        e 945 82 47 00
        e 35 92 42 78
        e 1014 92 3e 78
        e 80 82 3f 00
        e 933 92 44 78
        e 80 82 42 00
        e 928 82 3b 00
        e 6 92 45 77
        e 0 92 3d 78
        e 0 92 39 78
        e 34 82 44 00
        e 41 82 3e 00
        e 945 82 45 00
        e 35 92 40 78
        e 1014 92 3c 78
        e 80 82 3d 00
        e 933 92 42 78
        e 80 82 40 00
        e 928 82 39 00
        e 6 92 44 78
        e 0 92 3b 77
        e 0 92 34 78
        e 34 82 42 00
        e 41 82 3c 00
        e 225 92 45 78
        e 29 82 44 00
        e 219 92 47 78
        e 29 82 45 00
        e 218 92 40 78
        e 29 82 47 00
        e 231 92 42 78
        e 29 82 40 00
        e 230 92 44 78
        e 29 82 42 00
        e 216 92 45 78
        e 29 82 44 00
        e 217 92 44 78
        e 29 82 45 00
        e 200 82 3b 00
        e 35 92 45 78
        e 29 82 44 00
        e 235 92 44 78
        e 29 82 45 00
        e 216 92 45 78
        e 29 82 44 00
        e 217 92 44 78
        e 29 82 45 00
        e 229 92 45 78
        e 0 92 40 78
        e 29 82 44 00
        e 228 92 44 78
        e 29 82 45 00
        e 217 92 42 78
        e 29 82 44 00
        e 217 92 44 78
        e 29 82 42 00
        e 230 82 34 00
        e 6 92 45 77
        e 0 92 39 78
        e 24 82 44 00
        e 10 82 40 00
        e 1021 92 3b 78
        e 39 82 39 00
        e 940 82 45 00
        e 35 92 4c 79
        e 0 92 3c 78
        e 0 92 39 78
        e 39 82 3b 00
        e 470 92 3e 78
        e 60 82 3c 00
        e 444 92 40 78
        e 60 82 3e 00
        e 443 92 41 78
        e 60 82 40 00
        e 445 82 4c 00
        e 6 92 4c 79
        e 0 92 43 77
        e 0 92 34 78
        e 55 82 41 00
        e 20 82 39 00
        e 980 92 36 78
        e 39 82 34 00
        e 974 82 4c 00
        e 0 82 43 00
        e 1 92 4c 78
        e 0 92 43 78
        e 0 92 37 78
        e 39 82 36 00
        e 974 92 39 78
        e 39 82 37 00
        e 975 92 4b 78
        e 0 92 42 78
        e 0 92 3b 77
        e 34 82 39 00
        e 41 82 4c 00
        e 0 82 43 00
        e 945 82 3b 00
        e 35 92 36 78
        e 504 92 44 78
        e 60 82 42 00
        e 450 92 4a 78
        e 0 92 45 78
        e 60 82 44 00
        e 20 82 4b 00
        e 933 92 47 77
        e 0 92 38 78
        e 39 82 45 00
        e 41 82 36 00
        e 894 82 47 00
        e 40 92 49 78
        e 0 92 40 78
        e 0 92 39 77
        e 34 82 38 00
        e 41 82 4a 00
        e 945 82 39 00
        e 35 92 34 78
        e 504 92 42 78
        e 60 82 40 00
        e 450 92 48 78
        e 0 92 43 78
        e 60 82 42 00
        e 20 82 49 00
        e 933 92 45 77
        e 0 92 36 78
        e 39 82 43 00
        e 41 82 34 00
        e 894 82 45 00
        e 40 92 47 77
        e 0 92 3e 78
        e 0 92 37 77
        e 34 82 36 00
        e 41 82 48 00
        e 473 92 40 78
        e 60 82 3e 00
        e 187 92 42 78
        e 29 82 40 00
        e 231 92 43 78
        e 29 82 42 00
        e 475 92 3e 78
        e 60 82 43 00
        e 415 82 47 00
        e 0 82 37 00
        e 35 92 40 77
        e 0 92 34 79
        e 60 82 3e 00
        e 953 92 47 78
        e 0 92 37 78
        e 974 82 40 00
        e 34 82 34 00
        e 0 82 37 00
        e 6 92 40 78
        e 0 92 3b 79
        e 0 92 37 78
        e 0 92 34 79
        e 34 82 47 00
        e 1021 92 42 78
        e 0 92 39 78
        e 39 82 40 00
        e 0 82 37 00
        e 974 82 3b 00
        e 0 82 34 00
        e 1 92 43 78
        e 0 92 40 79
        e 0 92 3b 78
        e 0 92 34 78
        e 39 82 42 00
        e 0 82 39 00
        e 974 92 45 78
        e 0 92 39 78
        e 39 82 43 00
        e 0 82 3b 00
        e 464 92 37 78
        e 60 82 39 00
        e 445 82 40 00
        e 6 92 47 77
        e 0 92 42 79
        e 0 92 36 78
        e 0 92 33 78
        e 34 82 45 00
        e 21 82 37 00
        e 20 82 34 00
        e 945 82 47 00
        e 35 92 42 78
        e 504 92 38 78
        e 60 82 36 00
        e 449 82 42 00
        e 1 92 3e 79
        e 0 92 39 78
        e 0 92 32 78
        e 60 82 38 00
        e 20 82 33 00
        e 933 92 44 78
        e 0 92 3b 77
        e 39 82 39 00
        e 41 82 42 00
        e 894 82 3b 00
        e 34 82 3e 00
        e 6 92 45 77
        e 0 92 40 79
        e 0 92 34 78
        e 0 92 31 78
        e 34 82 44 00
        e 41 82 32 00
        e 945 82 45 00
        e 35 92 40 78
        e 504 92 36 78
        e 60 82 34 00
        e 449 82 40 00
        e 1 92 3c 79
        e 0 92 37 78
        e 0 92 30 78
        e 60 82 36 00
        e 20 82 31 00
        e 933 92 42 78
        e 0 92 39 77
        e 39 82 37 00
        e 41 82 40 00
        e 894 82 39 00
        e 34 82 3c 00
        e 6 92 43 78
        e 0 92 3e 78
        e 0 92 32 79
        e 0 92 2f 77
        e 34 82 42 00
        e 41 82 30 00
        e 980 92 42 78
        e 39 82 43 00
        e 465 92 40 78
        e 60 82 42 00
        e 415 82 2f 00
        e 34 82 32 00
        e 1 92 42 78
        e 0 92 32 79
        e 60 82 40 00
        e 952 82 3e 00
        e 1 92 43 78
        e 0 92 40 78
        e 39 82 42 00
        e 969 82 32 00
        e 0 82 40 00
        e 6 92 45 77
        e 0 92 41 78
        e 0 92 32 79
        e 34 82 43 00
        e 1525 92 40 78
        e 60 82 41 00
        e 415 82 45 00
        e 34 82 32 00
        e 1 92 41 78
        e 0 92 39 79
        e 0 92 32 78
        e 60 82 40 00
        e 79 92 3e 78
        e 14 82 41 00
        e 111 92 40 78
        e 14 82 3e 00
        e 109 92 41 78
        e 14 82 40 00
        e 108 92 43 78
        e 14 82 41 00
        e 109 92 45 78
        e 14 82 43 00
        e 109 92 47 78
        e 14 82 45 00
        e 111 92 48 78
        e 14 82 47 00
        e 119 92 4a 78
        e 14 82 48 00
        e 118 92 48 78
        e 14 82 4a 00
        e 111 92 47 78
        e 14 82 48 00
        e 109 92 45 78
        e 14 82 47 00
        e 109 92 43 78
        e 14 82 45 00
        e 108 92 41 78
        e 14 82 43 00
        e 110 92 40 78
        e 14 82 41 00
        e 111 92 3e 78
        e 14 82 40 00
        e 120 82 39 00
        e 6 92 40 77
        e 0 92 39 79
        e 0 92 31 78
        e 9 82 3e 00
        e 66 82 32 00
        e 1993 82 39 00
        e 1 92 39 78
        e 0 92 30 78
        e 80 82 31 00
        e 1907 82 40 00
        e 40 92 38 78
        e 0 92 2f 78
        e 75 82 39 00
        e 0 82 30 00
        e 1994 92 3e 79
        e 0 92 37 78
        e 0 92 2e 78
        e 80 82 38 00
        e 0 82 2f 00
        e 1941 82 3e 00
        e 6 92 3e 79
        e 0 92 36 78
        e 0 92 2d 77
        e 75 82 37 00
        e 0 82 2e 00
        e 1993 82 3e 00
        e 1 92 45 79
        e 0 92 3e 78
        e 0 92 35 78
        e 80 82 36 00
        e 1941 82 45 00
        e 6 92 45 79
        e 0 92 3d 78
        e 0 92 34 78
        e 75 82 3e 00
        e 0 82 35 00
        e 1993 82 45 00
        e 1 92 45 78
        e 0 92 3c 78
        e 80 82 3d 00
        e 933 92 32 77
        e 121 82 34 00
        e 853 82 32 00
        e 34 82 2d 00
        e 6 92 44 78
        e 0 92 3b 78
        e 0 92 34 78
        e 75 82 45 00
        e 0 82 3c 00
        e 1484 92 36 78
        e 60 82 34 00
        e 450 92 43 78
        e 0 92 3a 78
        e 0 92 37 77
        e 60 82 36 00
        e 20 82 44 00
        e 0 82 3b 00
        e 932 82 37 00
        e 1 92 37 78
        e 1008 82 37 00
        e 6 92 42 78
        e 0 92 39 78
        e 0 92 32 78
        e 75 82 43 00
        e 0 82 3a 00
        e 980 92 34 78
        e 39 82 32 00
        e 975 92 41 78
        e 0 92 35 78
        e 0 92 32 78
        e 39 82 34 00
        e 41 82 42 00
        e 933 92 3b 78
        e 0 92 37 78
        e 39 82 35 00
        e 82 82 39 00
        e 893 92 40 78
        e 0 92 3c 77
        e 0 92 39 77
        e 0 92 2d 78
        e 34 82 3b 00
        e 0 82 37 00
        e 41 82 41 00
        e 0 82 32 00
        e 980 92 2f 78
        e 39 82 2d 00
        e 974 82 39 00
        e 1 92 39 79
        e 0 92 30 78
        e 39 82 2f 00
        e 973 82 39 00
        e 1 92 42 77
        e 0 92 39 78
        e 0 92 32 78
        e 39 82 30 00
        e 82 82 40 00
        e 853 82 3c 00
        e 0 82 42 00
        e 40 92 44 78
        e 0 92 3b 78
        e 0 92 38 78
        e 0 92 34 77
        e 34 82 39 00
        e 0 82 32 00
        e 514 92 45 78
        e 60 82 44 00
        e 447 92 47 78
        e 60 82 45 00
        e 444 92 49 78
        e 60 82 47 00
        e 415 82 34 00
        e 35 92 4a 77
        e 0 92 37 78
        e 0 92 2f 78
        e 60 82 49 00
        e 20 82 38 00
        e 898 82 4a 00
        e 35 92 3e 78
        e 503 92 40 78
        e 0 92 31 78
        e 60 82 2f 00
        e 0 82 3e 00
        e 445 82 3b 00
        e 6 92 42 78
        e 0 92 39 78
        e 0 92 36 78
        e 0 92 32 77
        e 55 82 40 00
        e 0 82 31 00
        e 20 82 37 00
        e 473 92 43 78
        e 60 82 42 00
        e 447 92 45 78
        e 60 82 43 00
        e 444 92 47 78
        e 60 82 45 00
        e 415 82 32 00
        e 35 92 48 77
        e 0 92 35 78
        e 0 92 2d 78
        e 60 82 47 00
        e 20 82 36 00
        e 898 82 48 00
        e 35 92 3c 78
        e 503 92 3e 78
        e 0 92 2f 78
        e 60 82 2d 00
        e 0 82 3c 00
        e 445 82 39 00
        e 6 92 40 78
        e 0 92 37 79
        e 0 92 34 77
        e 0 92 30 77
        e 55 82 3e 00
        e 0 82 2f 00
        e 20 82 35 00
        e 473 92 41 78
        e 60 82 40 00
        e 446 82 37 00
        e 1 92 43 78
        e 0 92 3c 78
        e 60 82 41 00
        e 444 92 45 78
        e 60 82 43 00
        e 415 82 34 00
        e 0 82 30 00
        e 34 82 3c 00
        e 1 92 46 77
        e 0 92 3e 79
        e 0 92 2b 78
        e 60 82 45 00
        e 918 82 46 00
        e 34 82 3e 00
        e 1 92 3a 78
        e 0 92 37 78
        e 503 92 3c 78
        e 0 92 2d 78
        e 60 82 2b 00
        e 0 82 3a 00
        e 451 92 3e 78
        e 0 92 32 78
        e 0 92 2e 77
        e 34 82 37 00
        e 21 82 3c 00
        e 0 82 2d 00
        e 493 92 40 78
        e 60 82 3e 00
        e 447 92 41 78
        e 0 92 3e 78
        e 60 82 40 00
        e 444 92 43 78
        e 0 92 34 78
        e 60 82 32 00
        e 0 82 41 00
        e 415 82 2e 00
        e 35 92 45 77
        e 0 92 3c 77
        e 0 92 35 78
        e 0 92 29 78
        e 39 82 3e 00
        e 21 82 43 00
        e 0 82 34 00
        e 449 92 37 78
        e 60 82 35 00
        e 409 82 45 00
        e 35 92 41 78
        e 0 92 39 78
        e 60 82 37 00
        e 443 92 2b 78
        e 60 82 29 00
        e 445 82 3c 00
        e 6 92 40 77
        e 0 92 3c 78
        e 0 92 2d 77
        e 34 82 41 00
        e 21 82 2b 00
        e 1000 92 3b 77
        e 0 92 37 77
        e 39 82 39 00
        e 0 82 3c 00
        e 940 82 40 00
        e 0 82 3b 00
        e 0 82 37 00
        e 35 92 3e 78
        e 0 92 35 79
        e 0 92 39 79
        e 264 92 40 78
        e 29 82 3e 00
        e 216 92 41 78
        e 29 82 40 00
        e 217 92 43 78
        e 29 82 41 00
        e 229 92 45 78
        e 29 82 43 00
        e 228 92 47 78
        e 29 82 45 00
        e 217 92 48 78
        e 29 82 47 00
        e 217 92 4a 78
        e 29 82 48 00
        e 230 82 2d 00
        e 0 82 35 00
        e 6 92 4c 78
        e 0 92 34 78
        e 0 92 2d 78
        e 24 82 4a 00
        e 276 92 4a 78
        e 29 82 4c 00
        e 219 92 47 78
        e 29 82 4a 00
        e 218 92 49 78
        e 29 82 47 00
        e 231 92 4a 78
        e 0 92 32 78
        e 29 82 49 00
        e 10 82 34 00
        e 220 92 49 78
        e 29 82 4a 00
        e 216 92 4a 78
        e 29 82 49 00
        e 217 92 49 78
        e 29 82 4a 00
        e 235 92 4a 78
        e 0 92 34 77
        e 29 82 49 00
        e 10 82 32 00
        e 225 92 49 78
        e 29 82 4a 00
        e 216 92 4a 78
        e 29 82 49 00
        e 217 92 49 78
        e 29 82 4a 00
        e 229 92 4a 78
        e 29 82 49 00
        e 228 92 49 78
        e 29 82 4a 00
        e 217 92 47 78
        e 29 82 49 00
        e 217 92 49 78
        e 29 82 47 00
        e 169 92 32 76
        e 27 82 34 00
        e 34 82 39 00
        e 0 82 2d 00
        e 22 92 35 78
        e 8 82 49 00
        e 75 92 39 78
        e 83 92 4a 77
        e 1852 82 4a 00
        e 35 92 45 79
        e 1013 92 37 77
        e 121 82 35 00
        e 853 82 37 00
        e 34 82 39 00
        e 0 82 45 00
        e 6 92 45 79
        e 0 92 39 78
        e 1055 92 3e 78
        e 1013 82 45 00
        e 0 82 3e 00
        e 1 92 45 78
        e 0 92 41 78
        e 509 92 40 78
        e 60 82 41 00
        e 444 92 3e 78
        e 60 82 40 00
        e 443 92 3c 78
        e 60 82 3e 00
        e 445 82 32 00
        e 0 82 39 00
        e 6 92 44 78
        e 0 92 3b 77
        e 55 82 3c 00
        e 20 82 45 00
        e 945 82 3b 00
        e 35 92 40 78
        e 1013 82 40 00
        e 1 92 43 78
        e 0 92 40 78
        e 80 82 44 00
        e 429 92 3e 78
        e 60 82 40 00
        e 444 92 3c 78
        e 60 82 3e 00
        e 443 92 3b 78
        e 60 82 3c 00
        e 451 92 42 78
        e 0 92 39 77
        e 55 82 3b 00
        e 20 82 43 00
        e 945 82 39 00
        e 35 92 3e 78
        e 1013 82 3e 00
        e 1 92 41 78
        e 0 92 3e 78
        e 80 82 42 00
        e 429 92 3c 78
        e 60 82 3e 00
        e 444 92 3b 78
        e 60 82 3c 00
        e 443 92 39 78
        e 60 82 3b 00
        e 451 92 40 77
        e 0 92 37 77
        e 55 82 39 00
        e 20 82 41 00
        e 945 82 37 00
        e 35 92 39 78
        e 504 92 3b 78
        e 60 82 39 00
        e 450 92 3c 78
        e 0 92 39 79
        e 60 82 3b 00
        e 449 92 3b 78
        e 60 82 3c 00
        e 444 92 3c 78
        e 60 82 3b 00
        e 443 92 3e 78
        e 60 82 3c 00
        e 411 82 40 00
        e 34 82 39 00
        e 6 92 40 78
        e 0 92 39 79
        e 55 82 3e 00
        e 493 92 3e 78
        e 60 82 40 00
        e 447 92 4c 78
        e 0 92 3c 78
        e 60 82 3e 00
        e 444 92 3b 78
        e 60 82 3c 00
        e 449 82 39 00
        e 1 92 4d 78
        e 0 92 3c 78
        e 0 92 39 78
        e 39 82 4c 00
        e 21 82 3b 00
        e 449 92 4c 78
        e 60 82 4d 00
        e 444 92 4a 78
        e 0 92 3e 78
        e 39 82 3c 00
        e 21 82 4c 00
        e 443 92 48 78
        e 60 82 4a 00
        e 451 92 47 77
        e 0 92 40 77
        e 0 92 38 78
        e 34 82 3e 00
        e 21 82 48 00
        e 20 82 39 00
        e 945 82 47 00
        e 0 82 40 00
        e 35 92 4c 78
        e 0 92 3b 78
        e 1013 82 4c 00
        e 0 82 3b 00
        e 1 92 4c 78
        e 0 92 40 79
        e 0 92 37 78
        e 80 82 38 00
        e 429 92 4a 78
        e 60 82 4c 00
        e 444 92 48 78
        e 60 82 4a 00
        e 443 92 47 78
        e 60 82 48 00
        e 451 92 45 77
        e 0 92 36 78
        e 55 82 47 00
        e 20 82 37 00
        e 945 82 45 00
        e 35 92 4a 78
        e 0 92 3e 78
        e 39 82 40 00
        e 465 92 3c 78
        e 60 82 3e 00
        e 449 82 4a 00
        e 1 92 4a 78
        e 0 92 3e 77
        e 0 92 35 78
        e 60 82 3c 00
        e 20 82 36 00
        e 429 92 48 78
        e 60 82 4a 00
        e 444 92 47 78
        e 60 82 48 00
        e 443 92 45 78
        e 60 82 47 00
        e 411 82 3e 00
        e 40 92 43 77
        e 0 92 40 78
        e 0 92 34 77
        e 55 82 45 00
        e 20 82 35 00
        e 473 92 3e 78
        e 60 82 40 00
        e 412 82 43 00
        e 35 92 40 78
        e 0 92 3c 78
        e 60 82 3e 00
        e 444 92 3b 78
        e 60 82 3c 00
        e 415 82 34 00
        e 35 92 45 78
        e 0 92 39 77
        e 0 92 35 79
        e 0 92 32 79
        e 39 82 40 00
        e 21 82 3b 00
        e 449 92 43 78
        e 60 82 45 00
        e 444 92 41 78
        e 60 82 43 00
        e 443 92 40 78
        e 60 82 41 00
        e 411 82 39 00
        e 11 b2 07 66
        e 23 82 35 00
        e 0 82 32 00
        e 6 92 41 78
        e 0 92 3e 78
        e 0 92 32 79
        e 55 82 40 00
        e 1000 92 39 78
        e 1013 82 32 00
        e 1 92 3a 78
        e 0 92 32 78
        e 39 82 39 00
        e 470 92 39 78
        e 60 82 3a 00
        e 444 92 43 78
        e 0 92 37 78
        e 60 82 39 00
        e 61 82 41 00
        e 382 92 35 78
        e 60 82 37 00
        e 451 92 45 77
        e 0 92 40 77
        e 0 92 34 77
        e 0 92 31 78
        e 34 82 43 00
        e 21 82 35 00
        e 20 82 32 00
        e 82 82 3e 00
        e 863 82 45 00
        e 0 82 34 00
        e 35 92 40 78
        e 0 92 39 78
        e 504 92 41 78
        e 60 82 40 00
        e 186 92 43 78
        e 29 82 41 00
        e 234 82 40 00
        e 0 82 39 00
        e 1 92 45 78
        e 0 92 40 78
        e 0 92 39 78
        e 0 92 30 78
        e 29 82 43 00
        e 51 82 31 00
        e 429 92 37 78
        e 60 82 39 00
        e 444 92 3e 78
        e 0 92 35 78
        e 39 82 40 00
        e 21 82 37 00
        e 443 92 3c 78
        e 0 92 34 78
        e 60 82 3e 00
        e 0 82 35 00
        e 451 92 3e 78
        e 0 92 32 77
        e 0 92 2f 78
        e 55 82 3c 00
        e 0 82 34 00
        e 20 82 30 00
        e 945 82 32 00
        e 35 92 43 78
        e 0 92 37 78
        e 39 82 45 00
        e 465 92 42 78
        e 60 82 43 00
        e 449 82 37 00
        e 1 92 43 78
        e 0 92 37 78
        e 0 92 2e 78
        e 60 82 42 00
        e 20 82 2f 00
        e 429 92 35 78
        e 60 82 37 00
        e 444 92 40 78
        e 0 92 34 78
        e 60 82 35 00
        e 61 82 3e 00
        e 382 92 32 78
        e 60 82 34 00
        e 451 92 45 77
        e 0 92 41 77
        e 0 92 30 77
        e 0 92 2d 77
        e 34 82 40 00
        e 21 82 32 00
        e 20 82 43 00
        e 0 82 2e 00
        e 945 82 41 00
        e 0 82 30 00
        e 0 82 2d 00
        e 35 92 40 78
        e 0 92 3c 78
        e 0 92 39 78
        e 504 92 3e 78
        e 60 82 40 00
        e 449 82 45 00
        e 0 82 3c 00
        e 0 82 39 00
        e 1 92 45 79
        e 0 92 40 77
        e 0 92 3c 78
        e 0 92 39 78
        e 60 82 3e 00
        e 449 92 3b 78
        e 0 92 37 78
        e 60 82 3c 00
        e 0 82 39 00
        e 409 82 40 00
        e 34 82 45 00
        e 1 92 45 78
        e 0 92 3e 78
        e 0 92 39 77
        e 0 92 35 78
        e 60 82 3b 00
        e 0 82 37 00
        e 443 92 43 78
        e 0 92 34 78
        e 60 82 45 00
        e 0 82 35 00
        e 411 82 39 00
        e 34 82 3e 00
        e 6 92 41 78
        e 0 92 3e 78
        e 0 92 32 77
        e 55 82 43 00
        e 0 82 34 00
        e 493 92 40 78
        e 0 92 3c 78
        e 60 82 41 00
        e 0 82 3e 00
        e 412 82 32 00
        e 35 92 3e 77
        e 0 92 3b 78
        e 0 92 37 78
        e 60 82 40 00
        e 0 82 3c 00
        e 444 92 39 78
        e 60 82 3b 00
        e 415 82 3e 00
        e 34 82 37 00
        e 1 92 43 79
        e 0 92 3b 77
        e 0 92 37 78
        e 60 82 39 00
        e 449 92 35 78
        e 60 82 37 00
        e 409 82 3b 00
        e 34 82 43 00
        e 1 92 43 78
        e 0 92 3c 78
        e 0 92 34 78
        e 60 82 35 00
        e 443 92 41 78
        e 0 92 32 78
        e 60 82 43 00
        e 0 82 34 00
        e 445 82 3c 00
        e 6 92 40 78
        e 0 92 3c 78
        e 0 92 30 77
        e 55 82 41 00
        e 0 82 32 00
        e 493 92 3e 78
        e 0 92 3b 78
        e 60 82 40 00
        e 0 82 3c 00
        e 412 82 30 00
        e 35 92 3c 77
        e 0 92 39 78
        e 0 92 35 78
        e 60 82 3e 00
        e 0 82 3b 00
        e 444 92 37 78
        e 60 82 39 00
        e 415 82 3c 00
        e 34 82 35 00
        e 1 92 41 79
        e 0 92 39 77
        e 0 92 35 78
        e 60 82 37 00
        e 449 92 34 78
        e 60 82 35 00
        e 443 82 41 00
        e 0 82 39 00
        e 1 92 41 78
        e 0 92 39 78
        e 0 92 32 78
        e 60 82 34 00
        e 443 92 40 78
        e 0 92 30 78
        e 60 82 41 00
        e 0 82 32 00
        e 445 82 39 00
        e 6 92 3e 77
        e 0 92 3b 78
        e 0 92 37 79
        e 0 92 2f 78
        e 55 82 40 00
        e 0 82 30 00
        e 493 92 2d 78
        e 60 82 2f 00
        e 412 82 3e 00
        e 34 82 3b 00
        e 0 82 37 00
        e 1 92 43 78
        e 0 92 3b 78
        e 0 92 37 78
        e 0 92 2b 77
        e 60 82 2d 00
        e 444 92 39 78
        e 0 92 35 78
        e 60 82 3b 00
        e 0 82 37 00
        e 415 82 2b 00
        e 34 82 43 00
        e 1 92 43 78
        e 0 92 37 78
        e 0 92 34 78
        e 0 92 30 79
        e 60 82 39 00
        e 0 82 35 00
        e 449 92 41 78
        e 0 92 32 77
        e 60 82 43 00
        e 0 82 34 00
        e 379 82 32 00
        e 64 82 30 00
        e 1 92 40 78
        e 0 92 30 78
        e 60 82 41 00
        e 443 92 3e 78
        e 0 92 32 78
        e 0 92 2f 78
        e 60 82 40 00
        e 0 82 30 00
        e 451 92 3c 77
        e 0 92 39 77
        e 0 92 34 78
        e 0 92 2d 78
        e 55 82 3e 00
        e 0 82 32 00
        e 0 82 2f 00
        e 20 82 37 00
        e 473 92 2b 78
        e 60 82 2d 00
        e 447 92 35 78
        e 0 92 29 77
        e 39 82 34 00
        e 21 82 2b 00
        e 443 82 39 00
        e 1 92 39 78
        e 475 82 29 00
        e 35 92 37 78
        e 0 92 30 79
        e 60 82 39 00
        e 449 92 34 78
        e 60 82 35 00
        e 186 92 32 78
        e 29 82 34 00
        e 229 92 34 78
        e 29 82 32 00
        e 228 92 39 78
        e 0 92 30 78
        e 29 82 37 00
        e 0 82 34 00
        e 217 92 3a 78
        e 0 92 32 78
        e 29 82 30 00
        e 0 82 39 00
        e 217 92 3c 78
        e 0 92 34 78
        e 29 82 3a 00
        e 0 82 32 00
        e 196 82 3c 00
        e 34 82 30 00
        e 6 92 39 77
        e 0 92 35 77
        e 0 92 29 79
        e 24 82 3c 00
        e 0 82 34 00
        e 996 82 39 00
        e 35 92 48 78
        e 0 92 45 78
        e 1013 82 29 00
        e 0 82 48 00
        e 0 82 45 00
        e 1 92 48 78
        e 0 92 45 78
        e 0 92 2d 78
        e 509 92 46 78
        e 0 92 43 78
        e 60 82 48 00
        e 0 82 45 00
        e 444 92 45 78
        e 0 92 41 78
        e 60 82 46 00
        e 0 82 43 00
        e 443 92 43 77
        e 0 92 40 77
        e 60 82 45 00
        e 0 82 41 00
        e 381 82 43 00
        e 0 82 40 00
        e 30 82 35 00
        e 40 92 41 78
        e 0 92 3e 78
        e 0 92 2e 77
        e 75 82 2d 00
        e 980 92 3a 78
        e 979 82 2e 00
        e 34 82 3a 00
        e 1 92 43 78
        e 0 92 3a 78
        e 80 82 41 00
        e 429 92 39 78
        e 60 82 3a 00
        e 444 92 46 77
        e 0 92 37 78
        e 39 82 43 00
        e 21 82 39 00
        e 443 92 35 78
        e 60 82 37 00
        e 445 82 3e 00
        e 0 82 46 00
        e 6 92 46 78
        e 0 92 3e 79
        e 0 92 37 78
        e 55 82 35 00
        e 493 92 45 78
        e 60 82 46 00
        e 447 92 43 78
        e 60 82 45 00
        e 444 92 41 78
        e 0 92 39 78
        e 60 82 37 00
        e 0 82 43 00
        e 449 82 3e 00
        e 1 92 43 78
        e 0 92 3e 78
        e 0 92 3a 78
        e 60 82 41 00
        e 0 82 39 00
        e 449 92 41 78
        e 60 82 43 00
        e 186 92 40 78
        e 29 82 41 00
        e 229 92 3e 78
        e 29 82 40 00
        e 228 92 40 78
        e 29 82 3e 00
        e 217 92 41 78
        e 29 82 40 00
        e 217 92 43 78
        e 29 82 41 00
        e 236 92 45 77
        e 0 92 3d 78
        e 0 92 39 77
        e 24 82 43 00
        e 51 82 3a 00
        e 0 82 3e 00
        e 945 82 45 00
        e 35 92 40 78
        e 0 92 39 78
        e 979 82 39 00
        e 34 82 39 00
        e 1 92 41 78
        e 0 92 3c 78
        e 0 92 39 78
        e 39 82 40 00
        e 41 82 3d 00
        e 429 92 37 78
        e 60 82 39 00
        e 444 92 45 78
        e 0 92 35 78
        e 39 82 41 00
        e 21 82 37 00
        e 443 92 34 78
        e 60 82 35 00
        e 451 92 3b 78
        e 0 92 32 77
        e 55 82 34 00
        e 20 82 3c 00
        e 945 82 32 00
        e 35 92 43 77
        e 0 92 34 78
        e 39 82 45 00
        e 974 82 43 00
        e 0 82 34 00
        e 1 92 43 78
        e 0 92 3a 78
        e 0 92 37 79
        e 80 82 3b 00
        e 429 92 41 78
        e 60 82 43 00
        e 443 82 37 00
        e 1 92 40 78
        e 0 92 37 78
        e 0 92 2b 78
        e 60 82 41 00
        e 443 92 3e 78
        e 0 92 35 78
        e 60 82 40 00
        e 0 82 37 00
        e 451 92 3c 77
        e 0 92 39 77
        e 0 92 34 78
        e 0 92 2d 77
        e 34 82 2b 00
        e 21 82 3e 00
        e 0 82 35 00
        e 20 82 3a 00
        e 473 92 32 78
        e 60 82 34 00
        e 412 82 3c 00
        e 0 82 39 00
        e 35 92 40 78
        e 0 92 3c 78
        e 0 92 30 78
        e 60 82 32 00
        e 444 92 32 78
        e 60 82 30 00
        e 415 82 2d 00
        e 34 82 40 00
        e 0 82 3c 00
        e 1 92 40 78
        e 0 92 3c 78
        e 0 92 34 77
        e 60 82 32 00
        e 449 92 3e 78
        e 0 92 3b 78
        e 60 82 40 00
        e 0 82 3c 00
        e 444 92 3c 78
        e 0 92 39 78
        e 0 92 2d 78
        e 60 82 3e 00
        e 0 82 3b 00
        e 443 92 3b 78
        e 0 92 37 78
        e 60 82 3c 00
        e 0 82 39 00
        e 411 82 34 00
        e 34 82 2d 00
        e 6 92 39 77
        e 0 92 35 79
        e 0 92 32 78
        e 55 82 3b 00
        e 0 82 37 00
        e 493 92 30 78
        e 60 82 32 00
        e 412 82 39 00
        e 0 82 35 00
        e 35 92 3e 78
        e 0 92 3a 78
        e 0 92 35 78
        e 0 92 2e 78
        e 60 82 30 00
        e 444 92 2d 78
        e 60 82 2e 00
        e 450 92 34 78
        e 0 92 2b 78
        e 39 82 35 00
        e 21 82 2d 00
        e 449 92 40 78
        e 60 82 3e 00
        e 429 92 3e 78
        e 15 92 39 78
        e 0 92 2d 78
        e 39 82 2b 00
        e 21 82 40 00
        e 20 82 3a 00
        e 26 92 3d 78
        e 14 82 3e 00
        e 107 92 3e 78
        e 14 82 3d 00
        e 107 92 3d 77
        e 14 82 3e 00
        e 141 92 37 78
        e 60 82 39 00
        e 446 82 3d 00
        e 5 92 3e 77
        e 0 92 35 77
        e 0 92 32 78
        e 0 92 2e 77
        e 34 82 2d 00
        e 21 82 37 00
        e 20 82 34 00
        e 473 92 34 78
        e 60 82 32 00
        e 412 82 35 00
        e 35 92 3e 78
        e 0 92 35 78
        e 60 82 34 00
        e 444 92 32 77
        e 60 82 35 00
        e 385 82 32 00
        e 30 82 3e 00
        e 0 82 2e 00
        e 34 82 3e 00
        e 1 92 3e 78
        e 0 92 3a 78
        e 0 92 2b 79
        e 1013 92 40 78
        e 0 92 39 78
        e 39 82 3e 00
        e 0 82 3a 00
        e 464 92 37 78
        e 60 82 39 00
        e 445 82 2b 00
        e 6 92 41 77
        e 0 92 39 77
        e 0 92 32 78
        e 34 82 40 00
        e 21 82 37 00
        e 965 82 41 00
        e 35 92 45 78
        e 0 92 3e 78
        e 1013 82 45 00
        e 1 92 45 78
        e 0 92 41 78
        e 39 82 3e 00
        e 974 92 47 78
        e 0 92 40 78
        e 39 82 45 00
        e 0 82 41 00
        e 464 92 3e 78
        e 60 82 40 00
        e 445 82 39 00
        e 0 82 32 00
        e 6 92 48 78
        e 0 92 3c 78
        e 0 92 39 78
        e 34 82 47 00
        e 21 82 3e 00
        e 1000 92 45 78
        e 0 92 3e 78
        e 39 82 48 00
        e 0 82 3c 00
        e 975 92 48 78
        e 0 92 40 78
        e 39 82 45 00
        e 0 82 3e 00
        e 974 92 47 78
        e 0 92 41 78
        e 39 82 48 00
        e 0 82 40 00
        e 464 92 45 78
        e 60 82 47 00
        e 445 82 39 00
        e 6 92 44 78
        e 0 92 40 78
        e 34 82 41 00
        e 21 82 45 00
        e 1000 92 45 78
        e 0 92 3e 78
        e 0 92 32 78
        e 39 82 44 00
        e 0 82 40 00
        e 465 92 3c 78
        e 60 82 3e 00
        e 449 82 32 00
        e 1 92 3b 78
        e 0 92 32 78
        e 60 82 3c 00
        e 204 92 44 78
        e 29 82 45 00
        e 216 92 45 78
        e 29 82 44 00
        e 217 92 44 78
        e 29 82 45 00
        e 229 92 45 78
        e 0 92 34 78
        e 29 82 44 00
        e 10 82 32 00
        e 218 92 44 78
        e 29 82 45 00
        e 217 92 42 78
        e 29 82 44 00
        e 217 92 44 78
        e 29 82 42 00
        e 236 92 45 77
        e 0 92 39 77
        e 0 92 35 78
        e 24 82 44 00
        e 10 82 34 00
        e 41 82 3b 00
        e 945 82 39 00
        e 35 92 3e 78
        e 0 92 39 78
        e 0 92 32 78
        e 39 82 35 00
        e 940 82 45 00
        e 34 82 39 00
        e 1 92 3c 78
        e 0 92 39 78
        e 0 92 35 78
        e 39 82 3e 00
        e 0 82 32 00
        e 974 92 3e 78
        e 0 92 3b 78
        e 0 92 34 78
        e 39 82 3c 00
        e 0 82 39 00
        e 0 82 35 00
        e 464 92 32 78
        e 60 82 34 00
        e 451 92 40 78
        e 0 92 3c 78
        e 0 92 30 78
        e 34 82 3e 00
        e 0 82 3b 00
        e 21 82 32 00
        e 1000 92 41 78
        e 0 92 39 78
        e 0 92 32 78
        e 39 82 40 00
        e 0 82 3c 00
        e 0 82 30 00
        e 975 92 40 78
        e 0 92 3c 78
        e 0 92 34 78
        e 39 82 41 00
        e 0 82 39 00
        e 0 82 32 00
        e 974 92 3e 78
        e 0 92 3b 78
        e 0 92 35 78
        e 39 82 40 00
        e 0 82 3c 00
        e 0 82 34 00
        e 464 92 39 78
        e 60 82 3b 00
        e 451 92 40 78
        e 0 92 38 78
        e 0 92 34 78
        e 34 82 3e 00
        e 0 82 35 00
        e 21 82 39 00
        e 1000 92 45 78
        e 0 92 39 78
        e 0 92 31 78
        e 39 82 38 00
        e 0 82 34 00
        e 974 82 45 00
        e 1 92 45 78
        e 0 92 3e 77
        e 0 92 35 78
        e 0 92 32 78
        e 39 82 39 00
        e 0 82 31 00
        e 41 82 40 00
        e 933 92 47 78
        e 0 92 34 78
        e 0 92 30 78
        e 39 82 45 00
        e 0 82 35 00
        e 0 82 32 00
        e 464 92 32 78
        e 0 92 2f 78
        e 60 82 34 00
        e 0 82 30 00
        e 411 82 3e 00
        e 40 92 48 78
        e 0 92 34 77
        e 0 92 2d 77
        e 34 82 47 00
        e 21 82 32 00
        e 0 82 2f 00
        e 965 82 34 00
        e 35 92 45 78
        e 0 92 3c 78
        e 0 92 39 78
        e 39 82 48 00
        e 940 82 2d 00
        e 34 82 3c 00
        e 0 82 39 00
        e 1 92 48 78
        e 0 92 3c 78
        e 0 92 39 78
        e 39 82 45 00
        e 974 92 47 78
        e 0 92 3e 78
        e 0 92 3b 78
        e 39 82 48 00
        e 0 82 3c 00
        e 0 82 39 00
        e 464 92 45 78
        e 60 82 47 00
        e 451 92 43 78
        e 0 92 40 77
        e 0 92 3c 78
        e 34 82 3e 00
        e 0 82 3b 00
        e 21 82 45 00
        e 999 82 40 00
        e 1 92 48 78
        e 0 92 40 78
        e 0 92 39 78
        e 0 92 2d 78
        e 39 82 43 00
        e 0 82 3c 00
        e 974 82 40 00
        e 0 82 2d 00
        e 1 92 45 78
        e 0 92 40 78
        e 0 92 3c 78
        e 0 92 2d 78
        e 39 82 48 00
        e 0 82 39 00
        e 974 92 43 78
        e 0 92 3e 78
        e 0 92 3b 78
        e 0 92 2f 78
        e 39 82 45 00
        e 0 82 40 00
        e 0 82 3c 00
        e 0 82 2d 00
        e 464 92 41 78
        e 0 92 39 78
        e 60 82 43 00
        e 0 82 3b 00
        e 451 92 40 77
        e 0 92 3c 77
        e 0 92 37 78
        e 0 92 30 78
        e 34 82 3e 00
        e 0 82 2f 00
        e 21 82 41 00
        e 0 82 39 00
        e 999 82 40 00
        e 1 92 40 78
        e 0 92 39 78
        e 0 92 2d 78
        e 39 82 37 00
        e 0 82 30 00
        e 940 82 3c 00
        e 34 82 40 00
        e 1 92 40 78
        e 0 92 37 78
        e 0 92 30 78
        e 39 82 39 00
        e 0 82 2d 00
        e 974 92 42 78
        e 0 92 39 78
        e 0 92 2f 78
        e 39 82 40 00
        e 0 82 37 00
        e 0 82 30 00
        e 464 92 2d 78
        e 60 82 2f 00
        e 451 92 43 77
        e 0 92 3e 78
        e 0 92 3a 78
        e 0 92 2b 77
        e 34 82 42 00
        e 0 82 39 00
        e 21 82 2d 00
        e 1000 92 37 77
        e 39 82 3a 00
        e 940 82 2b 00
        e 0 82 37 00
        e 35 92 3a 78
        e 0 92 37 78
        e 1012 82 43 00
        e 1 92 43 78
        e 0 92 39 78
        e 0 92 35 78
        e 39 82 3a 00
        e 0 82 37 00
        e 464 92 37 78
        e 0 92 34 78
        e 60 82 39 00
        e 0 82 35 00
        e 445 82 3e 00
        e 6 92 45 77
        e 0 92 3e 78
        e 0 92 35 78
        e 0 92 32 77
        e 34 82 43 00
        e 21 82 37 00
        e 0 82 34 00
        e 965 82 45 00
        e 34 82 32 00
        e 1 92 41 78
        e 0 92 32 78
        e 504 92 37 78
        e 60 82 35 00
        e 449 82 41 00
        e 0 82 32 00
        e 1 92 41 78
        e 0 92 39 77
        e 0 92 32 78
        e 60 82 37 00
        e 953 92 43 78
        e 0 92 34 78
        e 39 82 41 00
        e 0 82 32 00
        e 935 82 39 00
        e 34 82 3e 00
        e 6 92 45 78
        e 0 92 3e 78
        e 0 92 35 78
        e 34 82 43 00
        e 0 82 34 00
        e 266 92 37 78
        e 29 82 35 00
        e 219 92 35 78
        e 29 82 37 00
        e 218 92 34 78
        e 29 82 35 00
        e 231 92 41 78
        e 0 92 32 78
        e 29 82 34 00
        e 10 82 45 00
        e 220 92 30 78
        e 29 82 32 00
        e 216 92 32 78
        e 29 82 30 00
        e 217 92 34 78
        e 29 82 32 00
        e 235 92 45 78
        e 0 92 35 78
        e 29 82 34 00
        e 10 82 41 00
        e 225 92 32 78
        e 29 82 35 00
        e 216 92 34 78
        e 29 82 32 00
        e 217 92 35 78
        e 29 82 34 00
        e 229 92 43 78
        e 0 92 37 78
        e 29 82 35 00
        e 10 82 45 00
        e 218 92 34 78
        e 29 82 37 00
        e 217 92 41 78
        e 0 92 35 78
        e 29 82 34 00
        e 31 82 43 00
        e 186 92 37 78
        e 29 82 35 00
        e 230 82 3e 00
        e 6 92 40 77
        e 0 92 3d 78
        e 0 92 39 78
        e 24 82 37 00
        e 31 82 41 00
        e 493 92 37 78
        e 60 82 39 00
        e 187 92 35 78
        e 29 82 37 00
        e 230 82 40 00
        e 1 92 40 78
        e 0 92 34 78
        e 29 82 35 00
        e 230 92 32 78
        e 29 82 34 00
        e 216 92 31 78
        e 29 82 32 00
        e 217 92 2f 78
        e 29 82 31 00
        e 234 82 40 00
        e 1 92 40 78
        e 0 92 2d 77
        e 29 82 2f 00
        e 338 82 2d 00
        e 142 92 34 78
        e 396 82 34 00
        e 108 92 42 78
        e 0 92 39 78
        e 39 82 40 00
        e 356 82 39 00
        e 108 92 2d 78
        e 398 82 2d 00
        e 107 82 3d 00
        e 6 92 43 77
        e 0 92 3c 78
        e 0 92 34 78
        e 34 82 42 00
        e 266 92 35 78
        e 29 82 34 00
        e 219 92 34 78
        e 29 82 35 00
        e 218 92 32 78
        e 29 82 34 00
        e 196 82 43 00
        e 35 92 40 78
        e 0 92 30 78
        e 29 82 32 00
        e 230 92 2f 78
        e 29 82 30 00
        e 216 92 30 78
        e 29 82 2f 00
        e 217 92 32 78
        e 29 82 30 00
        e 235 92 43 78
        e 0 92 34 78
        e 29 82 32 00
        e 10 82 40 00
        e 225 92 30 78
        e 29 82 34 00
        e 216 92 32 78
        e 29 82 30 00
        e 217 92 34 78
        e 29 82 32 00
        e 229 92 41 78
        e 0 92 35 78
        e 29 82 34 00
        e 10 82 43 00
        e 218 92 32 78
        e 29 82 35 00
        e 217 92 40 78
        e 0 92 34 78
        e 29 82 32 00
        e 31 82 41 00
        e 186 92 35 78
        e 29 82 34 00
        e 230 82 3c 00
        e 6 92 3e 77
        e 0 92 3b 78
        e 0 92 37 78
        e 24 82 35 00
        e 31 82 40 00
        e 493 92 35 78
        e 60 82 37 00
        e 187 92 34 78
        e 29 82 35 00
        e 230 82 3e 00
        e 1 92 3e 78
        e 0 92 32 78
        e 29 82 34 00
        e 230 92 30 78
        e 29 82 32 00
        e 216 92 2f 78
        e 29 82 30 00
        e 217 92 2d 78
        e 29 82 2f 00
        e 234 82 3e 00
        e 1 92 3e 78
        e 0 92 2b 77
        e 29 82 2d 00
        e 338 82 2b 00
        e 142 92 32 78
        e 396 82 32 00
        e 108 92 40 78
        e 0 92 37 78
        e 39 82 3e 00
        e 356 82 37 00
        e 108 92 2b 78
        e 398 82 2b 00
        e 107 82 3b 00
        e 6 92 41 78
        e 0 92 3a 78
        e 0 92 32 78
        e 34 82 40 00
        e 266 92 34 78
        e 29 82 32 00
        e 219 92 32 78
        e 29 82 34 00
        e 218 92 30 78
        e 29 82 32 00
        e 231 92 3e 78
        e 0 92 2e 78
        e 29 82 30 00
        e 10 82 41 00
        e 220 92 2d 78
        e 29 82 2e 00
        e 216 92 2e 78
        e 29 82 2d 00
        e 217 92 30 78
        e 29 82 2e 00
        e 235 92 41 78
        e 0 92 32 78
        e 29 82 30 00
        e 10 82 3e 00
        e 225 92 34 78
        e 29 82 32 00
        e 216 92 35 78
        e 29 82 34 00
        e 217 92 32 78
        e 29 82 35 00
        e 229 92 40 78
        e 0 92 34 78
        e 29 82 32 00
        e 10 82 41 00
        e 218 92 30 78
        e 29 82 34 00
        e 217 92 3e 78
        e 0 92 32 78
        e 29 82 30 00
        e 31 82 40 00
        e 186 92 34 78
        e 29 82 32 00
        e 236 92 3c 77
        e 0 92 39 77
        e 0 92 35 77
        e 24 82 34 00
        e 31 82 3e 00
        e 102 82 3a 00
        e 863 82 3c 00
        e 0 82 39 00
        e 0 82 35 00
        e 35 92 41 78
        e 0 92 39 78
        e 0 92 32 78
        e 1013 82 41 00
        e 0 82 39 00
        e 1 92 41 78
        e 0 92 39 78
        e 0 92 35 78
        e 39 82 32 00
        e 225 92 3e 78
        e 29 82 41 00
        e 216 92 40 78
        e 29 82 3e 00
        e 217 92 41 78
        e 29 82 40 00
        e 229 92 43 78
        e 0 92 3b 78
        e 0 92 34 78
        e 29 82 41 00
        e 10 82 39 00
        e 0 82 35 00
        e 218 92 40 78
        e 29 82 43 00
        e 217 92 41 78
        e 0 92 32 78
        e 29 82 40 00
        e 31 82 34 00
        e 186 92 43 78
        e 29 82 41 00
        e 236 92 45 78
        e 0 92 3c 77
        e 0 92 30 78
        e 24 82 43 00
        e 10 82 3b 00
        e 21 82 32 00
        e 245 92 46 78
        e 29 82 45 00
        e 219 92 45 78
        e 29 82 46 00
        e 218 92 43 78
        e 29 82 45 00
        e 196 82 3c 00
        e 35 92 41 78
        e 0 92 39 78
        e 0 92 32 77
        e 29 82 43 00
        e 10 82 30 00
        e 220 92 40 78
        e 29 82 41 00
        e 216 92 41 78
        e 29 82 40 00
        e 217 92 43 78
        e 29 82 41 00
        e 200 82 32 00
        e 35 92 45 78
        e 0 92 3c 78
        e 0 92 2d 78
        e 29 82 43 00
        e 10 82 39 00
        e 225 92 2f 78
        e 29 82 2d 00
        e 216 92 30 78
        e 29 82 2f 00
        e 217 92 2d 78
        e 29 82 30 00
        e 229 92 43 78
        e 0 92 3b 78
        e 0 92 2f 78
        e 29 82 2d 00
        e 10 82 45 00
        e 0 82 3c 00
        e 218 92 30 78
        e 29 82 2f 00
        e 217 92 41 78
        e 0 92 39 78
        e 0 92 32 78
        e 29 82 30 00
        e 31 82 43 00
        e 0 82 3b 00
        e 186 92 2f 78
        e 29 82 32 00
        e 236 92 40 77
        e 0 92 37 77
        e 0 92 30 77
        e 24 82 2f 00
        e 31 82 41 00
        e 0 82 39 00
        e 195 82 40 00
        e 50 92 43 78
        e 248 92 45 78
        e 29 82 43 00
        e 218 92 47 78
        e 29 82 45 00
        e 231 92 48 77
        e 0 92 40 78
        e 29 82 47 00
        e 984 82 48 00
        e 0 82 40 00
        e 1 92 48 79
        e 0 92 40 79
        e 1012 82 48 00
        e 0 82 40 00
        e 1 92 4a 78
        e 0 92 41 78
        e 974 82 37 00
        e 34 82 30 00
        e 0 82 4a 00
        e 0 82 41 00
        e 6 92 4c 79
        e 0 92 43 78
        e 0 92 30 79
        e 1054 82 4c 00
        e 1 92 48 78
        e 0 92 3c 78
        e 1013 82 30 00
        e 0 82 48 00
        e 0 82 3c 00
        e 1 92 4c 78
        e 0 92 3c 79
        e 1012 82 3c 00
        e 1 92 4a 78
        e 0 92 3e 78
        e 39 82 4c 00
        e 464 92 48 78
        e 60 82 4a 00
        e 445 82 43 00
        e 0 82 3e 00
        e 6 92 47 77
        e 0 92 43 79
        e 0 92 40 79
        e 55 82 48 00
        e 428 82 47 00
        e 65 92 48 78
        e 247 92 4a 78
        e 29 82 48 00
        e 230 82 40 00
        e 1 92 4c 77
        e 0 92 3c 78
        e 0 92 30 78
        e 29 82 4a 00
        e 410 82 4c 00
        e 65 92 4a 78
        e 479 82 4a 00
        e 30 82 43 00
        e 0 82 3c 00
        e 0 82 30 00
        e 1 92 48 79
        e 0 92 43 79
        e 0 92 40 79
        e 0 92 30 79
        e 1012 82 48 00
        e 0 82 43 00
        e 0 82 40 00
        e 0 82 30 00
        e 1 92 47 78
        e 0 92 41 78
        e 0 92 3e 78
        e 0 92 32 78
        e 472 82 3e 00
        e 31 92 45 77
        e 0 92 3c 78
        e 60 82 47 00
        e 381 82 45 00
        e 64 82 41 00
        e 0 82 32 00
        e 6 92 43 78
        e 0 92 40 78
        e 0 92 3b 77
        e 0 92 34 79
        e 55 82 3c 00
        e 965 82 3b 00
        e 34 82 34 00
        e 1 92 3c 78
        e 0 92 30 78
        e 1013 82 3c 00
        e 0 82 30 00
        e 1 92 3c 79
        e 0 92 34 79
        e 1012 82 3c 00
        e 0 82 34 00
        e 1 92 45 78
        e 0 92 3b 78
        e 0 92 32 78
        e 121 82 43 00
        e 351 82 32 00
        e 31 92 39 77
        e 0 92 30 78
        e 60 82 3b 00
        e 381 82 39 00
        e 70 92 47 77
        e 0 92 38 78
        e 0 92 2f 77
        e 34 82 45 00
        e 21 82 30 00
        e 965 82 47 00
        e 34 82 40 00
        e 1 92 4a 78
        e 0 92 3b 78
        e 979 82 2f 00
        e 34 82 4a 00
        e 0 82 3b 00
        e 1 92 48 78
        e 0 92 40 79
        e 0 92 39 78
        e 0 92 2d 79
        e 80 82 38 00
        e 933 92 47 78
        e 0 92 37 78
        e 39 82 48 00
        e 0 82 39 00
        e 464 92 45 78
        e 0 92 35 77
        e 60 82 47 00
        e 0 82 37 00
        e 381 82 35 00
        e 64 82 40 00
        e 0 82 2d 00
        e 6 92 44 77
        e 0 92 34 78
        e 55 82 45 00
        e 493 92 40 78
        e 472 82 44 00
        e 35 92 45 78
        e 0 92 3e 78
        e 60 82 40 00
        e 444 92 3c 78
        e 60 82 3e 00
        e 450 92 3b 78
        e 60 82 3c 00
        e 204 92 44 78
        e 29 82 45 00
        e 216 92 45 78
        e 29 82 44 00
        e 217 92 44 78
        e 29 82 45 00
        e 229 92 45 78
        e 29 82 44 00
        e 228 92 44 78
        e 29 82 45 00
        e 217 92 42 78
        e 29 82 44 00
        e 217 92 44 78
        e 29 82 42 00
        e 230 82 34 00
        e 6 92 45 77
        e 0 92 39 77
        e 0 92 35 78
        e 0 92 32 78
        e 24 82 44 00
        e 51 82 3b 00
        e 1959 82 39 00
        e 1048 92 3e 78
        e 974 82 45 00
        e 34 82 35 00
        e 0 82 32 00
        e 0 82 3e 00
        e 6 92 41 79
        e 0 92 32 78
        e 1054 82 41 00
        e 1 92 40 78
        e 1013 82 40 00
        e 1 92 3e 79
        e 1012 82 3e 00
        e 1 92 3c 78
        e 1008 82 32 00
        e 0 82 3c 00
        e 6 92 3b 79
        e 0 92 32 78
        e 1054 82 3b 00
        e 1 92 39 78
        e 1013 82 39 00
        e 1 92 37 79
        e 1012 82 37 00
        e 1 92 45 78
        e 0 92 35 78
        e 1008 82 32 00
        e 0 82 45 00
        e 0 82 35 00
        e 6 92 4c 79
        e 0 92 34 78
        e 0 92 31 78
        e 1054 82 4c 00
        e 1 92 4a 78
        e 1013 82 4a 00
        e 1 92 49 79
        e 1012 82 49 00
        e 1 92 47 78
        e 1008 82 34 00
        e 0 82 31 00
        e 0 82 47 00
        e 6 92 45 79
        e 0 92 30 78
        e 1054 82 45 00
        e 1 92 43 78
        e 1013 82 43 00
        e 1 92 41 79
        e 1012 82 41 00
        e 1 92 40 78
        e 0 92 39 78
        e 1008 82 30 00
        e 0 82 40 00
        e 0 82 39 00
        e 6 92 43 78
        e 0 92 3e 79
        e 0 92 2f 78
        e 1054 82 3e 00
        e 1 92 3c 78
        e 1013 82 3c 00
        e 1 92 3b 79
        e 1012 82 43 00
        e 0 82 3b 00
        e 1 92 45 78
        e 0 92 39 78
        e 1008 82 2f 00
        e 0 82 45 00
        e 0 82 39 00
        e 6 92 46 79
        e 0 92 37 79
        e 0 92 2e 78
        e 1054 82 46 00
        e 0 82 37 00
        e 1 92 48 78
        e 0 92 35 78
        e 1013 82 48 00
        e 0 82 35 00
        e 1 92 4a 79
        e 0 92 34 79
        e 1012 82 34 00
        e 1 92 32 78
        e 1008 82 2e 00
        e 0 82 32 00
        e 6 92 34 79
        e 0 92 2d 78
        e 1055 92 49 78
        e 39 82 4a 00
        e 465 92 47 77
        e 60 82 49 00
        e 385 82 47 00
        e 39 92 4a 78
        e 25 82 34 00
        e 1 92 39 79
        e 92 92 49 78
        e 14 82 4a 00
        e 104 92 4a 78
        e 14 82 49 00
        e 104 92 49 77
        e 14 82 4a 00
        e 671 92 45 78
        e 497 82 49 00
        e 6 92 4a 77
        e 441 82 4a 00
        e 64 82 2d 00
        e 0 82 39 00
        e 6 92 4c 78
        e 0 92 48 78
        e 0 92 39 78
        e 34 82 45 00
        e 1021 92 2d 78
        e 504 92 47 78
        e 60 82 48 00
        e 450 92 4a 78
        e 0 92 45 78
        e 0 92 35 78
        e 39 82 2d 00
        e 21 82 47 00
        e 20 82 4c 00
        e 933 92 49 78
        e 0 92 43 78
        e 0 92 34 78
        e 39 82 4a 00
        e 0 82 45 00
        e 0 82 35 00
        e 969 82 39 00
        e 6 92 4a 77
        e 0 92 41 78
        e 0 92 39 78
        e 0 92 32 77
        e 34 82 49 00
        e 0 82 43 00
        e 0 82 34 00
        e 514 92 43 78
        e 60 82 41 00
        e 187 92 41 78
        e 29 82 43 00
        e 196 82 4a 00
        e 0 82 32 00
        e 35 92 45 78
        e 0 92 40 77
        e 0 92 30 78
        e 29 82 41 00
        e 475 92 32 78
        e 60 82 30 00
        e 186 92 34 78
        e 29 82 32 00
        e 234 82 45 00
        e 1 92 45 79
        e 0 92 35 77
        e 29 82 34 00
        e 480 92 41 78
        e 60 82 40 00
        e 186 92 40 78
        e 29 82 41 00
        e 229 92 3e 78
        e 29 82 40 00
        e 228 92 40 78
        e 29 82 3e 00
        e 217 92 41 78
        e 29 82 40 00
        e 217 92 3e 78
        e 29 82 41 00
        e 196 82 35 00
        e 34 82 39 00
        e 0 82 45 00
        e 6 92 40 77
        e 0 92 38 78
        e 0 92 34 78
        e 24 82 3e 00
        e 1031 92 47 78
        e 979 82 40 00
        e 35 92 4c 78
        e 39 82 47 00
        e 974 92 3b 78
        e 503 92 4a 78
        e 60 82 4c 00
        e 445 82 38 00
        e 6 92 48 78
        e 0 92 40 78
        e 0 92 37 78
        e 34 82 3b 00
        e 21 82 4a 00
        e 1000 92 47 77
        e 39 82 48 00
        e 465 92 3e 78
        e 60 82 40 00
        e 415 82 47 00
        e 35 92 4c 79
        e 0 92 3c 78
        e 60 82 3e 00
        e 953 92 3b 78
        e 39 82 3c 00
        e 969 82 34 00
        e 0 82 37 00
        e 6 92 39 77
        e 0 92 36 78
        e 34 82 3b 00
        e 1020 82 4c 00
        e 1 92 4c 78
        e 1014 92 4a 78
        e 39 82 4c 00
        e 958 82 4a 00
        e 1 92 4a 78
        e 15 92 2d 78
        e 103 92 49 78
        e 14 82 4a 00
        e 104 92 4a 78
        e 14 82 49 00
        e 104 92 49 77
        e 14 82 4a 00
        e 655 82 36 00
        e 1 82 49 00
        e 5 92 4a 77
        e 0 92 35 78
        e 0 92 32 78
        e 34 82 2d 00
        e 986 82 4a 00
        e 35 92 45 78
        e 504 92 30 78
        e 60 82 32 00
        e 449 82 39 00
        e 0 82 45 00
        e 1 92 4a 79
        e 0 92 2e 78
        e 60 82 30 00
        e 953 92 2d 78
        e 39 82 2e 00
        e 969 82 35 00
        e 6 92 34 78
        e 0 92 2b 77
        e 34 82 2d 00
        e 1020 82 4a 00
        e 1 92 4a 78
        e 979 82 2b 00
        e 35 92 49 78
        e 0 92 2d 79
        e 39 82 4a 00
        e 974 92 47 78
        e 0 92 40 78
        e 39 82 49 00
        e 969 82 34 00
        e 6 92 49 77
        e 0 92 45 78
        e 34 82 47 00
        e 0 82 40 00
        e 1021 92 34 78
        e 504 92 43 78
        e 60 82 45 00
        e 449 82 2d 00
        e 1 92 42 78
        e 0 92 39 78
        e 39 82 34 00
        e 21 82 43 00
        e 953 92 40 78
        e 0 92 2d 78
        e 39 82 42 00
        e 464 92 37 78
        e 60 82 39 00
        e 411 82 49 00
        e 40 92 3e 77
        e 0 92 36 78
        e 0 92 32 78
        e 34 82 40 00
        e 0 82 2d 00
        e 21 82 37 00
        e 1000 92 45 78
        e 0 92 34 78
        e 39 82 36 00
        e 465 92 30 78
        e 60 82 32 00
        e 415 82 3e 00
        e 35 92 4a 78
        e 0 92 32 77
        e 0 92 2f 78
        e 39 82 45 00
        e 0 82 34 00
        e 21 82 30 00
        e 953 92 39 78
        e 0 92 2d 77
        e 39 82 2f 00
        e 464 92 48 78
        e 60 82 4a 00
        e 411 82 2d 00
        e 34 82 32 00
        e 6 92 47 78
        e 0 92 3e 78
        e 0 92 32 78
        e 0 92 2b 78
        e 34 82 39 00
        e 21 82 48 00
        e 1000 92 45 78
        e 0 92 2d 78
        e 39 82 47 00
        e 0 82 2b 00
        e 465 92 3c 78
        e 60 82 3e 00
        e 450 92 43 78
        e 0 92 3b 78
        e 0 92 2f 78
        e 39 82 45 00
        e 0 82 2d 00
        e 21 82 3c 00
        e 953 92 41 78
        e 0 92 39 78
        e 39 82 43 00
        e 0 82 3b 00
        e 969 82 32 00
        e 6 92 40 77
        e 0 92 37 77
        e 0 92 34 79
        e 0 92 30 78
        e 34 82 41 00
        e 0 82 39 00
        e 41 82 2f 00
        e 945 82 40 00
        e 35 92 43 78
        e 504 92 2f 78
        e 60 82 30 00
        e 415 82 37 00
        e 34 82 34 00
        e 1 92 48 78
        e 0 92 2d 78
        e 39 82 43 00
        e 21 82 2f 00
        e 953 92 37 78
        e 0 92 2b 77
        e 39 82 2d 00
        e 464 92 47 78
        e 60 82 48 00
        e 411 82 2b 00
        e 40 92 45 78
        e 0 92 3c 78
        e 0 92 29 78
        e 34 82 37 00
        e 21 82 47 00
        e 1000 92 43 78
        e 0 92 37 78
        e 0 92 28 78
        e 39 82 45 00
        e 0 82 29 00
        e 465 92 3b 78
        e 60 82 3c 00
        e 449 82 37 00
        e 1 92 41 78
        e 0 92 3c 78
        e 0 92 39 78
        e 0 92 29 77
        e 39 82 43 00
        e 0 82 28 00
        e 21 82 3b 00
        e 918 82 29 00
        e 35 92 40 78
        e 0 92 37 78
        e 0 92 30 78
        e 39 82 41 00
        e 0 82 39 00
        e 464 92 3b 78
        e 60 82 3c 00
        e 451 92 41 78
        e 0 92 39 77
        e 0 92 35 78
        e 0 92 32 78
        e 34 82 40 00
        e 0 82 37 00
        e 0 82 30 00
        e 21 82 3b 00
        e 965 82 39 00
        e 35 92 43 78
        e 0 92 3e 78
        e 0 92 34 78
        e 0 92 2e 78
        e 39 82 41 00
        e 0 82 35 00
        e 0 82 32 00
        e 465 92 32 78
        e 60 82 34 00
        e 450 92 45 77
        e 0 92 34 77
        e 0 92 2d 77
        e 39 82 43 00
        e 0 82 2e 00
        e 21 82 32 00
        e 449 92 40 78
        e 60 82 3e 00
        e 429 92 3e 77
        e 75 82 40 00
        e 38 82 3e 00
        e 7 92 3d 77
        e 113 82 3d 00
        e 7 92 3e 77
        e 113 82 3e 00
        e 7 92 3d 77
        e 625 82 3d 00
        e 4 82 34 00
        e 0 82 2d 00
        e 34 82 45 00
        e 6 92 45 78
        e 0 92 3e 79
        e 0 92 32 79
        e 517 82 32 00
        e 31 92 34 78
        e 476 82 34 00
        e 30 82 3e 00
        e 1 92 3e 78
        e 0 92 35 78
        e 0 92 32 78
        e 473 82 35 00
        e 31 92 37 78
        e 479 82 37 00
        e 30 82 3e 00
        e 0 82 32 00
        e 1 92 3e 79
        e 0 92 39 79
        e 0 92 32 79
        e 478 82 32 00
        e 31 92 34 78
        e 473 82 34 00
        e 30 82 3e 00
        e 1 92 3e 78
        e 0 92 35 78
        e 472 82 35 00
        e 31 92 37 78
        e 475 82 37 00
        e 30 82 45 00
        e 0 82 39 00
        e 0 82 3e 00
        e 6 92 45 78
        e 0 92 3d 79
        e 0 92 39 78
        e 548 92 37 78
        e 60 82 39 00
        e 187 92 35 78
        e 29 82 37 00
        e 231 92 34 78
        e 29 82 35 00
        e 230 92 32 78
        e 29 82 34 00
        e 216 92 31 78
        e 29 82 32 00
        e 217 92 2f 78
        e 29 82 31 00
        e 234 82 3d 00
        e 1 92 3c 79
        e 0 92 2d 77
        e 29 82 2f 00
        e 185 82 2d 00
        e 50 92 34 78
        e 245 92 32 78
        e 29 82 34 00
        e 217 92 34 78
        e 29 82 32 00
        e 229 92 2d 77
        e 29 82 34 00
        e 178 82 2d 00
        e 50 92 39 78
        e 246 92 37 78
        e 29 82 39 00
        e 217 92 39 78
        e 29 82 37 00
        e 230 82 45 00
        e 0 82 3c 00
        e 6 92 3b 76
        e 0 92 44 79
        e 0 92 34 77
        e 24 82 39 00
        e 226 82 34 00
        e 50 92 2f 78
        e 248 92 31 78
        e 29 82 2f 00
        e 218 92 32 78
        e 29 82 31 00
        e 231 92 40 78
        e 0 92 34 78
        e 29 82 32 00
        e 230 92 36 78
        e 29 82 34 00
        e 216 92 38 78
        e 29 82 36 00
        e 217 92 39 78
        e 29 82 38 00
        e 234 82 40 00
        e 1 92 40 79
        e 0 92 38 77
        e 29 82 39 00
        e 415 82 38 00
        e 65 92 34 78
        e 503 82 40 00
        e 1 92 40 78
        e 503 92 36 78
        e 39 82 34 00
        e 433 92 37 77
        e 33 82 3b 00
        e 0 82 44 00
        e 0 82 40 00
        e 16 92 3a 76
        e 45 82 36 00
        e 4 92 3e 76
        e 49 92 43 79
        e 142 82 37 00
        e 50 92 32 78
        e 248 92 34 78
        e 29 82 32 00
        e 218 92 35 78
        e 29 82 34 00
        e 231 92 37 77
        e 29 82 35 00
        e 180 82 37 00
        e 50 92 2e 78
        e 245 92 30 78
        e 29 82 2e 00
        e 217 92 32 78
        e 29 82 30 00
        e 235 92 2b 77
        e 29 82 32 00
        e 185 82 2b 00
        e 50 92 32 78
        e 245 92 34 78
        e 29 82 32 00
        e 217 92 35 78
        e 29 82 34 00
        e 229 92 37 77
        e 29 82 35 00
        e 178 82 37 00
        e 50 92 2b 78
        e 246 92 2e 78
        e 29 82 2b 00
        e 217 92 30 78
        e 29 82 2e 00
        e 230 82 3a 00
        e 0 82 3e 00
        e 0 82 43 00
        e 6 92 39 76
        e 0 92 42 79
        e 0 92 32 78
        e 24 82 30 00
        e 276 92 34 78
        e 29 82 32 00
        e 219 92 36 78
        e 29 82 34 00
        e 218 92 37 78
        e 29 82 36 00
        e 231 92 3e 78
        e 0 92 39 78
        e 29 82 37 00
        e 230 92 36 78
        e 29 82 39 00
        e 216 92 37 78
        e 29 82 36 00
        e 217 92 34 78
        e 29 82 37 00
        e 234 82 3e 00
        e 1 92 3e 79
        e 0 92 36 78
        e 29 82 34 00
        e 235 92 32 78
        e 29 82 36 00
        e 216 92 34 78
        e 29 82 32 00
        e 217 92 31 78
        e 29 82 34 00
        e 228 82 3e 00
        e 1 92 3e 78
        e 0 92 32 77
        e 29 82 31 00
        e 178 82 32 00
        e 50 92 26 78
        e 230 82 26 00
        e 16 92 32 78
        e 246 92 34 78
        e 29 82 32 00
        e 200 92 35 77
        e 30 82 42 00
        e 0 82 39 00
        e 0 82 3e 00
        e 15 92 39 79
        e 15 82 34 00
        e 30 92 3c 76
        e 45 92 41 79
        e 151 82 35 00
        e 50 92 29 78
        e 232 82 29 00
        e 16 92 30 78
        e 247 92 2e 78
        e 29 82 30 00
        e 231 92 2d 78
        e 29 82 2e 00
        e 230 92 2b 78
        e 29 82 2d 00
        e 216 92 29 78
        e 29 82 2b 00
        e 217 92 28 78
        e 29 82 29 00
        e 234 82 39 00
        e 1 92 39 79
        e 0 92 29 78
        e 29 82 28 00
        e 235 92 2b 78
        e 29 82 29 00
        e 216 92 2d 78
        e 29 82 2b 00
        e 217 92 2f 78
        e 29 82 2d 00
        e 228 82 39 00
        e 1 92 39 78
        e 0 92 30 78
        e 29 82 2f 00
        e 228 92 32 78
        e 29 82 30 00
        e 217 92 34 78
        e 29 82 32 00
        e 217 92 35 77
        e 29 82 34 00
        e 181 82 35 00
        e 16 92 30 78
        e 33 82 3c 00
        e 0 82 41 00
        e 0 82 39 00
        e 15 92 37 78
        e 48 92 3c 78
        e 48 92 40 7b
        e 195 92 32 78
        e 29 82 30 00
        e 219 92 34 78
        e 29 82 32 00
        e 218 92 35 78
        e 29 82 34 00
        e 231 92 37 78
        e 29 82 35 00
        e 230 92 39 78
        e 29 82 37 00
        e 216 92 3b 78
        e 29 82 39 00
        e 217 92 3c 77
        e 29 82 3b 00
        e 185 82 3c 00
        e 49 82 40 00
        e 0 82 37 00
        e 0 82 3c 00
        e 1 92 3e 78
        e 264 92 40 78
        e 29 82 3e 00
        e 216 92 41 78
        e 29 82 40 00
        e 217 92 43 78
        e 29 82 41 00
        e 229 92 45 78
        e 29 82 43 00
        e 228 92 47 78
        e 29 82 45 00
        e 217 92 48 78
        e 29 82 47 00
        e 217 92 4a 78
        e 29 82 48 00
        e 200 92 30 76
        e 45 92 37 79
        e 15 82 4a 00
        e 30 92 3c 78
        e 45 92 4c 78
        e 201 92 4d 78
        e 29 82 4c 00
        e 219 92 4f 78
        e 29 82 4d 00
        e 218 92 4d 78
        e 29 82 4f 00
        e 231 92 4a 78
        e 29 82 4d 00
        e 230 92 4c 78
        e 29 82 4a 00
        e 216 92 4d 78
        e 29 82 4c 00
        e 217 92 4c 78
        e 29 82 4d 00
        e 235 92 4d 78
        e 29 82 4c 00
        e 235 92 4c 78
        e 29 82 4d 00
        e 216 92 4d 78
        e 29 82 4c 00
        e 217 92 4c 78
        e 29 82 4d 00
        e 228 82 3c 00
        e 1 92 4d 78
        e 0 92 3c 78
        e 29 82 4c 00
        e 228 92 4c 78
        e 29 82 4d 00
        e 217 92 4a 78
        e 29 82 4c 00
        e 217 92 4c 78
        e 29 82 4a 00
        e 198 92 32 78
        e 32 82 30 00
        e 0 82 37 00
        e 0 82 3c 00
        e 16 92 35 7b
        e 14 82 4c 00
        e 34 92 3a 79
        e 48 92 4d 77
        e 144 82 4d 00
        e 50 92 4a 78
        e 247 82 4a 00
        e 1 92 4a 78
        e 247 92 4c 78
        e 29 82 4a 00
        e 230 82 3a 00
        e 1 92 4d 77
        e 0 92 39 78
        e 29 82 4c 00
        e 180 82 4d 00
        e 50 92 45 78
        e 245 92 46 78
        e 29 82 45 00
        e 217 92 48 78
        e 29 82 46 00
        e 234 82 32 00
        e 0 82 35 00
        e 1 92 4a 77
        e 0 92 2e 77
        e 0 92 32 7b
        e 29 82 48 00
        e 185 82 4a 00
        e 50 92 3e 78
        e 245 92 40 78
        e 29 82 3e 00
        e 217 92 41 78
        e 29 82 40 00
        e 229 92 43 78
        e 0 92 37 78
        e 29 82 41 00
        e 51 82 39 00
        e 52 92 45 78
        e 14 82 43 00
        e 111 92 46 78
        e 14 82 45 00
        e 109 92 45 78
        e 14 82 46 00
        e 109 92 43 78
        e 14 82 45 00
        e 108 92 41 78
        e 14 82 43 00
        e 110 92 40 78
        e 14 82 41 00
        e 111 92 3e 78
        e 14 82 40 00
        e 58 92 2d 78
        e 62 82 2e 00
        e 0 82 32 00
        e 15 82 3e 00
        e 8 92 34 7b
        e 17 82 37 00
        e 68 92 39 77
        e 85 92 3d 77
        e 833 82 3d 00
        e 34 82 39 00
        e 1 92 45 78
        e 0 92 39 78
        e 1013 82 2d 00
        e 0 82 34 00
        e 0 82 45 00
        e 0 82 39 00
        e 1 92 45 79
        e 0 92 39 79
        e 478 82 39 00
        e 31 92 3b 78
        e 473 82 3b 00
        e 30 82 45 00
        e 1 92 45 78
        e 0 92 3c 78
        e 472 82 3c 00
        e 31 92 3e 78
        e 475 82 3e 00
        e 36 92 44 78
        e 0 92 40 79
        e 34 82 45 00
        e 483 82 40 00
        e 31 92 34 78
        e 247 92 35 78
        e 29 82 34 00
        e 231 92 43 78
        e 0 92 37 78
        e 29 82 35 00
        e 10 82 44 00
        e 220 92 39 78
        e 29 82 37 00
        e 216 92 3b 78
        e 29 82 39 00
        e 217 92 3c 78
        e 29 82 3b 00
        e 235 92 42 78
        e 0 92 3e 77
        e 29 82 3c 00
        e 10 82 43 00
        e 405 82 3e 00
        e 65 92 32 78
        e 246 92 34 78
        e 29 82 32 00
        e 229 92 41 78
        e 0 92 35 78
        e 29 82 34 00
        e 10 82 42 00
        e 218 92 37 78
        e 29 82 35 00
        e 217 92 39 78
        e 29 82 37 00
        e 217 92 3b 78
        e 29 82 39 00
        e 236 92 40 77
        e 0 92 3c 77
        e 24 82 3b 00
        e 10 82 41 00
        e 449 82 3c 00
        e 65 92 39 78
        e 247 92 3b 78
        e 29 82 39 00
        e 196 82 40 00
        e 35 92 4c 78
        e 0 92 3c 78
        e 29 82 3b 00
        e 230 92 3e 78
        e 29 82 3c 00
        e 216 92 40 78
        e 29 82 3e 00
        e 217 92 41 78
        e 29 82 40 00
        e 234 82 4c 00
        e 1 92 4c 79
        e 0 92 43 77
        e 29 82 41 00
        e 415 82 43 00
        e 65 92 3c 78
        e 246 92 3e 78
        e 29 82 3c 00
        e 228 82 4c 00
        e 1 92 4c 78
        e 0 92 40 78
        e 29 82 3e 00
        e 228 92 41 78
        e 29 82 40 00
        e 217 92 43 78
        e 29 82 41 00
        e 217 92 45 78
        e 29 82 43 00
        e 236 92 4b 78
        e 0 92 47 77
        e 24 82 45 00
        e 10 82 4c 00
        e 449 82 47 00
        e 65 92 3b 78
        e 247 92 3d 78
        e 29 82 3b 00
        e 231 92 4a 78
        e 0 92 3e 78
        e 29 82 3d 00
        e 10 82 4b 00
        e 220 92 40 78
        e 29 82 3e 00
        e 216 92 41 78
        e 29 82 40 00
        e 217 92 43 78
        e 29 82 41 00
        e 235 92 49 78
        e 0 92 45 77
        e 29 82 43 00
        e 10 82 4a 00
        e 405 82 45 00
        e 65 92 39 78
        e 504 92 48 78
        e 39 82 49 00
        e 218 92 3b 78
        e 29 82 39 00
        e 217 92 3c 78
        e 29 82 3b 00
        e 217 92 3e 78
        e 29 82 3c 00
        e 236 92 47 77
        e 0 92 40 77
        e 24 82 3e 00
        e 10 82 48 00
        e 449 82 40 00
        e 65 92 3b 78
        e 472 82 47 00
        e 35 92 4a 78
        e 259 92 3c 78
        e 29 82 3b 00
        e 216 92 3e 78
        e 29 82 3c 00
        e 217 92 40 78
        e 29 82 3e 00
        e 234 82 4a 00
        e 1 92 4a 79
        e 0 92 42 77
        e 29 82 40 00
        e 415 82 42 00
        e 65 92 3e 78
        e 503 82 4a 00
        e 1 92 4a 78
        e 257 92 40 78
        e 29 82 3e 00
        e 217 92 42 78
        e 29 82 40 00
        e 217 92 43 78
        e 29 82 42 00
        e 236 92 49 78
        e 0 92 45 77
        e 24 82 43 00
        e 10 82 4a 00
        e 449 82 45 00
        e 65 92 40 78
        e 476 82 40 00
        e 31 92 48 78
        e 0 92 45 78
        e 39 82 49 00
        e 220 92 43 78
        e 29 82 45 00
        e 216 92 41 78
        e 29 82 43 00
        e 217 92 40 78
        e 29 82 41 00
        e 235 92 47 78
        e 0 92 3e 78
        e 29 82 40 00
        e 10 82 48 00
        e 225 92 3c 78
        e 29 82 3e 00
        e 216 92 3b 78
        e 29 82 3c 00
        e 217 92 39 78
        e 29 82 3b 00
        e 229 92 46 78
        e 0 92 37 78
        e 29 82 39 00
        e 10 82 47 00
        e 218 92 35 78
        e 29 82 37 00
        e 217 92 34 78
        e 29 82 35 00
        e 217 92 32 78
        e 29 82 34 00
        e 236 92 45 77
        e 0 92 30 78
        e 24 82 32 00
        e 10 82 46 00
        e 266 92 2f 78
        e 29 82 30 00
        e 219 92 2d 78
        e 29 82 2f 00
        e 218 92 2b 78
        e 29 82 2d 00
        e 196 82 45 00
        e 35 92 48 78
        e 0 92 2d 78
        e 29 82 2b 00
        e 230 92 2f 78
        e 29 82 2d 00
        e 216 92 30 78
        e 29 82 2f 00
        e 217 92 32 78
        e 29 82 30 00
        e 234 82 48 00
        e 1 92 48 79
        e 0 92 34 77
        e 29 82 32 00
        e 185 82 34 00
        e 50 92 2d 78
        e 245 92 30 78
        e 29 82 2d 00
        e 217 92 32 78
        e 29 82 30 00
        e 228 82 48 00
        e 1 92 48 78
        e 0 92 34 78
        e 29 82 32 00
        e 228 92 30 78
        e 29 82 34 00
        e 217 92 34 78
        e 29 82 30 00
        e 217 92 35 78
        e 29 82 34 00
        e 236 92 47 78
        e 0 92 37 78
        e 24 82 35 00
        e 10 82 48 00
        e 266 92 39 78
        e 29 82 37 00
        e 219 92 3b 78
        e 29 82 39 00
        e 218 92 3c 78
        e 29 82 3b 00
        e 231 92 46 78
        e 0 92 3e 77
        e 29 82 3c 00
        e 10 82 47 00
        e 170 82 3e 00
        e 50 92 37 78
        e 245 92 3a 78
        e 29 82 37 00
        e 217 92 3c 78
        e 29 82 3a 00
        e 235 92 45 77
        e 0 92 3e 77
        e 29 82 3c 00
        e 10 82 46 00
        e 175 82 3e 00
        e 50 92 32 78
        e 245 92 35 78
        e 29 82 32 00
        e 217 92 37 78
        e 29 82 35 00
        e 228 82 45 00
        e 1 92 45 78
        e 0 92 39 77
        e 29 82 37 00
        e 178 82 39 00
        e 50 92 35 78
        e 246 92 39 78
        e 29 82 35 00
        e 217 92 3b 78
        e 29 82 39 00
        e 236 92 43 77
        e 0 92 3c 78
        e 24 82 3b 00
        e 10 82 45 00
        e 266 92 3e 78
        e 29 82 3c 00
        e 219 92 40 78
        e 29 82 3e 00
        e 218 92 41 78
        e 29 82 40 00
        e 196 82 43 00
        e 35 92 46 78
        e 0 92 43 78
        e 29 82 41 00
        e 475 92 41 78
        e 60 82 43 00
        e 186 92 40 78
        e 29 82 41 00
        e 234 82 46 00
        e 1 92 46 79
        e 0 92 3e 78
        e 29 82 40 00
        e 235 92 3c 78
        e 29 82 3e 00
        e 216 92 3a 78
        e 29 82 3c 00
        e 217 92 39 78
        e 29 82 3a 00
        e 228 82 46 00
        e 1 92 46 78
        e 0 92 37 78
        e 29 82 39 00
        e 228 92 35 78
        e 29 82 37 00
        e 217 92 34 78
        e 29 82 35 00
        e 217 92 32 78
        e 29 82 34 00
        e 236 92 45 77
        e 0 92 30 78
        e 24 82 32 00
        e 10 82 46 00
        e 266 92 2e 78
        e 29 82 30 00
        e 219 92 2d 78
        e 29 82 2e 00
        e 218 92 2b 78
        e 29 82 2d 00
        e 230 82 45 00
        e 1 92 45 78
        e 0 92 29 78
        e 29 82 2b 00
        e 230 92 2b 78
        e 29 82 29 00
        e 216 92 2d 78
        e 29 82 2b 00
        e 217 92 2f 78
        e 29 82 2d 00
        e 235 92 43 77
        e 0 92 30 78
        e 29 82 2f 00
        e 10 82 45 00
        e 225 92 32 78
        e 29 82 30 00
        e 216 92 34 78
        e 29 82 32 00
        e 217 92 35 78
        e 29 82 34 00
        e 228 82 43 00
        e 1 92 43 78
        e 0 92 37 78
        e 29 82 35 00
        e 228 92 39 78
        e 29 82 37 00
        e 217 92 3b 78
        e 29 82 39 00
        e 217 92 3c 78
        e 29 82 3b 00
        e 236 92 42 77
        e 0 92 3e 77
        e 24 82 3c 00
        e 10 82 43 00
        e 216 82 3e 00
        e 50 92 39 78
        e 248 92 3e 78
        e 29 82 39 00
        e 218 92 3c 78
        e 29 82 3e 00
        e 196 82 42 00
        e 35 92 43 78
        e 0 92 3b 78
        e 29 82 3c 00
        e 230 92 39 78
        e 29 82 3b 00
        e 216 92 37 78
        e 29 82 39 00
        e 217 92 35 78
        e 29 82 37 00
        e 234 82 43 00
        e 1 92 43 79
        e 0 92 34 77
        e 29 82 35 00
        e 185 82 34 00
        e 50 92 30 78
        e 245 92 37 78
        e 29 82 30 00
        e 217 92 35 78
        e 29 82 37 00
        e 228 82 43 00
        e 1 92 43 78
        e 0 92 34 78
        e 29 82 35 00
        e 228 92 32 78
        e 29 82 34 00
        e 217 92 30 78
        e 29 82 32 00
        e 217 92 2f 78
        e 29 82 30 00
        e 236 92 42 78
        e 0 92 2d 77
        e 24 82 2f 00
        e 10 82 43 00
        e 216 82 2d 00
        e 50 92 39 78
        e 248 92 32 78
        e 29 82 39 00
        e 218 92 34 78
        e 29 82 32 00
        e 231 92 41 78
        e 0 92 35 78
        e 29 82 34 00
        e 10 82 42 00
        e 220 92 37 78
        e 29 82 35 00
        e 216 92 39 78
        e 29 82 37 00
        e 217 92 3b 78
        e 29 82 39 00
        e 235 92 40 77
        e 0 92 3d 78
        e 29 82 3b 00
        e 10 82 41 00
        e 225 92 39 78
        e 29 82 3d 00
        e 216 92 3b 78
        e 29 82 39 00
        e 217 92 3d 78
        e 29 82 3b 00
        e 228 82 40 00
        e 1 92 40 78
        e 0 92 3e 78
        e 29 82 3d 00
        e 228 92 3d 78
        e 29 82 3e 00
        e 217 92 3e 78
        e 29 82 3d 00
        e 93 92 3d 78
        e 14 82 3e 00
        e 110 92 3b 78
        e 14 82 3d 00
        e 111 92 3d 78
        e 14 82 3b 00
        e 120 82 40 00
        e 6 92 3e 77
        e 9 82 3d 00
        e 291 92 40 78
        e 248 92 41 78
        e 29 82 40 00
        e 218 92 43 78
        e 29 82 41 00
        e 191 92 39 78
        e 5 82 3e 00
        e 45 92 3c 77
        e 19 82 43 00
        e 31 92 40 7a
        e 50 92 45 78
        e 149 92 47 78
        e 29 82 45 00
        e 216 92 48 78
        e 29 82 47 00
        e 217 92 4a 78
        e 29 82 48 00
        e 234 82 39 00
        e 0 82 3c 00
        e 0 82 40 00
        e 1 92 4c 77
        e 0 92 3c 79
        e 0 92 39 79
        e 29 82 4a 00
        e 185 82 4c 00
        e 50 92 45 78
        e 214 82 3c 00
        e 30 82 45 00
        e 1 92 45 78
        e 0 92 3e 78
        e 246 92 47 78
        e 29 82 45 00
        e 198 82 3e 00
        e 30 82 39 00
        e 1 92 48 78
        e 0 92 40 78
        e 0 92 39 78
        e 29 82 47 00
        e 228 92 47 78
        e 29 82 48 00
        e 186 82 40 00
        e 31 92 48 78
        e 0 92 3c 78
        e 29 82 47 00
        e 217 92 45 78
        e 29 82 48 00
        e 200 82 3c 00
        e 30 82 39 00
        e 6 92 47 77
        e 0 92 40 79
        e 0 92 38 79
        e 24 82 45 00
        e 226 82 47 00
        e 50 92 44 78
        e 217 82 40 00
        e 30 82 44 00
        e 1 92 44 78
        e 0 92 3b 78
        e 247 92 45 78
        e 29 82 44 00
        e 200 82 3b 00
        e 30 82 38 00
        e 1 92 47 78
        e 0 92 34 78
        e 0 92 37 78
        e 29 82 45 00
        e 230 92 45 78
        e 29 82 47 00
        e 185 82 34 00
        e 31 92 47 78
        e 0 92 40 78
        e 29 82 45 00
        e 217 92 43 78
        e 29 82 47 00
        e 204 82 40 00
        e 30 82 37 00
        e 1 92 45 77
        e 0 92 3e 79
        e 0 92 36 79
        e 29 82 43 00
        e 185 82 45 00
        e 50 92 42 78
        e 214 82 3e 00
        e 30 82 42 00
        e 1 92 42 78
        e 0 92 39 78
        e 246 92 43 78
        e 29 82 42 00
        e 198 82 39 00
        e 30 82 36 00
        e 1 92 45 78
        e 0 92 32 78
        e 0 92 35 78
        e 29 82 43 00
        e 228 92 43 78
        e 29 82 45 00
        e 186 82 32 00
        e 31 92 45 78
        e 0 92 3e 78
        e 29 82 43 00
        e 217 92 41 78
        e 29 82 45 00
        e 200 82 3e 00
        e 30 82 35 00
        e 6 92 43 77
        e 0 92 40 79
        e 0 92 34 79
        e 24 82 41 00
        e 275 82 43 00
        e 1 92 43 78
        e 217 82 40 00
        e 30 82 43 00
        e 1 92 43 78
        e 0 92 3c 78
        e 247 92 45 78
        e 29 82 43 00
        e 200 82 3c 00
        e 30 82 34 00
        e 1 92 47 78
        e 0 92 3b 78
        e 0 92 37 78
        e 29 82 45 00
        e 230 92 48 78
        e 29 82 47 00
        e 185 82 3b 00
        e 31 92 4a 78
        e 0 92 39 78
        e 29 82 48 00
        e 217 92 4c 78
        e 29 82 4a 00
        e 204 82 39 00
        e 30 82 37 00
        e 1 92 4a 78
        e 0 92 3b 79
        e 0 92 37 79
        e 29 82 4c 00
        e 235 92 48 78
        e 29 82 4a 00
        e 185 82 3b 00
        e 31 92 47 78
        e 0 92 3c 78
        e 29 82 48 00
        e 217 92 45 78
        e 29 82 47 00
        e 198 82 3c 00
        e 30 82 37 00
        e 1 92 47 78
        e 0 92 3e 78
        e 0 92 37 78
        e 29 82 45 00
        e 228 92 45 78
        e 29 82 47 00
        e 186 82 3e 00
        e 31 92 47 78
        e 0 92 3b 78
        e 29 82 45 00
        e 217 92 43 78
        e 29 82 47 00
        e 200 82 3b 00
        e 30 82 37 00
        e 6 92 45 78
        e 0 92 3e 79
        e 0 92 36 79
        e 24 82 43 00
        e 276 92 43 78
        e 29 82 45 00
        e 188 82 3e 00
        e 31 92 42 78
        e 0 92 39 78
        e 29 82 43 00
        e 218 92 43 78
        e 29 82 42 00
        e 230 82 36 00
        e 1 92 45 78
        e 0 92 35 78
        e 29 82 43 00
        e 230 92 47 78
        e 29 82 45 00
        e 215 82 39 00
        e 1 92 48 78
        e 0 92 39 78
        e 29 82 47 00
        e 217 92 4a 78
        e 29 82 48 00
        e 204 82 39 00
        e 30 82 35 00
        e 1 92 4c 78
        e 0 92 3b 79
        e 0 92 34 79
        e 29 82 4a 00
        e 235 92 4d 78
        e 29 82 4c 00
        e 185 82 3b 00
        e 31 92 4f 78
        e 0 92 39 78
        e 29 82 4d 00
        e 217 92 51 78
        e 29 82 4f 00
        e 198 82 39 00
        e 30 82 34 00
        e 1 92 4f 78
        e 0 92 3b 78
        e 0 92 34 78
        e 29 82 51 00
        e 103 92 4d 78
        e 14 82 4f 00
        e 111 92 4c 78
        e 14 82 4d 00
        e 109 92 4a 78
        e 14 82 4c 00
        e 78 82 3b 00
        e 31 92 48 78
        e 0 92 3c 78
        e 14 82 4a 00
        e 108 92 47 78
        e 14 82 48 00
        e 110 92 45 78
        e 14 82 47 00
        e 111 92 43 77
        e 14 82 45 00
        e 90 82 3c 00
        e 6 82 43 00
        e 24 82 34 00
        e 6 92 41 78
        e 0 92 3e 79
        e 0 92 32 79
        e 300 92 40 78
        e 29 82 41 00
        e 218 82 3e 00
        e 1 92 41 78
        e 0 92 3e 78
        e 29 82 40 00
        e 218 92 43 78
        e 29 82 41 00
        e 230 82 32 00
        e 1 92 45 78
        e 0 92 3c 78
        e 0 92 35 78
        e 29 82 43 00
        e 31 82 3e 00
        e 199 92 47 78
        e 29 82 45 00
        e 216 92 48 78
        e 0 92 3b 78
        e 29 82 47 00
        e 31 82 3c 00
        e 186 92 4a 78
        e 29 82 48 00
        e 234 82 35 00
        e 1 92 48 78
        e 0 92 39 78
        e 0 92 35 79
        e 29 82 4a 00
        e 31 82 3b 00
        e 204 92 45 78
        e 29 82 48 00
        e 216 92 4d 78
        e 0 92 3b 78
        e 29 82 45 00
        e 31 82 39 00
        e 186 92 4c 78
        e 29 82 4d 00
        e 228 82 35 00
        e 1 92 4a 78
        e 0 92 3c 78
        e 0 92 35 78
        e 29 82 4c 00
        e 31 82 3b 00
        e 197 92 48 78
        e 29 82 4a 00
        e 217 92 47 78
        e 0 92 3e 77
        e 29 82 48 00
        e 31 82 3c 00
        e 186 92 45 78
        e 29 82 47 00
        e 166 82 3e 00
        e 64 82 35 00
        e 6 92 43 78
        e 0 92 37 78
        e 0 92 34 79
        e 24 82 45 00
        e 276 92 40 77
        e 29 82 43 00
        e 169 82 40 00
        e 50 92 4c 78
        e 0 92 39 78
        e 60 82 37 00
        e 187 92 4a 78
        e 29 82 4c 00
        e 230 82 34 00
        e 1 92 48 78
        e 0 92 3b 78
        e 0 92 34 78
        e 29 82 4a 00
        e 31 82 39 00
        e 199 92 47 78
        e 29 82 48 00
        e 216 92 45 78
        e 0 92 3c 77
        e 29 82 47 00
        e 31 82 3b 00
        e 186 92 43 78
        e 29 82 45 00
        e 170 82 3c 00
        e 64 82 34 00
        e 1 92 41 78
        e 0 92 35 78
        e 0 92 32 79
        e 29 82 43 00
        e 235 92 3e 77
        e 29 82 41 00
        e 166 82 3e 00
        e 50 92 4a 78
        e 0 92 37 78
        e 60 82 35 00
        e 170 82 4a 00
        e 16 92 48 78
        e 242 82 48 00
        e 15 82 32 00
        e 1 92 47 78
        e 0 92 39 78
        e 0 92 32 78
        e 60 82 37 00
        e 181 82 47 00
        e 16 92 45 78
        e 230 82 45 00
        e 16 92 43 78
        e 0 92 3b 77
        e 60 82 39 00
        e 170 82 43 00
        e 16 92 41 78
        e 195 82 3b 00
        e 49 82 41 00
        e 15 82 32 00
        e 6 92 40 78
        e 0 92 3c 79
        e 0 92 30 79
        e 217 92 3e 78
        e 19 82 40 00
        e 147 92 3c 78
        e 19 82 3e 00
        e 146 92 3e 78
        e 19 82 3c 00
        e 146 92 40 78
        e 19 82 3e 00
        e 146 92 41 78
        e 19 82 40 00
        e 157 82 30 00
        e 0 82 3c 00
        e 1 92 43 78
        e 0 92 3b 78
        e 0 92 34 78
        e 19 82 41 00
        e 157 92 41 78
        e 19 82 43 00
        e 146 92 43 78
        e 19 82 41 00
        e 144 92 45 78
        e 19 82 43 00
        e 145 92 43 78
        e 19 82 45 00
        e 146 92 41 78
        e 19 82 43 00
        e 161 82 3b 00
        e 0 82 34 00
        e 1 92 40 78
        e 0 92 37 79
        e 0 92 34 79
        e 19 82 41 00
        e 162 92 3e 78
        e 19 82 40 00
        e 146 92 40 78
        e 19 82 3e 00
        e 144 92 41 78
        e 19 82 40 00
        e 145 92 40 78
        e 19 82 41 00
        e 146 92 41 78
        e 19 82 40 00
        e 155 82 37 00
        e 0 82 34 00
        e 1 92 43 78
        e 0 92 3b 78
        e 0 92 34 78
        e 19 82 41 00
        e 155 92 41 78
        e 19 82 43 00
        e 146 92 43 78
        e 19 82 41 00
        e 145 92 45 78
        e 19 82 43 00
        e 145 92 43 78
        e 19 82 45 00
        e 146 92 45 78
        e 19 82 43 00
        e 157 82 3b 00
        e 6 92 47 78
        e 0 92 36 79
        e 0 92 33 78
        e 14 82 45 00
        e 20 82 34 00
        e 183 92 45 78
        e 19 82 47 00
        e 147 92 47 78
        e 19 82 45 00
        e 146 92 48 78
        e 19 82 47 00
        e 146 92 47 78
        e 19 82 48 00
        e 146 92 48 78
        e 19 82 47 00
        e 157 82 36 00
        e 1 92 4a 78
        e 0 92 3b 78
        e 0 92 32 78
        e 19 82 48 00
        e 20 82 33 00
        e 137 92 48 78
        e 19 82 4a 00
        e 146 92 47 78
        e 19 82 48 00
        e 144 92 45 78
        e 19 82 47 00
        e 145 92 43 78
        e 19 82 45 00
        e 146 92 41 77
        e 19 82 43 00
        e 129 82 41 00
        e 33 92 4c 78
        e 0 92 31 78
        e 39 82 32 00
        e 142 92 4a 78
        e 19 82 4c 00
        e 146 92 49 78
        e 19 82 4a 00
        e 144 92 47 78
        e 19 82 49 00
        e 145 92 45 78
        e 19 82 47 00
        e 146 92 43 78
        e 19 82 45 00
        e 155 82 3b 00
        e 1 92 48 78
        e 0 92 39 78
        e 0 92 30 78
        e 19 82 43 00
        e 20 82 31 00
        e 135 92 47 78
        e 19 82 48 00
        e 146 92 45 78
        e 19 82 47 00
        e 145 92 43 78
        e 19 82 45 00
        e 145 92 41 78
        e 19 82 43 00
        e 146 92 40 78
        e 19 82 41 00
        e 157 82 39 00
        e 6 92 3e 77
        e 0 92 3b 79
        e 0 92 2f 77
        e 14 82 40 00
        e 20 82 30 00
        e 986 82 2f 00
        e 35 92 32 78
        e 176 92 3c 78
        e 19 82 3e 00
        e 146 92 3b 78
        e 19 82 3c 00
        e 144 92 3c 78
        e 19 82 3b 00
        e 145 92 3e 78
        e 19 82 3c 00
        e 146 92 40 78
        e 19 82 3e 00
        e 161 82 32 00
        e 0 82 3b 00
        e 1 92 42 78
        e 0 92 39 79
        e 0 92 32 79
        e 19 82 40 00
        e 162 92 40 78
        e 19 82 42 00
        e 146 92 3e 78
        e 19 82 40 00
        e 144 92 40 78
        e 19 82 3e 00
        e 145 92 42 78
        e 19 82 40 00
        e 146 92 43 78
        e 19 82 42 00
        e 155 82 39 00
        e 0 82 32 00
        e 1 92 45 78
        e 0 92 36 78
        e 0 92 32 78
        e 19 82 43 00
        e 155 92 43 78
        e 19 82 45 00
        e 146 92 42 78
        e 19 82 43 00
        e 145 92 43 78
        e 19 82 42 00
        e 145 92 45 78
        e 19 82 43 00
        e 146 92 47 78
        e 19 82 45 00
        e 157 82 36 00
        e 6 92 49 78
        e 0 92 34 79
        e 0 92 31 78
        e 14 82 47 00
        e 20 82 32 00
        e 183 92 47 78
        e 19 82 49 00
        e 147 92 45 78
        e 19 82 47 00
        e 146 92 47 78
        e 19 82 45 00
        e 146 92 49 78
        e 19 82 47 00
        e 146 92 4a 78
        e 19 82 49 00
        e 157 82 34 00
        e 1 92 4c 78
        e 0 92 39 78
        e 0 92 30 78
        e 19 82 4a 00
        e 20 82 31 00
        e 137 92 4a 78
        e 19 82 4c 00
        e 146 92 48 78
        e 19 82 4a 00
        e 144 92 4a 78
        e 19 82 48 00
        e 145 92 4c 78
        e 19 82 4a 00
        e 146 92 4d 78
        e 19 82 4c 00
        e 162 92 4f 78
        e 0 92 2f 78
        e 19 82 4d 00
        e 20 82 30 00
        e 142 92 4d 78
        e 19 82 4f 00
        e 146 92 4f 78
        e 19 82 4d 00
        e 144 92 51 78
        e 19 82 4f 00
        e 145 92 4f 78
        e 19 82 51 00
        e 146 92 4d 78
        e 19 82 4f 00
        e 156 92 4f 78
        e 0 92 37 78
        e 0 92 2e 78
        e 19 82 4d 00
        e 20 82 2f 00
        e 41 82 39 00
        e 94 92 4d 78
        e 19 82 4f 00
        e 146 92 4f 78
        e 19 82 4d 00
        e 145 92 4d 78
        e 19 82 4f 00
        e 145 92 4c 78
        e 19 82 4d 00
        e 146 92 4a 78
        e 19 82 4c 00
        e 157 82 4a 00
        e 1 92 4a 77
        e 5 92 39 78
        e 0 92 2d 77
        e 34 82 37 00
        e 0 82 2e 00
        e 72 82 4a 00
        e 7 92 49 77
        e 111 82 49 00
        e 7 92 4a 77
        e 111 82 4a 00
        e 7 92 49 77
        e 706 92 45 78
        e 504 92 37 78
        e 60 82 39 00
        e 186 92 35 78
        e 29 82 37 00
        e 234 82 45 00
        e 1 92 45 79
        e 0 92 34 77
        e 29 82 35 00
        e 983 82 45 00
        e 1 92 45 78
        e 974 82 2d 00
        e 0 82 34 00
        e 11 b2 07 6e
        e 23 82 45 00
        e 1 82 49 00
        e 5 92 44 79
        e 227 b2 07 66
        e 827 82 44 00
        e 1 92 4a 78
        e 0 92 43 78
        e 1013 82 4a 00
        e 0 82 43 00
        e 1 92 4a 79
        e 0 92 42 79
        e 975 b2 07 6e
        e 37 82 4a 00
        e 0 82 42 00
        e 1 92 4a 78
        e 0 92 41 78
        e 1008 82 4a 00
        e 0 82 41 00
        e 6 92 49 79
        e 0 92 40 79
        e 1054 82 49 00
        e 1 92 48 78
        e 1013 82 40 00
        e 0 82 48 00
        e 1 92 47 79
        e 951 b2 07 66
        e 61 82 47 00
        e 1 92 46 78
        e 0 92 41 78
        e 0 92 3e 78
        e 1008 82 46 00
        e 0 82 41 00
        e 0 82 3e 00
        e 6 92 45 79
        e 0 92 41 79
        e 0 92 3e 79
        e 1054 82 41 00
        e 0 82 3e 00
        e 1 92 41 78
        e 0 92 3e 78
        e 1013 82 45 00
        e 0 82 41 00
        e 0 82 3e 00
        e 1 92 40 79
        e 0 92 3d 79
        e 974 b2 07 6e
        e 38 82 40 00
        e 0 82 3d 00
        e 1 92 43 78
        e 0 92 40 78
        e 0 92 3c 78
        e 1008 82 43 00
        e 0 82 40 00
        e 0 82 3c 00
        e 6 92 43 79
        e 0 92 3e 79
        e 0 92 3b 79
        e 1054 82 43 00
        e 0 82 3b 00
        e 1 92 43 78
        e 0 92 3a 78
        e 1013 82 3e 00
        e 0 82 43 00
        e 0 82 3a 00
        e 1 92 42 79
        e 0 92 39 79
        e 1012 82 42 00
        e 1 92 41 78
        e 0 92 3e 78
        e 985 b2 07 66
        e 23 82 41 00
        e 6 92 40 79
        e 1054 82 3e 00
        e 0 82 40 00
        e 1 92 3f 78
        e 0 92 3c 78
        e 1013 82 39 00
        e 0 82 3f 00
        e 0 82 3c 00
        e 1 92 3e 79
        e 0 92 3a 79
        e 1012 82 3a 00
        e 1 92 39 78
        e 0 92 32 78
        e 472 82 39 00
        e 30 82 3e 00
        e 1 92 40 78
        e 0 92 37 78
        e 475 82 40 00
        e 0 82 37 00
        e 30 82 32 00
        e 6 92 41 79
        e 0 92 35 79
        e 0 92 32 79
        e 1054 82 32 00
        e 1 92 39 78
        e 0 92 32 78
        e 503 82 41 00
        e 1 92 43 78
        e 479 82 43 00
        e 30 82 35 00
        e 0 82 39 00
        e 0 82 32 00
        e 1 92 45 79
        e 0 92 39 79
        e 0 92 34 79
        e 0 92 31 79
        e 1012 82 39 00
        e 0 82 31 00
        e 1 92 39 78
        e 0 92 30 78
        e 1008 82 45 00
        e 0 82 34 00
        e 0 82 39 00
        e 0 82 30 00
        e 6 92 38 79
        e 0 92 2f 79
        e 972 b2 07 6e
        e 82 82 38 00
        e 0 82 2f 00
        e 1 92 4a 78
        e 0 92 37 78
        e 0 92 2e 78
        e 1013 82 4a 00
        e 0 82 37 00
        e 0 82 2e 00
        e 1 92 4a 79
        e 0 92 36 79
        e 0 92 2d 79
        e 1012 82 4a 00
        e 0 82 36 00
        e 1 92 4a 78
        e 0 92 45 78
        e 0 92 35 78
        e 1008 82 2d 00
        e 0 82 4a 00
        e 0 82 45 00
        e 0 82 35 00
        e 6 92 49 79
        e 0 92 45 79
        e 0 92 34 79
        e 0 92 2d 79
        e 517 82 2d 00
        e 31 92 2f 78
        e 476 82 2f 00
        e 30 82 49 00
        e 0 82 45 00
        e 1 92 48 78
        e 0 92 45 78
        e 0 92 30 78
        e 473 82 30 00
        e 31 92 32 78
        e 479 82 32 00
        e 30 82 34 00
        e 0 82 48 00
        e 0 82 45 00
        e 1 92 47 79
        e 0 92 44 79
        e 0 92 34 79
        e 478 82 34 00
        e 31 92 35 78
        e 465 b2 07 66
        e 8 82 35 00
        e 30 82 47 00
        e 0 82 44 00
        e 1 92 46 78
        e 0 92 43 78
        e 0 92 3e 78
        e 0 92 37 78
        e 1008 82 46 00
        e 0 82 43 00
        e 0 82 3e 00
        e 0 82 37 00
        e 6 92 45 79
        e 0 92 42 79
        e 0 92 3e 79
        e 0 92 32 79
        e 517 82 32 00
        e 31 92 34 78
        e 476 82 34 00
        e 30 82 42 00
        e 0 82 3e 00
        e 1 92 41 78
        e 0 92 3e 78
        e 0 92 35 78
        e 473 82 35 00
        e 30 82 45 00
        e 1 92 47 78
        e 0 92 37 78
        e 479 82 47 00
        e 0 82 37 00
        e 30 82 41 00
        e 0 82 3e 00
        e 1 92 49 79
        e 0 92 40 79
        e 0 92 3d 79
        e 0 92 39 79
        e 478 82 49 00
        e 31 92 4a 78
        e 473 82 4a 00
        e 30 82 40 00
        e 0 82 3d 00
        e 1 92 4c 78
        e 0 92 45 78
        e 0 92 3c 78
        e 472 82 4c 00
        e 31 92 48 78
        e 475 82 48 00
        e 30 82 39 00
        e 0 82 3c 00
        e 6 92 4a 79
        e 0 92 3b 79
        e 1054 82 45 00
        e 0 82 3b 00
        e 1 92 43 78
        e 0 92 3a 78
        e 503 82 4a 00
        e 1 92 4c 78
        e 479 82 4c 00
        e 30 82 43 00
        e 0 82 3a 00
        e 1 92 4d 79
        e 0 92 45 79
        e 0 92 39 79
        e 478 82 39 00
        e 31 92 3b 78
        e 473 82 3b 00
        e 30 82 4d 00
        e 1 92 4c 78
        e 0 92 3c 78
        e 0 92 39 78
        e 472 82 4c 00
        e 0 82 3c 00
        e 31 92 4a 78
        e 0 92 3e 78
        e 475 82 4a 00
        e 0 82 3e 00
        e 30 82 39 00
        e 6 92 49 79
        e 0 92 40 79
        e 0 92 39 79
        e 517 82 49 00
        e 0 82 40 00
        e 31 92 4a 78
        e 0 92 3e 78
        e 476 82 4a 00
        e 0 82 3e 00
        e 30 82 39 00
        e 1 92 4c 78
        e 0 92 3d 78
        e 0 92 39 78
        e 473 82 4c 00
        e 0 82 3d 00
        e 31 92 4a 78
        e 0 92 3e 78
        e 230 82 4a 00
        e 16 92 48 78
        e 233 82 3e 00
        e 15 82 48 00
        e 15 82 45 00
        e 0 82 39 00
        e 1 92 47 79
        e 0 92 40 79
        e 0 92 38 79
        e 478 82 47 00
        e 0 82 40 00
        e 31 92 48 78
        e 0 92 3e 78
        e 230 82 3e 00
        e 16 92 3c 78
        e 227 82 48 00
        e 15 82 3c 00
        e 15 82 38 00
        e 1 92 4a 78
        e 0 92 3b 78
        e 0 92 37 78
        e 472 82 4a 00
        e 0 82 3b 00
        e 31 92 48 78
        e 0 92 3c 78
        e 230 82 48 00
        e 16 92 47 78
        e 229 82 3c 00
        e 15 82 47 00
        e 15 82 37 00
        e 6 92 45 79
        e 0 92 3e 79
        e 0 92 36 79
        e 517 82 45 00
        e 0 82 3e 00
        e 31 92 47 78
        e 0 92 3c 78
        e 231 82 3c 00
        e 16 92 3b 78
        e 229 82 47 00
        e 15 82 3b 00
        e 15 82 36 00
        e 1 92 48 78
        e 0 92 39 78
        e 0 92 35 78
        e 473 82 48 00
        e 0 82 39 00
        e 31 92 47 78
        e 0 92 3b 78
        e 230 82 47 00
        e 16 92 45 78
        e 233 82 3b 00
        e 15 82 45 00
        e 15 82 35 00
        e 1 92 43 79
        e 0 92 3c 79
        e 0 92 34 79
        e 478 82 43 00
        e 31 92 45 78
        e 0 92 40 75
        e 503 82 3c 00
        e 0 82 40 00
        e 1 92 40 75
        e 0 92 3b 78
        e 502 82 40 00
        e 1 92 43 78
        e 0 92 40 75
        e 39 82 45 00
        e 466 82 34 00
        e 0 82 3b 00
        e 6 92 41 77
        e 0 92 3c 79
        e 0 92 2d 78
        e 25 82 40 00
        e 30 82 43 00
        e 493 92 39 78
        e 472 82 41 00
        e 34 82 39 00
        e 1 92 40 78
        e 0 92 39 78
        e 503 82 39 00
        e 1 92 39 78
        e 509 82 3c 00
        e 1 92 38 78
        e 60 82 39 00
        e 449 92 37 78
        e 60 82 38 00
        e 444 92 3e 78
        e 0 92 36 78
        e 60 82 37 00
        e 20 82 40 00
        e 423 92 35 78
        e 60 82 36 00
        e 445 82 2d 00
        e 6 92 3d 77
        e 0 92 34 78
        e 0 92 2d 78
        e 34 82 3e 00
        e 21 82 35 00
        e 493 92 45 78
        e 506 82 45 00
        e 1 92 45 78
        e 503 82 45 00
        e 1 92 45 78
        e 475 82 3d 00
        e 35 92 44 78
        e 60 82 45 00
        e 449 92 43 78
        e 60 82 44 00
        e 444 92 42 78
        e 0 92 32 78
        e 60 82 43 00
        e 61 82 34 00
        e 382 92 41 78
        e 60 82 42 00
        e 445 82 2d 00
        e 6 92 40 78
        e 0 92 31 78
        e 0 92 2d 78
        e 34 82 32 00
        e 21 82 41 00
        e 493 92 45 78
        e 506 82 45 00
        e 1 92 45 78
        e 503 82 45 00
        e 1 92 45 78
        e 510 92 44 78
        e 60 82 45 00
        e 449 92 43 78
        e 60 82 44 00
        e 444 92 42 78
        e 0 92 3e 78
        e 0 92 32 77
        e 60 82 43 00
        e 61 82 40 00
        e 0 82 31 00
        e 382 92 41 78
        e 60 82 42 00
        e 411 82 32 00
        e 34 82 2d 00
        e 6 92 40 78
        e 0 92 3c 77
        e 0 92 34 79
        e 0 92 2d 78
        e 34 82 3e 00
        e 21 82 41 00
        e 462 82 34 00
        e 31 92 39 78
        e 506 82 39 00
        e 1 92 41 78
        e 0 92 39 78
        e 39 82 40 00
        e 464 82 39 00
        e 1 92 39 78
        e 510 92 40 78
        e 0 92 38 78
        e 39 82 41 00
        e 21 82 39 00
        e 449 92 37 78
        e 60 82 38 00
        e 409 82 3c 00
        e 35 92 3e 77
        e 0 92 39 78
        e 0 92 36 78
        e 39 82 40 00
        e 21 82 37 00
        e 443 92 35 77
        e 60 82 36 00
        e 381 82 35 00
        e 27 82 2d 00
        e 3 82 3e 00
        e 4 92 2d 76
        e 30 82 39 00
        e 15 92 34 79
        e 45 92 39 78
        e 45 92 3d 78
        e 201 92 3e 78
        e 29 82 3d 00
        e 219 92 40 78
        e 29 82 3e 00
        e 218 92 3e 78
        e 29 82 40 00
        e 231 92 40 78
        e 29 82 3e 00
        e 230 92 3e 78
        e 29 82 40 00
        e 216 92 3b 78
        e 29 82 3e 00
        e 217 92 3d 78
        e 29 82 3b 00
        e 235 92 3e 78
        e 29 82 3d 00
        e 235 92 3d 78
        e 29 82 3e 00
        e 216 92 3e 78
        e 29 82 3d 00
        e 217 92 3d 78
        e 29 82 3e 00
        e 229 92 3e 78
        e 29 82 3d 00
        e 228 92 3d 78
        e 29 82 3e 00
        e 217 92 3b 78
        e 29 82 3d 00
        e 217 92 3d 78
        e 29 82 3b 00
        e 230 82 2d 00
        e 0 82 34 00
        e 0 82 39 00
        e 6 92 3e 77
        e 0 92 36 78
        e 0 92 32 78
        e 24 82 3d 00
        e 459 82 3e 00
        e 65 92 4a 78
        e 506 82 4a 00
        e 1 92 4a 78
        e 503 82 4a 00
        e 1 92 4a 78
        e 0 92 37 78
        e 60 82 36 00
        e 450 92 49 78
        e 0 92 39 78
        e 60 82 4a 00
        e 0 82 37 00
        e 449 92 48 78
        e 60 82 49 00
        e 444 92 47 78
        e 0 92 37 78
        e 39 82 39 00
        e 21 82 48 00
        e 443 92 46 78
        e 60 82 47 00
        e 445 82 32 00
        e 6 92 45 78
        e 0 92 36 77
        e 0 92 32 78
        e 34 82 37 00
        e 21 82 46 00
        e 493 92 3e 78
        e 506 82 3e 00
        e 1 92 46 78
        e 0 92 3e 78
        e 39 82 45 00
        e 464 82 3e 00
        e 1 92 3e 78
        e 475 82 36 00
        e 35 92 45 78
        e 0 92 3d 78
        e 39 82 46 00
        e 21 82 3e 00
        e 449 92 3c 78
        e 60 82 3d 00
        e 444 92 43 78
        e 0 92 3b 78
        e 39 82 45 00
        e 21 82 3c 00
        e 443 92 3a 78
        e 60 82 3b 00
        e 445 82 32 00
        e 6 92 42 77
        e 0 92 39 77
        e 0 92 32 78
        e 34 82 43 00
        e 21 82 3a 00
        e 428 82 42 00
        e 65 92 4a 78
        e 472 82 39 00
        e 34 82 4a 00
        e 1 92 4a 78
        e 0 92 45 78
        e 0 92 36 78
        e 503 82 4a 00
        e 1 92 4a 78
        e 510 92 49 78
        e 60 82 4a 00
        e 449 92 48 78
        e 60 82 49 00
        e 444 92 47 78
        e 0 92 43 78
        e 0 92 37 78
        e 60 82 48 00
        e 20 82 45 00
        e 0 82 36 00
        e 423 92 46 78
        e 60 82 47 00
        e 445 82 32 00
        e 6 92 45 77
        e 0 92 42 77
        e 0 92 39 77
        e 0 92 32 79
        e 34 82 43 00
        e 0 82 37 00
        e 21 82 46 00
        e 965 82 45 00
        e 0 82 42 00
        e 0 82 39 00
        e 34 82 32 00
        e 1 92 46 78
        e 0 92 3e 78
        e 0 92 37 78
        e 0 92 2b 78
        e 1013 82 46 00
        e 1 92 46 79
        e 0 92 32 78
        e 39 82 37 00
        e 470 92 2d 78
        e 60 82 2b 00
        e 443 82 3e 00
        e 0 82 46 00
        e 1 92 46 78
        e 0 92 3e 78
        e 0 92 2e 78
        e 60 82 2d 00
        e 443 92 34 78
        e 0 92 30 78
        e 60 82 32 00
        e 0 82 2e 00
        e 445 82 46 00
        e 0 82 3e 00
        e 6 92 45 79
        e 0 92 3e 78
        e 0 92 35 78
        e 0 92 32 78
        e 55 82 34 00
        e 0 82 30 00
        e 493 92 37 78
        e 0 92 34 78
        e 60 82 35 00
        e 0 82 32 00
        e 447 92 39 77
        e 0 92 35 77
        e 60 82 37 00
        e 0 82 34 00
        e 379 82 39 00
        e 0 82 35 00
        e 65 92 35 78
        e 0 92 32 78
        e 479 82 35 00
        e 0 82 32 00
        e 30 82 45 00
        e 1 92 43 79
        e 0 92 3a 79
        e 0 92 37 79
        e 1012 82 37 00
        e 1 92 2b 78
        e 1008 82 3e 00
        e 0 82 3a 00
        e 0 82 2b 00
        e 6 92 3e 78
        e 0 92 39 78
        e 0 92 32 78
        e 548 92 42 78
        e 60 82 43 00
        e 187 92 40 78
        e 29 82 42 00
        e 231 92 42 78
        e 29 82 40 00
        e 230 92 43 78
        e 29 82 42 00
        e 216 92 45 78
        e 29 82 43 00
        e 217 92 46 78
        e 29 82 45 00
        e 235 92 45 78
        e 29 82 46 00
        e 235 92 43 78
        e 29 82 45 00
        e 216 92 45 78
        e 29 82 43 00
        e 217 92 43 78
        e 29 82 45 00
        e 229 92 45 78
        e 29 82 43 00
        e 228 92 43 78
        e 29 82 45 00
        e 217 92 42 78
        e 29 82 43 00
        e 217 92 40 78
        e 29 82 42 00
        e 230 82 3e 00
        e 6 92 42 77
        e 24 82 40 00
        e 226 82 42 00
        e 50 92 3e 78
        e 248 92 40 78
        e 29 82 3e 00
        e 218 92 42 78
        e 29 82 40 00
        e 231 92 43 78
        e 29 82 42 00
        e 230 92 45 78
        e 29 82 43 00
        e 216 92 47 78
        e 29 82 45 00
        e 217 92 49 78
        e 29 82 47 00
        e 235 92 4a 78
        e 29 82 49 00
        e 235 92 4c 78
        e 29 82 4a 00
        e 216 92 4e 78
        e 29 82 4c 00
        e 217 92 4f 77
        e 29 82 4e 00
        e 179 82 4f 00
        e 50 92 51 78
        e 174 92 4f 78
        e 19 82 51 00
        e 146 92 51 78
        e 19 82 4f 00
        e 145 92 4f 78
        e 19 82 51 00
        e 145 92 4e 78
        e 19 82 4f 00
        e 146 92 4c 78
        e 19 82 4e 00
        e 163 92 4f 78
        e 14 82 4c 00
        e 203 92 4e 78
        e 19 82 4f 00
        e 147 92 4f 78
        e 19 82 4e 00
        e 146 92 4e 78
        e 19 82 4f 00
        e 146 92 4c 78
        e 19 82 4e 00
        e 146 92 4a 78
        e 19 82 4c 00
        e 158 92 4c 78
        e 19 82 4a 00
        e 157 92 4a 78
        e 19 82 4c 00
        e 146 92 4c 78
        e 19 82 4a 00
        e 144 92 4a 78
        e 19 82 4c 00
        e 145 92 48 78
        e 19 82 4a 00
        e 146 92 47 78
        e 19 82 48 00
        e 162 92 48 78
        e 19 82 47 00
        e 162 92 47 78
        e 19 82 48 00
        e 146 92 48 78
        e 19 82 47 00
        e 144 92 47 78
        e 19 82 48 00
        e 145 92 45 78
        e 19 82 47 00
        e 146 92 43 78
        e 19 82 45 00
        e 156 92 45 78
        e 19 82 43 00
        e 155 92 43 78
        e 19 82 45 00
        e 146 92 45 78
        e 19 82 43 00
        e 145 92 43 78
        e 19 82 45 00
        e 145 92 42 78
        e 19 82 43 00
        e 146 92 40 77
        e 19 82 42 00
        e 125 82 40 00
        e 32 82 39 00
        e 0 82 32 00
        e 1 92 26 76
        e 155 92 32 79
        e 155 92 39 76
        e 155 92 3e 76
        e 155 92 42 79
        e 2585 82 26 00
        e 0 82 32 00
        e 0 82 39 00
        e 0 82 3e 00
        e 0 82 42 00
        E 1915 b0 7b 00
        CCINTERP 32
        CHASE_CC_TAKEOFFS 1
        GUID {6F6C1B8C-35DF-BF46-AAEC-15301AACE252}
        IGNTEMPO 0 120 4 4
        SRCCOLOR 1
        VELLANE -1 100 0
        CFGEDITVIEW -836.417694 0.061096 45 12 0 -1 0 0 0 0.5
        KEYSNAP 0
        TRACKSEL -252
        EVTFILTER 0 -1 -1 -1 -1 0 0 0 0 -1 -1 -1 -1 0 -1 0 -1 -1
        CFGEDIT 1 1 0 1 0 4 1 1 1 1 1 0.25 0 164 1920 938 0 0 0 0 0 0 0 0 0 0.5 0 0 1 64
      >
    >
    <ITEM
      POSITION 887.42857142857122
      SNAPOFFS 0
      LENGTH 136.79999999994959
      LOOP 0
      ALLTAKES 0
      FADEIN 1 0 0 1 0 0 0
      FADEOUT 1 0 0 1 0 0 0
      MUTE 0 0
      SEL 0
      IGUID {AE5EE4EF-E2FD-0840-B099-BE39CD99A011}
      IID 119
      NAME "Oboe - tocatta_.mid"
      VOLPAN 1 0 1 -1
      SOFFS 0 0
      PLAYRATE 1 1 0 -1 0 0.0025
      CHANMODE 0
      GUID {B61DEAE5-9A1C-C94C-A698-FC0483351F5D}
      <SOURCE MIDI
        HASDATA 1 96 QN
        CCINTERP 32
        POOLEDEVTS {319C2E6B-1D6A-F646-91D0-56A233ED320D}
        e 0 92 4c 64
        e 288 92 4c 00
        e 0 92 4a 64
        e 96 92 4a 00
        e 0 92 48 64
        e 192 92 48 00
        e 0 92 47 64
        e 192 92 47 00
        e 0 92 45 64
        e 96 92 45 00
        e 0 92 48 64
        e 96 92 48 00
        e 0 92 47 64
        e 96 92 47 00
        e 0 92 45 64
        e 96 92 45 00
        e 0 92 44 64
        e 192 92 44 00
        e 0 92 47 64
        e 96 92 47 00
        e 0 92 45 64
        e 48 92 45 00
        e 0 92 47 64
        e 48 92 47 00
        e 0 92 48 64
        e 96 92 48 00
        e 0 92 47 64
        e 48 92 47 00
        e 0 92 48 64
        e 48 92 48 00
        e 0 92 4a 64
        e 96 92 4a 00
        e 0 92 48 64
        e 48 92 48 00
        e 0 92 4a 64
        e 48 92 4a 00
        e 0 92 4c 64
        e 576 92 4c 00
        e 0 92 4f 64
        e 288 92 4f 00
        e 0 92 51 64
        e 48 92 51 00
        e 0 92 4f 64
        e 48 92 4f 00
        e 0 92 4d 64
        e 96 92 4d 00
        e 0 92 4f 64
        e 48 92 4f 00
        e 0 92 4d 64
        e 48 92 4d 00
        e 0 92 4c 64
        e 96 92 4c 00
        e 0 92 4d 64
        e 48 92 4d 00
        e 0 92 4c 64
        e 48 92 4c 00
        e 0 92 4a 64
        e 48 92 4a 00
        e 0 92 48 64
        e 48 92 48 00
        e 0 92 47 64
        e 48 92 47 00
        e 0 92 45 64
        e 48 92 45 00
        e 0 92 47 64
        e 384 92 47 00
        e 0 92 4c 64
        e 480 92 4c 00
        e 0 92 4d 64
        e 48 92 4d 00
        e 0 92 4c 64
        e 48 92 4c 00
        e 0 92 4a 64
        e 96 92 4a 00
        e 0 92 4c 64
        e 48 92 4c 00
        e 0 92 4a 64
        e 48 92 4a 00
        e 0 92 48 64
        e 96 92 48 00
        e 0 92 4a 64
        e 48 92 4a 00
        e 0 92 48 64
        e 48 92 48 00
        e 0 92 47 64
        e 48 92 47 00
        e 0 92 48 64
        e 48 92 48 00
        e 0 92 45 64
        e 48 92 45 00
        e 0 92 47 64
        e 48 92 47 00
        e 0 92 44 64
        e 48 92 44 00
        e 0 92 40 64
        e 48 92 40 00
        e 0 92 42 64
        e 48 92 42 00
        e 0 92 44 64
        e 48 92 44 00
        e 0 92 45 64
        e 48 92 45 00
        e 0 92 47 64
        e 48 92 47 00
        e 0 92 48 64
        e 48 92 48 00
        e 0 92 4a 64
        e 48 92 4a 00
        e 0 92 4c 64
        e 48 92 4c 00
        e 0 92 45 64
        e 48 92 45 00
        e 0 92 47 64
        e 48 92 47 00
        e 0 92 48 64
        e 48 92 48 00
        e 0 92 4a 64
        e 48 92 4a 00
        e 0 92 44 64
        e 48 92 44 00
        e 0 92 45 64
        e 48 92 45 00
        e 0 92 47 64
        e 48 92 47 00
        e 0 92 49 64
        e 96 92 49 00
        e 1248 92 4e 64
        e 192 92 4e 00
        e 0 92 4f 64
        e 48 92 4f 00
        e 0 92 43 64
        e 48 92 43 00
        e 0 92 45 64
        e 48 92 45 00
        e 0 92 47 64
        e 48 92 47 00
        e 0 92 48 64
        e 48 92 48 00
        e 0 92 4a 64
        e 48 92 4a 00
        e 0 92 4c 64
        e 48 92 4c 00
        e 0 92 4d 64
        e 48 92 4d 00
        e 0 92 4f 64
        e 48 92 4f 00
        e 0 92 40 64
        e 48 92 40 00
        e 0 92 41 64
        e 48 92 41 00
        e 0 92 43 64
        e 48 92 43 00
        e 0 92 45 64
        e 48 92 45 00
        e 0 92 47 64
        e 48 92 47 00
        e 0 92 48 64
        e 48 92 48 00
        e 0 92 4a 64
        e 48 92 4a 00
        e 0 92 4c 64
        e 576 92 4c 00
        e 0 92 4a 64
        e 192 92 4a 00
        e 0 92 48 64
        e 192 92 48 00
        e 0 92 47 64
        e 192 92 47 00
        e 0 92 48 64
        e 192 92 48 00
        e 0 92 4a 64
        e 192 92 4a 00
        e 0 92 47 64
        e 384 92 47 00
        e 48 92 47 64
        e 48 92 47 00
        e 0 92 44 64
        e 48 92 44 00
        e 0 92 40 64
        e 48 92 40 00
        e 0 92 47 64
        e 48 92 47 00
        e 0 92 45 64
        e 48 92 45 00
        e 0 92 47 64
        e 24 92 47 00
        e 0 92 45 64
        e 24 92 45 00
        e 0 92 44 64
        e 24 92 44 00
        e 0 92 42 64
        e 12 92 42 00
        e 12 92 40 64
        e 384 92 40 00
        e 816 92 45 64
        e 48 92 45 00
        e 0 92 42 64
        e 48 92 42 00
        e 0 92 3e 64
        e 48 92 3e 00
        e 0 92 45 64
        e 48 92 45 00
        e 0 92 43 64
        e 48 92 43 00
        e 0 92 45 64
        e 24 92 45 00
        e 0 92 43 64
        e 24 92 43 00
        e 0 92 42 64
        e 24 92 42 00
        e 0 92 40 64
        e 24 92 40 00
        e 768 92 42 64
        e 48 92 42 00
        e 0 92 45 64
        e 48 92 45 00
        e 0 92 42 64
        e 48 92 42 00
        e 0 92 3e 64
        e 48 92 3e 00
        e 0 92 45 64
        e 48 92 45 00
        e 0 92 42 64
        e 48 92 42 00
        e 0 92 3e 64
        e 48 92 3e 00
        e 0 92 45 64
        e 48 92 45 00
        e 384 92 49 64
        e 48 92 49 00
        e 0 92 4c 64
        e 48 92 4c 00
        e 0 92 49 64
        e 48 92 49 00
        e 0 92 45 64
        e 48 92 45 00
        e 0 92 4c 64
        e 48 92 4c 00
        e 0 92 49 64
        e 48 92 49 00
        e 0 92 45 64
        e 48 92 45 00
        e 0 92 4c 64
        e 48 92 4c 00
        e 0 92 4d 64
        e 48 92 4d 00
        e 0 92 51 64
        e 48 92 51 00
        e 0 92 4d 64
        e 48 92 4d 00
        e 0 92 4a 64
        e 48 92 4a 00
        e 0 92 51 64
        e 24 92 51 00
        e 0 92 4f 64
        e 24 92 4f 00
        e 0 92 4d 64
        e 24 92 4d 00
        e 0 92 4c 64
        e 24 92 4c 00
        e 0 92 4a 64
        e 24 92 4a 00
        e 0 92 48 64
        e 24 92 48 00
        e 0 92 47 64
        e 24 92 47 00
        e 0 92 45 64
        e 24 92 45 00
        e 576 92 45 64
        e 384 92 45 00
        e 0 92 40 64
        e 24 92 40 00
        e 0 92 41 64
        e 24 92 41 00
        e 0 92 43 64
        e 24 92 43 00
        e 0 92 45 64
        e 24 92 45 00
        e 0 92 47 64
        e 24 92 47 00
        e 0 92 49 64
        e 24 92 49 00
        e 0 92 4a 64
        e 24 92 4a 00
        e 0 92 4c 64
        e 24 92 4c 00
        e 0 92 4d 64
        e 48 92 4d 00
        e 0 92 51 64
        e 48 92 51 00
        e 0 92 4d 64
        e 48 92 4d 00
        e 0 92 4a 64
        e 48 92 4a 00
        e 0 92 51 64
        e 48 92 51 00
        e 0 92 4f 64
        e 24 92 4f 00
        e 0 92 4d 64
        e 24 92 4d 00
        e 0 92 4c 64
        e 24 92 4c 00
        e 0 92 4a 64
        e 24 92 4a 00
        e 0 92 48 64
        e 24 92 48 00
        e 0 92 47 64
        e 24 92 47 00
        e 672 92 3e 64
        e 48 92 3e 00
        e 0 92 40 64
        e 48 92 40 00
        e 0 92 41 64
        e 48 92 41 00
        e 0 92 43 64
        e 48 92 43 00
        e 0 92 45 64
        e 48 92 45 00
        e 0 92 47 64
        e 48 92 47 00
        e 0 92 49 64
        e 48 92 49 00
        e 0 92 4a 64
        e 48 92 4a 00
        e 0 92 4c 64
        e 48 92 4c 00
        e 0 92 45 64
        e 48 92 45 00
        e 0 92 4f 64
        e 48 92 4f 00
        e 0 92 4d 64
        e 48 92 4d 00
        e 0 92 4c 64
        e 48 92 4c 00
        e 0 92 4a 64
        e 48 92 4a 00
        e 0 92 48 64
        e 48 92 48 00
        e 0 92 47 64
        e 48 92 47 00
        e 0 92 45 64
        e 48 92 45 00
        e 0 92 4a 64
        e 48 92 4a 00
        e 0 92 48 64
        e 48 92 48 00
        e 0 92 47 64
        e 48 92 47 00
        e 0 92 45 64
        e 48 92 45 00
        e 0 92 43 64
        e 48 92 43 00
        e 0 92 41 64
        e 48 92 41 00
        e 0 92 40 64
        e 48 92 40 00
        e 0 92 3e 64
        e 48 92 3e 00
        e 0 92 43 64
        e 48 92 43 00
        e 0 92 41 64
        e 24 92 41 00
        e 0 92 40 64
        e 24 92 40 00
        e 0 92 3e 64
        e 24 92 3e 00
        e 0 92 3c 64
        e 24 92 3c 00
        e 288 92 4f 64
        e 24 92 4f 00
        e 0 92 4d 64
        e 24 92 4d 00
        e 0 92 4c 64
        e 24 92 4c 00
        e 0 92 4a 64
        e 24 92 4a 00
        e 0 92 4d 64
        e 24 92 4d 00
        e 0 92 4c 64
        e 24 92 4c 00
        e 0 92 4a 64
        e 24 92 4a 00
        e 0 92 48 64
        e 24 92 48 00
        e 192 92 45 64
        e 24 92 45 00
        e 0 92 47 64
        e 24 92 47 00
        e 0 92 48 64
        e 24 92 48 00
        e 0 92 4a 64
        e 24 92 4a 00
        e 0 92 4c 64
        e 24 92 4c 00
        e 0 92 4d 64
        e 24 92 4d 00
        e 0 92 4c 64
        e 24 92 4c 00
        e 0 92 4a 64
        e 24 92 4a 00
        e 0 92 4c 64
        e 24 92 4c 00
        e 0 92 4a 64
        e 24 92 4a 00
        e 0 92 4c 64
        e 24 92 4c 00
        e 0 92 4a 64
        e 24 92 4a 00
        e 0 92 4c 64
        e 24 92 4c 00
        e 0 92 4a 64
        e 24 92 4a 00
        e 0 92 49 64
        e 24 92 49 00
        e 0 92 47 64
        e 24 92 47 00
        e 0 92 49 64
        e 383 92 49 00
        E 2689 b0 7b 00
        CCINTERP 32
        CHASE_CC_TAKEOFFS 1
        GUID {27B33C17-E596-4240-B4EF-03B5A51813D1}
        IGNTEMPO 0 120 4 4
        SRCCOLOR 359
        VELLANE -1 100 0
        CFGEDITVIEW -656.64 0.65169 45 12 0 -1 0 0 0 0.5
        KEYSNAP 0
        TRACKSEL -252
        EVTFILTER 0 -1 -1 -1 -1 0 0 0 0 -1 -1 -1 -1 0 -1 0 -1 -1
        CFGEDIT 1 1 0 1 0 4 1 1 1 1 1 0.25 0 164 1920 938 0 0 0 0 0 0 0 0 0 0.5 0 0 1 64
      >
    >
    <ITEM
      POSITION 1117.6901098900835
      SNAPOFFS 0
      LENGTH 24.46153846156471
      LOOP 1
      ALLTAKES 0
      FADEIN 1 0 0 1 0 0 0
      FADEOUT 1 0 0 1 0 0 0
      MUTE 0 0
      SEL 0
      IGUID {9A606EAA-230B-C846-AA32-D4B92861FC24}
      IID 89
      NAME "Oboe - hodie.mid"
      VOLPAN 1 0 1 -1
      SOFFS 0 0
      PLAYRATE 1 1 0 -1 0 0.0025
      CHANMODE 0
      GUID {3495ADAC-849F-A74B-B5B6-80581B76741F}
      <SOURCE MIDI
        HASDATA 1 96 QN
        CCINTERP 32
        POOLEDEVTS {2FF86D05-4FF5-7C4E-95F7-5742444F8B79}
        E 624 90 46 64
        E 144 90 46 00
        e 0 90 48 64
        e 48 90 48 00
        E 0 90 4a 64
        E 96 90 4a 00
        E 0 90 4d 64
        E 144 90 4d 00
        E 0 90 4b 64
        E 48 90 4b 00
        E 0 90 4a 64
        E 96 90 4a 00
        E 0 90 4b 64
        E 768 90 4b 00
        E 0 90 4a 64
        E 384 90 4a 00
        E 192 90 46 64
        E 48 90 46 00
        E 0 90 48 64
        E 48 90 48 00
        E 0 90 4a 64
        E 48 90 4a 00
        E 0 90 4b 64
        E 48 90 4b 00
        E 0 90 4d 64
        E 144 90 4d 00
        E 0 90 4b 64
        E 48 90 4b 00
        E 0 90 4a 64
        E 96 90 4a 00
        E 0 90 4a 64
        E 96 90 4a 00
        E 0 90 48 64
        E 384 90 48 00
        E 192 90 48 64
        E 96 90 48 00
        E 0 90 4d 64
        E 192 90 4d 00
        E 0 90 4c 64
        E 96 90 4c 00
        E 0 90 4d 64
        E 96 90 4d 00
        E 0 90 48 64
        E 96 90 48 00
        E 0 90 46 64
        E 96 90 46 00
        E 0 90 43 64
        E 96 90 43 00
        E 0 90 45 64
        E 96 90 45 00
        E 0 90 45 64
        E 96 90 45 00
        E 0 90 43 64
        E 96 90 43 00
        E 0 90 48 64
        E 96 90 48 00
        E 0 90 45 64
        E 192 90 45 00
        E 48 b0 7b 00
        CCINTERP 32
        CHASE_CC_TAKEOFFS 1
        GUID {0B938F3E-CF61-924F-9A68-9D5990247A9E}
        IGNTEMPO 0 120 4 4
        SRCCOLOR 266
        VELLANE -1 100 0
        CFGEDITVIEW 8419.162071 0.570402 48 12 0 -1 0 0 0 0.5
        KEYSNAP 0
        TRACKSEL -252
        EVTFILTER 0 -1 -1 -1 -1 0 0 0 0 -1 -1 -1 -1 0 -1 0 -1 -1
        CFGEDIT 1 1 0 1 0 0 1 1 1 1 1 0.125 137 336 1814 923 0 0 0 0 0 0 0 0 0 0.5 0 0 1 64
      >
    >
    <ITEM
      POSITION 1142.1516483516482
      SNAPOFFS 0
      LENGTH 193.38461538460524
      LOOP 1
      ALLTAKES 0
      FADEIN 1 0 0 1 0 0 0
      FADEOUT 1 0 0 1 0 0 0
      MUTE 0 0
      SEL 0
      IGUID {2E965B1B-B90B-454F-8140-ED3E581DBE89}
      IID 162
      NAME "Oboe - hodie.mid"
      VOLPAN 1 0 1 -1
      SOFFS 24.46153846156471 53.00000000005684
      PLAYRATE 1 1 0 -1 0 0.0025
      CHANMODE 0
      GUID {8D8378BF-849D-2C4C-B415-BC433B7DEAD4}
      <SOURCE MIDI
        HASDATA 1 96 QN
        CCINTERP 32
        POOLEDEVTS {FDF6E04E-9D39-9149-A878-08AF294FFD7D}
        E 624 90 46 64
        E 144 90 46 00
        e 0 90 48 64
        e 48 90 48 00
        E 0 90 4a 64
        E 96 90 4a 00
        E 0 90 4d 64
        E 144 90 4d 00
        E 0 90 4b 64
        E 48 90 4b 00
        E 0 90 4a 64
        E 96 90 4a 00
        E 0 90 4b 64
        E 768 90 4b 00
        E 0 90 4a 64
        E 384 90 4a 00
        E 192 90 46 64
        E 48 90 46 00
        E 0 90 48 64
        E 48 90 48 00
        E 0 90 4a 64
        E 48 90 4a 00
        E 0 90 4b 64
        E 48 90 4b 00
        E 0 90 4d 64
        E 144 90 4d 00
        E 0 90 4b 64
        E 48 90 4b 00
        E 0 90 4a 64
        E 96 90 4a 00
        E 0 90 4a 64
        E 96 90 4a 00
        E 0 90 48 64
        E 384 90 48 00
        E 192 90 48 64
        E 96 90 48 00
        E 0 90 4d 64
        E 192 90 4d 00
        E 0 90 4c 64
        E 96 90 4c 00
        E 0 90 4d 64
        E 96 90 4d 00
        E 0 90 48 64
        E 96 90 48 00
        E 0 90 46 64
        E 96 90 46 00
        E 0 90 43 64
        E 96 90 43 00
        E 0 90 45 64
        E 96 90 45 00
        E 0 90 45 64
        E 96 90 45 00
        E 0 90 43 64
        E 96 90 43 00
        E 0 90 48 64
        E 96 90 48 00
        E 0 90 45 64
        E 192 90 45 00
        E 672 90 4d 64
        E 144 90 4d 00
        E 0 90 4b 64
        E 48 90 4b 00
        E 0 90 4a 64
        E 96 90 4a 00
        E 0 90 46 64
        E 144 90 46 00
        E 0 90 48 64
        E 48 90 48 00
        E 0 90 4a 64
        E 96 90 4a 00
        E 96 90 4a 64
        E 96 90 4a 00
        E 0 90 4d 64
        E 192 90 4d 00
        E 0 90 4b 64
        E 96 90 4b 00
        E 0 90 48 64
        E 96 90 48 00
        E 0 90 4b 64
        E 96 90 4b 00
        E 0 90 4b 64
        E 96 90 4b 00
        E 0 90 4a 64
        E 192 90 4a 00
        E 96 90 4a 64
        E 96 90 4a 00
        E 0 90 46 64
        E 192 90 46 00
        E 0 90 43 64
        E 96 90 43 00
        E 0 90 43 64
        E 96 90 43 00
        E 0 90 48 64
        E 96 90 48 00
        E 0 90 48 64
        E 96 90 48 00
        E 0 90 45 64
        E 192 90 45 00
        E 480 90 41 64
        E 96 90 41 00
        E 0 90 4d 64
        E 192 90 4d 00
        E 0 90 4a 64
        E 96 90 4a 00
        E 0 90 46 64
        E 96 90 46 00
        E 0 90 4a 64
        E 96 90 4a 00
        E 0 90 4a 64
        E 96 90 4a 00
        E 0 90 48 64
        E 96 90 48 00
        E 0 90 45 64
        E 96 90 45 00
        E 0 90 46 64
        E 192 90 46 00
        E 0 90 4a 64
        E 96 90 4a 00
        E 0 90 4b 64
        E 96 90 4b 00
        E 0 90 4a 64
        E 96 90 4a 00
        E 0 90 4c 64
        E 96 90 4c 00
        E 0 90 4d 64
        E 192 90 4d 00
        E 288 90 48 64
        E 96 90 48 00
        E 0 90 4d 64
        E 48 90 4d 00
        E 0 90 4b 64
        E 48 90 4b 00
        E 0 90 4a 64
        E 48 90 4a 00
        E 0 90 48 64
        E 48 90 48 00
        E 0 90 46 64
        E 96 90 46 00
        E 0 90 48 64
        E 96 90 48 00
        E 0 90 4a 64
        E 192 90 4a 00
        E 96 90 4d 64
        E 96 90 4d 00
        E 0 90 4d 64
        E 48 90 4d 00
        E 0 90 4b 64
        E 48 90 4b 00
        E 0 90 4a 64
        E 48 90 4a 00
        E 0 90 48 64
        E 48 90 48 00
        E 0 90 46 64
        E 96 90 46 00
        E 0 90 48 64
        E 96 90 48 00
        E 0 90 4a 64
        E 96 90 4a 00
        E 0 90 4b 64
        E 96 90 4b 00
        E 0 90 4d 64
        E 96 90 4d 00
        E 0 90 4c 64
        E 96 90 4c 00
        E 0 90 4d 64
        E 192 90 4d 00
        E 96 90 48 64
        E 96 90 48 00
        E 0 90 4d 64
        E 48 90 4d 00
        E 0 90 4b 64
        E 48 90 4b 00
        E 0 90 4a 64
        E 48 90 4a 00
        E 0 90 48 64
        E 48 90 48 00
        E 0 90 46 64
        E 96 90 46 00
        E 0 90 48 64
        E 96 90 48 00
        E 0 90 41 64
        E 192 90 41 00
        E 672 90 46 64
        E 144 90 46 00
        E 0 90 48 64
        E 48 90 48 00
        E 0 90 4a 64
        E 96 90 4a 00
        E 0 90 4d 64
        E 144 90 4d 00
        E 0 90 4b 64
        E 48 90 4b 00
        E 0 90 4a 64
        E 96 90 4a 00
        E 0 90 46 64
        E 384 90 46 00
        E 0 90 41 64
        E 192 90 41 00
        E 0 90 41 64
        E 192 90 41 00
        E 0 90 43 64
        E 48 90 43 00
        E 0 90 41 64
        E 48 90 41 00
        E 0 90 43 64
        E 48 90 43 00
        E 0 90 45 64
        E 48 90 45 00
        E 0 90 46 64
        E 48 90 46 00
        E 0 90 45 64
        E 48 90 45 00
        E 0 90 46 64
        E 48 90 46 00
        E 0 90 43 64
        E 48 90 43 00
        E 0 90 45 64
        E 96 90 45 00
        E 0 90 46 64
        E 96 90 46 00
        E 0 90 46 64
        E 96 90 46 00
        E 0 90 45 64
        E 96 90 45 00
        E 0 90 46 64
        E 384 90 46 00
        E 192 90 4d 64
        E 192 90 4d 00
        E 0 90 46 64
        E 192 90 46 00
        E 0 90 46 64
        E 192 90 46 00
        E 192 90 4d 64
        E 144 90 4d 00
        E 0 90 4b 64
        E 48 90 4b 00
        E 0 90 4a 64
        E 48 90 4a 00
        E 0 90 48 64
        E 48 90 48 00
        E 0 90 4a 64
        E 48 90 4a 00
        E 0 90 4b 64
        E 48 90 4b 00
        E 0 90 4d 64
        E 48 90 4d 00
        E 0 90 4b 64
        E 48 90 4b 00
        E 0 90 4d 64
        E 48 90 4d 00
        E 0 90 4b 64
        E 48 90 4b 00
        E 0 90 4c 64
        E 96 90 4c 00
        E 0 90 4d 64
        E 96 90 4d 00
        E 0 90 4d 64
        E 96 90 4d 00
        E 0 90 4c 64
        E 96 90 4c 00
        E 0 90 4d 64
        E 192 90 4d 00
        E 0 90 46 64
        E 96 90 46 00
        E 0 90 48 64
        E 144 90 48 00
        E 0 90 46 64
        E 48 90 46 00
        E 0 90 48 64
        E 96 90 48 00
        E 0 90 4a 64
        E 192 90 4a 00
        E 0 90 4c 64
        E 96 90 4c 00
        E 0 90 4d 64
        E 192 90 4d 00
        E 288 90 46 64
        E 96 90 46 00
        E 0 90 48 64
        E 144 90 48 00
        E 0 90 46 64
        E 48 90 46 00
        E 0 90 48 64
        E 96 90 48 00
        E 0 90 46 64
        E 192 90 46 00
        E 0 90 48 64
        E 96 90 48 00
        E 0 90 4a 64
        E 288 90 4a 00
        E 192 90 43 64
        E 96 90 43 00
        E 0 90 45 64
        E 144 90 45 00
        E 0 90 43 64
        E 48 90 43 00
        E 0 90 45 64
        E 96 90 45 00
        E 0 90 46 64
        E 192 90 46 00
        E 0 90 48 64
        E 96 90 48 00
        E 0 90 4a 64
        E 192 90 4a 00
        E 0 90 4a 64
        E 96 90 4a 00
        E 0 90 4b 64
        E 192 90 4b 00
        E 0 90 4d 64
        E 96 90 4d 00
        E 0 90 4f 64
        E 96 90 4f 00
        E 0 90 4f 64
        E 96 90 4f 00
        E 0 90 4b 64
        E 96 90 4b 00
        E 0 90 4a 64
        E 96 90 4a 00
        E 0 90 48 64
        E 96 90 48 00
        E 0 90 4f 64
        E 96 90 4f 00
        E 0 90 4b 64
        E 96 90 4b 00
        E 0 90 4a 64
        E 96 90 4a 00
        E 0 90 48 64
        E 96 90 48 00
        E 0 90 4f 64
        E 96 90 4f 00
        E 0 90 4b 64
        E 96 90 4b 00
        E 0 90 48 64
        E 96 90 48 00
        E 0 90 46 64
        E 96 90 46 00
        E 0 90 4d 64
        E 96 90 4d 00
        E 0 90 4a 64
        E 96 90 4a 00
        E 0 90 48 64
        E 96 90 48 00
        E 0 90 46 64
        E 96 90 46 00
        E 0 90 4a 64
        E 96 90 4a 00
        E 0 90 48 64
        E 192 90 48 00
        E 672 90 4d 64
        E 144 90 4d 00
        E 0 90 4b 64
        E 48 90 4b 00
        E 0 90 4a 64
        E 96 90 4a 00
        E 0 90 46 64
        E 144 90 46 00
        E 0 90 48 64
        E 48 90 48 00
        E 0 90 4a 64
        E 96 90 4a 00
        E 48 90 46 64
        E 96 90 46 00
        E 0 90 46 64
        E 96 90 46 00
        E 0 90 45 64
        E 96 90 45 00
        E 0 90 46 64
        E 192 90 46 00
        E 0 90 46 64
        E 96 90 46 00
        E 0 90 4a 64
        E 96 90 4a 00
        E 0 90 4d 64
        E 96 90 4d 00
        E 0 90 48 64
        E 96 90 48 00
        E 0 90 4a 64
        E 192 90 4a 00
        E 0 90 4a 64
        E 96 90 4a 00
        E 0 90 4a 64
        E 96 90 4a 00
        E 0 90 48 64
        E 192 90 48 00
        E 0 90 4a 64
        E 192 90 4a 00
        E 384 90 4d 64
        E 96 90 4d 00
        E 0 90 4b 64
        E 96 90 4b 00
        E 0 90 4a 64
        E 96 90 4a 00
        E 0 90 4b 64
        E 96 90 4b 00
        E 0 90 4d 64
        E 96 90 4d 00
        E 0 90 4b 64
        E 96 90 4b 00
        E 0 90 4a 64
        E 96 90 4a 00
        E 0 90 48 64
        E 96 90 48 00
        E 0 90 46 64
        E 192 90 46 00
        E 0 90 46 64
        E 192 90 46 00
        E 0 90 46 64
        E 384 90 46 00
        E 0 90 4a 64
        E 192 90 4a 00
        E 0 90 4a 64
        E 192 90 4a 00
        E 0 90 4a 64
        E 384 90 4a 00
        E 0 90 4b 64
        E 96 90 4b 00
        E 0 90 4d 64
        E 96 90 4d 00
        E 0 90 4f 64
        E 96 90 4f 00
        E 0 90 4d 64
        E 96 90 4d 00
        E 0 90 4b 64
        E 192 90 4b 00
        E 0 90 4a 64
        E 192 90 4a 00
        E 768 90 4b 64
        E 96 90 4b 00
        E 0 90 4d 64
        E 96 90 4d 00
        E 0 90 4f 64
        E 96 90 4f 00
        E 0 90 4d 64
        E 96 90 4d 00
        E 0 90 4b 64
        E 96 90 4b 00
        E 0 90 4a 64
        E 96 90 4a 00
        E 0 90 48 64
        E 288 90 48 00
        E 0 90 47 64
        E 48 90 47 00
        E 0 90 45 64
        E 48 90 45 00
        E 0 90 47 64
        E 192 90 47 00
        E 0 90 48 64
        E 768 90 48 00
        E 384 90 45 64
        E 96 90 45 00
        E 0 90 43 64
        E 96 90 43 00
        E 0 90 41 64
        E 96 90 41 00
        E 0 90 43 64
        E 96 90 43 00
        E 0 90 45 64
        E 96 90 45 00
        E 0 90 43 64
        E 96 90 43 00
        E 0 90 45 64
        E 96 90 45 00
        E 0 90 46 64
        E 96 90 46 00
        E 0 90 48 64
        E 192 90 48 00
        E 0 90 4a 64
        E 192 90 4a 00
        E 0 90 48 64
        E 192 90 48 00
        E 0 90 4a 64
        E 288 90 4a 00
        E 0 90 4b 64
        E 96 90 4b 00
        E 0 90 4d 64
        E 96 90 4d 00
        E 0 90 4b 64
        E 96 90 4b 00
        E 0 90 4a 64
        E 192 90 4a 00
        E 0 90 46 64
        E 96 90 46 00
        E 0 90 45 64
        E 48 90 45 00
        E 0 90 43 64
        E 48 90 43 00
        E 0 90 41 64
        E 384 90 41 00
        E 384 90 4a 64
        E 96 90 4a 00
        E 0 90 4b 64
        E 96 90 4b 00
        E 0 90 4d 64
        E 96 90 4d 00
        E 0 90 4b 64
        E 96 90 4b 00
        E 0 90 4a 64
        E 192 90 4a 00
        E 0 90 48 64
        E 96 90 48 00
        E 0 90 4d 64
        E 96 90 4d 00
        E 0 90 4a 64
        E 96 90 4a 00
        E 0 90 4c 64
        E 96 90 4c 00
        E 0 90 4d 64
        E 192 90 4d 00
        E 288 90 4a 64
        E 96 90 4a 00
        E 0 90 48 64
        E 96 90 48 00
        E 0 90 46 64
        E 96 90 46 00
        E 0 90 43 64
        E 96 90 43 00
        E 0 90 45 64
        E 96 90 45 00
        E 0 90 46 64
        E 144 90 46 00
        E 0 90 45 64
        E 24 90 45 00
        E 0 90 43 64
        E 24 90 43 00
        E 0 90 45 64
        E 96 90 45 00
        E 0 90 48 64
        E 96 90 48 00
        E 0 90 45 64
        E 96 90 45 00
        E 0 90 46 64
        E 96 90 46 00
        E 0 90 48 64
        E 96 90 48 00
        E 0 90 4d 64
        E 96 90 4d 00
        E 0 90 4d 64
        E 96 90 4d 00
        E 0 90 4b 64
        E 96 90 4b 00
        E 0 90 48 64
        E 96 90 48 00
        E 0 90 4a 64
        E 96 90 4a 00
        E 0 90 4b 64
        E 192 90 4b 00
        E 96 90 4a 64
        E 96 90 4a 00
        E 0 90 4b 64
        E 96 90 4b 00
        E 0 90 48 64
        E 96 90 48 00
        E 0 90 47 64
        E 192 90 47 00
        E 288 90 4a 64
        E 96 90 4a 00
        E 0 90 4b 64
        E 96 90 4b 00
        E 0 90 48 64
        E 96 90 48 00
        E 0 90 4a 64
        E 96 90 4a 00
        E 0 90 46 64
        E 96 90 46 00
        E 0 90 45 64
        E 192 90 45 00
        E 288 90 46 64
        E 96 90 46 00
        E 0 90 43 64
        E 96 90 43 00
        E 0 90 45 64
        E 96 90 45 00
        E 0 90 46 64
        E 192 90 46 00
        E 96 90 4d 64
        E 96 90 4d 00
        E 0 90 4d 64
        E 96 90 4d 00
        E 0 90 4a 64
        E 96 90 4a 00
        E 0 90 4b 64
        E 96 90 4b 00
        E 0 90 48 64
        E 96 90 48 00
        E 0 90 46 64
        E 96 90 46 00
        E 0 90 46 64
        E 96 90 46 00
        E 0 90 43 64
        E 96 90 43 00
        E 0 90 45 64
        E 96 90 45 00
        E 0 90 46 64
        E 192 90 46 00
        E 96 90 4d 64
        E 96 90 4d 00
        E 0 90 4d 64
        E 96 90 4d 00
        E 0 90 4a 64
        E 96 90 4a 00
        E 0 90 4d 64
        E 96 90 4d 00
        E 0 90 4a 64
        E 96 90 4a 00
        E 0 90 46 64
        E 192 90 46 00
        E 96 90 4d 64
        E 96 90 4d 00
        E 0 90 4f 64
        E 96 90 4f 00
        E 0 90 4b 64
        E 96 90 4b 00
        E 0 90 4d 64
        E 96 90 4d 00
        E 0 90 4a 64
        E 96 90 4a 00
        E 0 90 46 64
        E 192 90 46 00
        E 96 90 4b 64
        E 96 90 4b 00
        E 0 90 4a 64
        E 383 90 4a 00
        E 1 b0 7b 00
        CCINTERP 32
        CHASE_CC_TAKEOFFS 1
        GUID {11362EA3-7F79-304A-8F26-A08C1E77C85A}
        IGNTEMPO 0 120 4 4
        SRCCOLOR 403
        VELLANE -1 100 0
        CFGEDITVIEW 0 0.570402 48 12 0 -1 0 0 0 0.5
        KEYSNAP 0
        TRACKSEL -252
        EVTFILTER 0 -1 -1 -1 -1 0 0 0 0 -1 -1 -1 -1 0 -1 0 -1 -1
        CFGEDIT 1 1 0 1 0 0 1 1 1 1 1 0.125 137 336 1814 923 0 0 0 0 0 0 0 0 0 0.5 0 0 1 64
      >
    >
    <ITEM
      POSITION 1361.3824175824175
      SNAPOFFS 0
      LENGTH 14.76923076923072
      LOOP 1
      ALLTAKES 0
      FADEIN 1 0 0 1 0 0 0
      FADEOUT 1 0 0 1 0 0 0
      MUTE 0 0
      SEL 0
      IGUID {CAE51D95-3FC3-FD48-B61C-69CC020DBB06}
      IID 205
      NAME i1.MID
      VOLPAN 1 0 1 -1
      SOFFS 0 0
      PLAYRATE 1 1 0 -1 0 0.0025
      CHANMODE 0
      GUID {710478D2-78C5-CC45-BE4C-974C6B433B72}
      <SOURCE MIDI
        HASDATA 1 960 QN
        CCINTERP 32
        POOLEDEVTS {3A04959D-E177-4F4B-902C-C8E33360B466}
        E 0 90 41 64
        E 1440 90 41 00
        E 0 90 3f 64
        E 480 90 3f 00
        E 0 90 3e 64
        E 960 90 3e 00
        E 0 90 3a 64
        E 1440 90 3a 00
        E 0 90 3c 64
        E 480 90 3c 00
        E 0 90 3e 64
        E 960 90 3e 00
        E 480 90 4d 64
        E 0 90 46 64
        E 0 90 3e 64
        E 0 90 3a 64
        E 1440 90 4d 00
        E 0 90 46 00
        E 0 90 3e 00
        E 0 90 3a 00
        E 0 90 4b 64
        E 0 90 43 64
        E 0 90 3f 64
        E 0 90 3c 64
        E 480 90 4b 00
        E 0 90 43 00
        E 0 90 3f 00
        E 0 90 3c 00
        E 0 90 4a 64
        E 0 90 46 64
        E 0 90 41 64
        E 0 90 3e 64
        E 960 90 4a 00
        E 0 90 46 00
        E 0 90 41 00
        E 0 90 3e 00
        E 0 90 46 64
        E 0 90 43 64
        E 0 90 3f 64
        E 1440 90 46 00
        E 0 90 43 00
        E 0 90 3f 00
        E 0 90 48 64
        E 0 90 43 64
        E 0 90 3f 64
        E 0 90 3c 64
        E 480 90 48 00
        E 0 90 43 00
        E 0 90 3f 00
        E 0 90 3c 00
        E 0 90 4a 64
        E 0 90 46 64
        E 0 90 41 64
        E 0 90 3a 64
        E 960 90 4a 00
        E 0 90 46 00
        E 0 90 41 00
        E 0 90 3a 00
        e 0 90 2e 64
        e 18240 80 2e 00
        E 480 b0 7b 00
        CCINTERP 32
        CHASE_CC_TAKEOFFS 1
        GUID {CBEFDC6C-0560-304B-8EF3-CCF6364D0C55}
        IGNTEMPO 0 120 4 4
        SRCCOLOR 447
        VELLANE -1 100 0
        CFGEDITVIEW -767.242859 0.05195 50 12 0 -1 0 0 0 0.5
        KEYSNAP 0
        TRACKSEL -252
        EVTFILTER 0 -1 -1 -1 -1 0 0 0 0 -1 -1 -1 -1 0 -1 0 -1 -1
        CFGEDIT 1 1 0 1 0 0 1 1 1 1 1 0.25 16 211 1920 969 0 0 0 0 0 0 0 0 0 0.5 0 0 1 64
      >
    >
  >
  <TRACK {8E83B6DA-E801-224A-BE7F-FF6BCD65B090}
    NAME Soprano
    PEAKCOL 16576
    BEAT -1
    AUTOMODE 0
    VOLPAN 1 0 -1 -1 1
    MUTESOLO 0 0 0
    IPHASE 0
    PLAYOFFS 0 1
    ISBUS 0 0
    BUSCOMP 0 0 0 0 0
    SHOWINMIX 1 0.6667 0.5 1 0.5 -1 -1 -1
    FREEMODE 0
    SEL 1
    REC 0 0 1 0 0 0 0
    VU 2
    TRACKHEIGHT 0 0 0 0 0 0
    INQ 0 0 0 0.5 100 0 0 100
    NCHAN 2
    FX 1
    TRACKID {8E83B6DA-E801-224A-BE7F-FF6BCD65B090}
    PERF 0
    MIDIOUT 0
    MAINSEND 1 0
    <ITEM
      POSITION 1117.6901098900835
      SNAPOFFS 0
      LENGTH 50.76923076925686
      LOOP 1
      ALLTAKES 0
      FADEIN 1 0 0 1 0 0 0
      FADEOUT 1 0 0 1 0 0 0
      MUTE 0 0
      SEL 0
      IGUID {58D91F9C-E48B-2D4D-B9FA-E2EA8925E15E}
      IID 90
      NAME "Clarinet - hodie.mid"
      VOLPAN 1 0 1 -1
      SOFFS 0 0
      PLAYRATE 1 1 0 -1 0 0.0025
      CHANMODE 0
      GUID {81B97344-67C5-F941-B228-C52AE060B5B6}
      <SOURCE MIDI
        HASDATA 1 96 QN
        CCINTERP 32
        POOLEDEVTS {332198CA-4F21-A34B-829E-E7A4CE3FB9B7}
        E 624 90 41 64
        E 144 90 41 00
        E 0 90 41 64
        E 48 90 41 00
        E 0 90 46 64
        E 96 90 46 00
        E 0 90 45 64
        E 144 90 45 00
        E 0 90 43 64
        E 48 90 43 00
        E 0 90 46 64
        E 96 90 46 00
        E 0 90 46 64
        E 768 90 46 00
        E 0 90 46 64
        E 192 90 46 00
        E 0 90 46 64
        E 48 90 46 00
        E 0 90 48 64
        E 48 90 48 00
        E 0 90 4a 64
        E 48 90 4a 00
        E 0 90 4b 64
        E 48 90 4b 00
        E 0 90 4d 64
        E 144 90 4d 00
        E 0 90 4b 64
        E 48 90 4b 00
        E 0 90 4a 64
        E 144 90 4a 00
        E 0 90 48 64
        E 48 90 48 00
        E 0 90 46 64
        E 96 90 46 00
        E 0 90 46 64
        E 96 90 46 00
        E 0 90 46 64
        E 288 90 46 00
        E 0 90 45 64
        E 48 90 45 00
        E 0 90 43 64
        E 48 90 43 00
        E 0 90 45 64
        E 96 90 45 00
        E 0 90 45 64
        E 96 90 45 00
        E 0 90 43 64
        E 96 90 43 00
        E 0 90 48 64
        E 96 90 48 00
        E 0 90 45 64
        E 192 90 45 00
        E 192 90 48 64
        E 96 90 48 00
        E 0 90 4d 64
        E 192 90 4d 00
        E 0 90 4c 64
        E 96 90 4c 00
        E 0 90 4d 64
        E 96 90 4d 00
        E 0 90 48 64
        E 96 90 48 00
        E 0 90 48 64
        E 96 90 48 00
        E 0 90 43 64
        E 96 90 43 00
        E 0 90 41 64
        E 192 90 41 00
        E 672 90 46 64
        E 144 90 46 00
        E 0 90 43 64
        E 48 90 43 00
        E 0 90 46 64
        E 96 90 46 00
        E 0 90 46 64
        E 144 90 46 00
        E 0 90 43 64
        E 48 90 43 00
        E 0 90 46 64
        E 96 90 46 00
        E 96 90 46 64
        E 96 90 46 00
        E 0 90 4a 64
        E 192 90 4a 00
        E 0 90 48 64
        E 96 90 48 00
        E 0 90 43 64
        E 96 90 43 00
        E 0 90 48 64
        E 96 90 48 00
        E 0 90 48 64
        E 96 90 48 00
        E 0 90 45 64
        E 96 90 45 00
        E 0 90 45 64
        E 96 90 45 00
        E 0 90 46 64
        E 192 90 46 00
        E 0 90 43 64
        E 96 90 43 00
        E 0 90 43 64
        E 96 90 43 00
        E 0 90 46 64
        E 96 90 46 00
        E 0 90 46 64
        E 96 90 46 00
        e 0 90 45 64
        e 192 90 45 00
        E 96 90 45 64
        E 96 90 45 00
        E 0 90 46 64
        E 192 90 46 00
        E 0 90 43 64
        E 96 90 43 00
        E 0 90 46 64
        E 96 90 46 00
        E 0 90 48 64
        E 96 90 48 00
        E 0 90 48 64
        E 96 90 48 00
        E 0 90 41 64
        E 192 90 41 00
        E 96 90 41 64
        E 96 90 41 00
        E 0 90 46 64
        E 96 90 46 00
        E 0 90 46 64
        E 96 90 46 00
        E 0 90 45 64
        E 96 90 45 00
        E 0 90 48 64
        E 96 90 48 00
        E 0 90 4a 64
        E 192 90 4a 00
        E 0 90 46 64
        E 96 90 46 00
        E 0 90 43 64
        E 96 90 43 00
        E 0 90 46 64
        E 96 90 46 00
        E 0 90 46 64
        E 96 90 46 00
        E 0 90 45 64
        E 192 90 45 00
        E 240 b0 7b 00
        CCINTERP 32
        CHASE_CC_TAKEOFFS 1
        GUID {96208F2C-3291-9645-BC75-F895393AF44D}
        IGNTEMPO 0 120 4 4
        SRCCOLOR 267
        VELLANE -1 100 0
        CFGEDITVIEW 4468.095168 0.296392 48 12 0 -1 0 0 0 0.5
        KEYSNAP 0
        TRACKSEL -252
        EVTFILTER 0 -1 -1 -1 -1 0 0 0 0 -1 -1 -1 -1 0 -1 0 -1 -1
        CFGEDIT 1 1 0 1 0 0 1 1 1 1 1 0.125 259 283 1920 854 0 0 0 0 0 0 0 0 0 0.5 0 0 1 64
      >
    >
    <ITEM
      POSITION 1168.4593406593403
      SNAPOFFS 0
      LENGTH 4.61538461538476
      LOOP 1
      ALLTAKES 0
      FADEIN 1 0 0 1 0 0 0
      FADEOUT 1 0 0 1 0 0 0
      MUTE 0 0
      SEL 0
      IGUID {EBD9D2F1-B772-9E4F-91E8-118F3917F732}
      IID 207
      NAME "Clarinet - hodie.mid"
      VOLPAN 1 0 1 -1
      SOFFS 50.76923076925686 110.00000000005662
      PLAYRATE 1 1 0 -1 0 0.0025
      CHANMODE 0
      GUID {A5BE0CC7-8C67-1044-AE03-4016B6DBF5A7}
      <SOURCE MIDI
        HASDATA 1 96 QN
        CCINTERP 32
        POOLEDEVTS {655A3186-2B9A-2947-834E-9D281A5A9449}
        E 624 90 41 64
        E 144 90 41 00
        E 0 90 41 64
        E 48 90 41 00
        E 0 90 46 64
        E 96 90 46 00
        E 0 90 45 64
        E 144 90 45 00
        E 0 90 43 64
        E 48 90 43 00
        E 0 90 46 64
        E 96 90 46 00
        E 0 90 46 64
        E 768 90 46 00
        E 0 90 46 64
        E 192 90 46 00
        E 0 90 46 64
        E 48 90 46 00
        E 0 90 48 64
        E 48 90 48 00
        E 0 90 4a 64
        E 48 90 4a 00
        E 0 90 4b 64
        E 48 90 4b 00
        E 0 90 4d 64
        E 144 90 4d 00
        E 0 90 4b 64
        E 48 90 4b 00
        E 0 90 4a 64
        E 144 90 4a 00
        E 0 90 48 64
        E 48 90 48 00
        E 0 90 46 64
        E 96 90 46 00
        E 0 90 46 64
        E 96 90 46 00
        E 0 90 46 64
        E 288 90 46 00
        E 0 90 45 64
        E 48 90 45 00
        E 0 90 43 64
        E 48 90 43 00
        E 0 90 45 64
        E 96 90 45 00
        E 0 90 45 64
        E 96 90 45 00
        E 0 90 43 64
        E 96 90 43 00
        E 0 90 48 64
        E 96 90 48 00
        E 0 90 45 64
        E 192 90 45 00
        E 192 90 48 64
        E 96 90 48 00
        E 0 90 4d 64
        E 192 90 4d 00
        E 0 90 4c 64
        E 96 90 4c 00
        E 0 90 4d 64
        E 96 90 4d 00
        E 0 90 48 64
        E 96 90 48 00
        E 0 90 48 64
        E 96 90 48 00
        E 0 90 43 64
        E 96 90 43 00
        E 0 90 41 64
        E 192 90 41 00
        E 672 90 46 64
        E 144 90 46 00
        E 0 90 43 64
        E 48 90 43 00
        E 0 90 46 64
        E 96 90 46 00
        E 0 90 46 64
        E 144 90 46 00
        E 0 90 43 64
        E 48 90 43 00
        E 0 90 46 64
        E 96 90 46 00
        E 96 90 46 64
        E 96 90 46 00
        E 0 90 4a 64
        E 192 90 4a 00
        E 0 90 48 64
        E 96 90 48 00
        E 0 90 43 64
        E 96 90 43 00
        E 0 90 48 64
        E 96 90 48 00
        E 0 90 48 64
        E 96 90 48 00
        E 0 90 45 64
        E 96 90 45 00
        E 0 90 45 64
        E 96 90 45 00
        E 0 90 46 64
        E 192 90 46 00
        E 0 90 43 64
        E 96 90 43 00
        E 0 90 43 64
        E 96 90 43 00
        E 0 90 46 64
        E 96 90 46 00
        E 0 90 46 64
        E 96 90 46 00
        e 0 90 45 64
        e 192 90 45 00
        E 96 90 45 64
        E 96 90 45 00
        E 0 90 46 64
        E 192 90 46 00
        E 0 90 43 64
        E 96 90 43 00
        E 0 90 46 64
        E 96 90 46 00
        E 0 90 48 64
        E 96 90 48 00
        E 0 90 48 64
        E 96 90 48 00
        E 0 90 41 64
        E 192 90 41 00
        E 96 90 41 64
        E 96 90 41 00
        E 0 90 46 64
        E 96 90 46 00
        E 0 90 46 64
        E 96 90 46 00
        E 0 90 45 64
        E 96 90 45 00
        E 0 90 48 64
        E 96 90 48 00
        E 0 90 4a 64
        E 192 90 4a 00
        E 0 90 46 64
        E 96 90 46 00
        E 0 90 43 64
        E 96 90 43 00
        E 0 90 46 64
        E 96 90 46 00
        E 0 90 46 64
        E 96 90 46 00
        E 0 90 45 64
        E 192 90 45 00
        E 288 90 4d 64
        E 96 90 4d 00
        E 0 90 4a 64
        E 48 90 4a 00
        E 0 90 48 64
        E 48 90 48 00
        E 0 90 46 64
        E 48 90 46 00
        E 0 90 45 64
        E 48 90 45 00
        E 0 90 43 64
        E 96 90 43 00
        E 0 90 45 64
        E 96 90 45 00
        E 0 90 46 64
        E 96 90 46 00
        E 0 90 4a 64
        E 96 90 4a 00
        E 0 90 4b 64
        E 96 90 4b 00
        E 0 90 48 64
        E 96 90 48 00
        E 0 90 46 64
        E 48 80 46 00
        E 0 b0 7b 00
        CCINTERP 32
        CHASE_CC_TAKEOFFS 1
        GUID {5CF8F695-A56E-E149-9574-8D6AC103D72E}
        IGNTEMPO 0 120 4 4
        SRCCOLOR 450
        VELLANE -1 100 0
        CFGEDITVIEW 0 0.296392 48 12 0 -1 0 0 0 0.5
        KEYSNAP 0
        TRACKSEL -252
        EVTFILTER 0 -1 -1 -1 -1 0 0 0 0 -1 -1 -1 -1 0 -1 0 -1 -1
        CFGEDIT 1 1 0 1 0 0 1 1 1 1 1 0.125 259 283 1920 854 0 0 0 0 0 0 0 0 0 0.5 0 0 1 64
      >
    >
    <ITEM
      POSITION 1173.0747252747251
      SNAPOFFS 0
      LENGTH 162.46153846152833
      LOOP 1
      ALLTAKES 0
      FADEIN 1 0 0 1 0 0 0
      FADEOUT 1 0 0 1 0 0 0
      MUTE 0 0
      SEL 0
      IGUID {FB4D8ABD-193E-6843-AC98-9487874999F8}
      IID 208
      NAME "Clarinet - hodie.mid"
      VOLPAN 1 0 1 -1
      SOFFS 55.38461538464162 120.00000000005684
      PLAYRATE 1 1 0 -1 0 0.0025
      CHANMODE 0
      GUID {07342D81-F25F-A244-AFDC-4378C02AA0A9}
      <SOURCE MIDI
        HASDATA 1 96 QN
        CCINTERP 32
        POOLEDEVTS {FD7C5A3B-3A6F-9548-AAC5-9919218467BD}
        E 624 90 41 64
        E 144 90 41 00
        E 0 90 41 64
        E 48 90 41 00
        E 0 90 46 64
        E 96 90 46 00
        E 0 90 45 64
        E 144 90 45 00
        E 0 90 43 64
        E 48 90 43 00
        E 0 90 46 64
        E 96 90 46 00
        E 0 90 46 64
        E 768 90 46 00
        E 0 90 46 64
        E 192 90 46 00
        E 0 90 46 64
        E 48 90 46 00
        E 0 90 48 64
        E 48 90 48 00
        E 0 90 4a 64
        E 48 90 4a 00
        E 0 90 4b 64
        E 48 90 4b 00
        E 0 90 4d 64
        E 144 90 4d 00
        E 0 90 4b 64
        E 48 90 4b 00
        E 0 90 4a 64
        E 144 90 4a 00
        E 0 90 48 64
        E 48 90 48 00
        E 0 90 46 64
        E 96 90 46 00
        E 0 90 46 64
        E 96 90 46 00
        E 0 90 46 64
        E 288 90 46 00
        E 0 90 45 64
        E 48 90 45 00
        E 0 90 43 64
        E 48 90 43 00
        E 0 90 45 64
        E 96 90 45 00
        E 0 90 45 64
        E 96 90 45 00
        E 0 90 43 64
        E 96 90 43 00
        E 0 90 48 64
        E 96 90 48 00
        E 0 90 45 64
        E 192 90 45 00
        E 192 90 48 64
        E 96 90 48 00
        E 0 90 4d 64
        E 192 90 4d 00
        E 0 90 4c 64
        E 96 90 4c 00
        E 0 90 4d 64
        E 96 90 4d 00
        E 0 90 48 64
        E 96 90 48 00
        E 0 90 48 64
        E 96 90 48 00
        E 0 90 43 64
        E 96 90 43 00
        E 0 90 41 64
        E 192 90 41 00
        E 672 90 46 64
        E 144 90 46 00
        E 0 90 43 64
        E 48 90 43 00
        E 0 90 46 64
        E 96 90 46 00
        E 0 90 46 64
        E 144 90 46 00
        E 0 90 43 64
        E 48 90 43 00
        E 0 90 46 64
        E 96 90 46 00
        E 96 90 46 64
        E 96 90 46 00
        E 0 90 4a 64
        E 192 90 4a 00
        E 0 90 48 64
        E 96 90 48 00
        E 0 90 43 64
        E 96 90 43 00
        E 0 90 48 64
        E 96 90 48 00
        E 0 90 48 64
        E 96 90 48 00
        E 0 90 45 64
        E 96 90 45 00
        E 0 90 45 64
        E 96 90 45 00
        E 0 90 46 64
        E 192 90 46 00
        E 0 90 43 64
        E 96 90 43 00
        E 0 90 43 64
        E 96 90 43 00
        E 0 90 46 64
        E 96 90 46 00
        E 0 90 46 64
        E 96 90 46 00
        e 0 90 45 64
        e 192 90 45 00
        E 96 90 45 64
        E 96 90 45 00
        E 0 90 46 64
        E 192 90 46 00
        E 0 90 43 64
        E 96 90 43 00
        E 0 90 46 64
        E 96 90 46 00
        E 0 90 48 64
        E 96 90 48 00
        E 0 90 48 64
        E 96 90 48 00
        E 0 90 41 64
        E 192 90 41 00
        E 96 90 41 64
        E 96 90 41 00
        E 0 90 46 64
        E 96 90 46 00
        E 0 90 46 64
        E 96 90 46 00
        E 0 90 45 64
        E 96 90 45 00
        E 0 90 48 64
        E 96 90 48 00
        E 0 90 4a 64
        E 192 90 4a 00
        E 0 90 46 64
        E 96 90 46 00
        E 0 90 43 64
        E 96 90 43 00
        E 0 90 46 64
        E 96 90 46 00
        E 0 90 46 64
        E 96 90 46 00
        E 0 90 45 64
        E 192 90 45 00
        E 288 90 4d 64
        E 96 90 4d 00
        E 0 90 4a 64
        E 48 90 4a 00
        E 0 90 48 64
        E 48 90 48 00
        E 0 90 46 64
        E 48 90 46 00
        E 0 90 45 64
        E 48 90 45 00
        E 0 90 43 64
        E 96 90 43 00
        E 0 90 45 64
        E 96 90 45 00
        E 0 90 46 64
        E 96 90 46 00
        E 0 90 4a 64
        E 96 90 4a 00
        E 0 90 4b 64
        E 96 90 4b 00
        E 0 90 48 64
        E 96 90 48 00
        E 0 90 46 64
        E 192 90 46 00
        E 0 90 4a 64
        E 96 90 4a 00
        E 0 90 4d 64
        E 48 90 4d 00
        E 0 90 4b 64
        E 48 90 4b 00
        E 0 90 4a 64
        E 48 90 4a 00
        E 0 90 48 64
        E 48 90 48 00
        E 0 90 4a 64
        E 192 90 4a 00
        E 0 90 48 64
        E 96 90 48 00
        E 0 90 45 64
        E 96 90 45 00
        E 0 90 45 64
        E 96 90 45 00
        E 0 90 46 64
        E 96 90 46 00
        E 0 90 43 64
        E 96 90 43 00
        E 0 90 45 64
        E 96 90 45 00
        E 0 90 4d 64
        E 96 90 4d 00
        E 0 90 4b 64
        E 96 90 4b 00
        E 0 90 4b 64
        E 96 90 4b 00
        E 0 90 4a 64
        E 192 90 4a 00
        E 672 90 41 64
        E 144 90 41 00
        E 0 90 41 64
        E 48 90 41 00
        E 0 90 46 64
        E 96 90 46 00
        E 0 90 45 64
        E 144 90 45 00
        E 0 90 43 64
        E 48 90 43 00
        E 0 90 46 64
        E 96 90 46 00
        E 0 90 41 64
        E 384 90 41 00
        E 0 90 3e 64
        E 192 90 3e 00
        E 0 90 3e 64
        E 192 90 3e 00
        E 576 90 41 64
        E 192 90 41 00
        E 0 90 3e 64
        E 192 90 3e 00
        E 0 90 3e 64
        E 96 90 3e 00
        E 0 90 46 64
        E 96 90 46 00
        E 0 90 41 64
        E 192 90 41 00
        E 0 90 41 64
        E 192 90 41 00
        E 0 90 43 64
        E 48 90 43 00
        E 0 90 41 64
        E 48 90 41 00
        E 0 90 43 64
        E 48 90 43 00
        E 0 90 45 64
        E 48 90 45 00
        E 0 90 46 64
        E 48 90 46 00
        E 0 90 45 64
        E 48 90 45 00
        E 0 90 46 64
        E 48 90 46 00
        E 0 90 43 64
        E 48 90 43 00
        E 0 90 45 64
        E 96 90 45 00
        E 0 90 46 64
        E 96 90 46 00
        E 0 90 46 64
        E 96 90 46 00
        E 0 90 45 64
        E 96 90 45 00
        E 0 90 46 64
        E 96 90 46 00
        E 0 90 46 64
        E 96 90 46 00
        E 0 90 46 64
        E 96 90 46 00
        E 0 90 41 64
        E 96 90 41 00
        E 0 90 48 64
        E 96 90 48 00
        E 0 90 47 64
        E 96 90 47 00
        E 0 90 48 64
        E 96 90 48 00
        E 0 90 48 64
        E 96 90 48 00
        E 0 90 45 64
        E 144 90 45 00
        E 0 90 43 64
        E 48 90 43 00
        E 0 90 41 64
        E 96 90 41 00
        E 480 90 46 64
        E 96 90 46 00
        E 0 90 48 64
        E 144 90 48 00
        E 0 90 46 64
        E 48 90 46 00
        E 0 90 48 64
        E 96 90 48 00
        E 0 90 4a 64
        E 192 90 4a 00
        E 0 90 4c 64
        E 96 90 4c 00
        E 0 90 4d 64
        E 288 90 4d 00
        E 192 90 43 64
        E 96 90 43 00
        E 0 90 45 64
        E 144 90 45 00
        E 0 90 43 64
        E 48 90 43 00
        E 0 90 45 64
        E 96 90 45 00
        E 0 90 46 64
        E 192 90 46 00
        E 0 90 48 64
        E 96 90 48 00
        E 0 90 4a 64
        E 192 90 4a 00
        E 0 90 4a 64
        E 96 90 4a 00
        E 0 90 4a 64
        E 192 90 4a 00
        E 0 90 4b 64
        E 96 90 4b 00
        E 0 90 4f 64
        E 288 90 4f 00
        E 0 90 43 64
        E 96 90 43 00
        E 0 90 43 64
        E 96 90 43 00
        E 0 90 48 64
        E 96 90 48 00
        E 0 90 47 64
        E 96 90 47 00
        E 192 90 4f 64
        E 96 90 4f 00
        E 0 90 4b 64
        E 96 90 4b 00
        E 0 90 4a 64
        E 96 90 4a 00
        E 0 90 48 64
        E 96 90 48 00
        E 0 90 4f 64
        E 96 90 4f 00
        E 0 90 4b 64
        E 96 90 4b 00
        E 0 90 4a 64
        E 96 90 4a 00
        E 0 90 48 64
        E 96 90 48 00
        E 0 90 4d 64
        E 96 90 4d 00
        E 0 90 4a 64
        E 96 90 4a 00
        E 0 90 48 64
        E 96 90 48 00
        E 0 90 46 64
        E 96 90 46 00
        E 0 90 4d 64
        E 96 90 4d 00
        E 0 90 4a 64
        E 96 90 4a 00
        E 0 90 46 64
        E 96 90 46 00
        E 0 90 45 64
        E 192 90 45 00
        E 672 90 46 64
        E 144 90 46 00
        E 0 90 43 64
        E 48 90 43 00
        E 0 90 46 64
        E 96 90 46 00
        E 0 90 46 64
        E 144 90 46 00
        E 0 90 45 64
        E 48 90 45 00
        E 0 90 46 64
        E 96 90 46 00
        E 48 90 4a 64
        E 96 90 4a 00
        E 0 90 4d 64
        E 96 90 4d 00
        E 0 90 48 64
        E 96 90 48 00
        E 0 90 4a 64
        E 192 90 4a 00
        E 0 90 4a 64
        E 96 90 4a 00
        E 0 90 46 64
        E 96 90 46 00
        E 0 90 46 64
        E 96 90 46 00
        E 0 90 45 64
        E 96 90 45 00
        E 0 90 46 64
        E 192 90 46 00
        E 0 90 46 64
        E 192 90 46 00
        E 192 90 41 64
        E 192 90 41 00
        E 0 90 43 64
        E 192 90 43 00
        E 0 90 41 64
        E 192 90 41 00
        E 0 90 46 64
        E 192 90 46 00
        E 0 90 46 64
        E 192 90 46 00
        E 0 90 46 64
        E 384 90 46 00
        E 0 90 4d 64
        E 96 90 4d 00
        E 0 90 4b 64
        E 96 90 4b 00
        E 0 90 4a 64
        E 96 90 4a 00
        E 0 90 4b 64
        E 96 90 4b 00
        E 0 90 4d 64
        E 96 90 4d 00
        E 0 90 4b 64
        E 96 90 4b 00
        E 0 90 4a 64
        E 96 90 4a 00
        E 0 90 48 64
        E 96 90 48 00
        E 0 90 46 64
        E 192 90 46 00
        E 0 90 46 64
        E 192 90 46 00
        E 0 90 46 64
        E 192 90 46 00
        E 0 90 46 64
        E 288 90 46 00
        E 0 90 45 64
        E 96 90 45 00
        E 0 90 43 64
        E 96 90 43 00
        E 0 90 4a 64
        E 96 90 4a 00
        E 0 90 43 64
        E 192 90 43 00
        E 0 90 43 64
        E 192 90 43 00
        E 0 90 4b 64
        E 96 90 4b 00
        E 0 90 4d 64
        E 96 90 4d 00
        E 0 90 4f 64
        E 96 90 4f 00
        E 0 90 4d 64
        E 96 90 4d 00
        E 0 90 4b 64
        E 192 90 4b 00
        E 0 90 4a 64
        E 192 90 4a 00
        E 192 90 4b 64
        E 96 90 4b 00
        E 0 90 4d 64
        E 96 90 4d 00
        E 0 90 4f 64
        E 96 90 4f 00
        E 0 90 4d 64
        E 96 90 4d 00
        E 0 90 4b 64
        E 96 90 4b 00
        E 0 90 48 64
        E 96 90 48 00
        E 0 90 4a 64
        E 384 90 4a 00
        E 0 90 43 64
        E 384 90 43 00
        E 0 90 45 64
        E 96 90 45 00
        E 0 90 43 64
        E 96 90 43 00
        E 0 90 41 64
        E 96 90 41 00
        E 0 90 43 64
        E 96 90 43 00
        E 0 90 45 64
        E 96 90 45 00
        E 0 90 43 64
        E 96 90 43 00
        E 0 90 45 64
        E 96 90 45 00
        E 0 90 46 64
        E 96 90 46 00
        E 0 90 48 64
        E 192 90 48 00
        E 0 90 48 64
        E 192 90 48 00
        E 0 90 48 64
        E 384 90 48 00
        E 192 90 41 64
        E 384 90 41 00
        E 0 90 41 64
        E 192 90 41 00
        E 0 90 41 64
        E 384 90 41 00
        E 192 90 4a 64
        E 288 90 4a 00
        E 0 90 4b 64
        E 96 90 4b 00
        E 0 90 4d 64
        E 96 90 4d 00
        E 0 90 4b 64
        E 96 90 4b 00
        E 0 90 4a 64
        E 192 90 4a 00
        E 0 90 48 64
        E 192 90 48 00
        E 192 90 46 64
        E 384 90 46 00
        E 0 90 45 64
        E 192 90 45 00
        E 288 90 4a 64
        E 96 90 4a 00
        E 0 90 46 64
        E 96 90 46 00
        E 0 90 48 64
        E 96 90 48 00
        E 0 90 4a 64
        E 192 90 4a 00
        E 288 90 48 64
        E 96 90 48 00
        E 0 90 4d 64
        E 96 90 4d 00
        E 0 90 4b 64
        E 96 90 4b 00
        E 0 90 48 64
        E 96 90 48 00
        E 0 90 45 64
        E 96 90 45 00
        E 0 90 48 64
        E 96 90 48 00
        E 0 90 46 64
        E 96 90 46 00
        E 0 90 45 64
        E 192 90 45 00
        E 288 90 46 64
        E 96 90 46 00
        E 0 90 43 64
        E 96 90 43 00
        E 0 90 45 64
        E 96 90 45 00
        E 0 90 46 64
        E 192 90 46 00
        E 288 90 4a 64
        E 96 90 4a 00
        E 0 90 4a 64
        E 96 90 4a 00
        E 0 90 48 64
        E 96 90 48 00
        E 0 90 45 64
        E 96 90 45 00
        E 0 90 47 64
        E 96 90 47 00
        E 0 90 48 64
        E 192 90 48 00
        E 288 90 4d 64
        E 96 90 4d 00
        E 0 90 4d 64
        E 96 90 4d 00
        E 0 90 4b 64
        E 96 90 4b 00
        E 0 90 48 64
        E 96 90 48 00
        E 0 90 4a 64
        E 96 90 4a 00
        E 0 90 46 64
        E 96 90 46 00
        E 0 90 48 64
        E 96 90 48 00
        E 0 90 4d 64
        E 96 90 4d 00
        E 0 90 4a 64
        E 96 90 4a 00
        E 0 90 4b 64
        E 96 90 4b 00
        E 0 90 48 64
        E 96 90 48 00
        E 0 90 46 64
        E 192 90 46 00
        E 96 90 4d 64
        E 96 90 4d 00
        E 0 90 4d 64
        E 96 90 4d 00
        E 0 90 4a 64
        E 96 90 4a 00
        E 0 90 4b 64
        E 96 90 4b 00
        E 0 90 48 64
        E 96 90 48 00
        E 0 90 46 64
        E 96 90 46 00
        E 0 90 46 64
        E 96 90 46 00
        E 0 90 46 64
        E 96 90 46 00
        E 0 90 45 64
        E 96 90 45 00
        E 0 90 46 64
        E 192 90 46 00
        E 96 90 4d 64
        E 96 90 4d 00
        E 0 90 4f 64
        E 96 90 4f 00
        E 0 90 4b 64
        E 96 90 4b 00
        E 0 90 4d 64
        E 96 90 4d 00
        E 0 90 4a 64
        E 96 90 4a 00
        E 0 90 46 64
        E 192 90 46 00
        E 96 90 4d 64
        E 96 90 4d 00
        E 0 90 4f 64
        E 96 90 4f 00
        E 0 90 4b 64
        E 96 90 4b 00
        E 0 90 4b 64
        E 96 90 4b 00
        E 0 90 46 64
        E 96 90 46 00
        E 0 90 46 64
        E 383 90 46 00
        E 1 b0 7b 00
        CCINTERP 32
        CHASE_CC_TAKEOFFS 1
        GUID {4CC0BE59-C7A5-7B4C-B970-5F65A4213A02}
        IGNTEMPO 0 120 4 4
        SRCCOLOR 451
        VELLANE -1 100 0
        CFGEDITVIEW 0 0.296392 48 12 0 -1 0 0 0 0.5
        KEYSNAP 0
        TRACKSEL -252
        EVTFILTER 0 -1 -1 -1 -1 0 0 0 0 -1 -1 -1 -1 0 -1 0 -1 -1
        CFGEDIT 1 1 0 1 0 0 1 1 1 1 1 0.125 259 283 1920 854 0 0 0 0 0 0 0 0 0 0.5 0 0 1 64
      >
    >
    <ITEM
      POSITION 1383.5362637363141
      SNAPOFFS 0
      LENGTH 3.69230769230762
      LOOP 1
      ALLTAKES 0
      FADEIN 1 0 0 1 0 0 0
      FADEOUT 1 0 0 1 0 0 0
      MUTE 0 0
      SEL 1
      IGUID {D1646F9B-106F-8C49-B586-F6E903786ECD}
      IID 209
      NAME "English Horn - hodie.mid"
      VOLPAN 1 0 1 -1
      SOFFS 54.46153846156471 118.00000000005684
      PLAYRATE 1 1 0 -1 0 0.0025
      CHANMODE 0
      GUID {6E861EB1-6CC6-2D48-94EB-7EE88A8AD0B0}
      <SOURCE MIDI
        HASDATA 1 96 QN
        CCINTERP 32
        POOLEDEVTS {2085DB2A-0EC2-6F4C-B3B8-42C45E797383}
        E 624 90 3e 64
        E 144 90 3e 00
        E 0 90 3c 64
        E 48 90 3c 00
        E 0 90 3a 64
        E 96 90 3a 00
        E 0 90 3c 64
        E 144 90 3c 00
        E 0 90 3c 64
        E 48 90 3c 00
        E 0 90 41 64
        E 96 90 41 00
        E 0 90 43 64
        E 768 90 43 00
        E 0 90 41 64
        E 192 90 41 00
        E 192 90 3a 64
        E 48 90 3a 00
        E 0 90 3c 64
        E 48 90 3c 00
        E 0 90 3e 64
        E 48 90 3e 00
        E 0 90 3f 64
        E 48 90 3f 00
        E 0 90 41 64
        E 144 90 41 00
        E 0 90 3f 64
        E 48 90 3f 00
        E 0 90 3e 64
        E 144 90 3e 00
        E 0 90 3c 64
        E 48 90 3c 00
        E 0 90 3a 64
        E 96 90 3a 00
        E 0 90 3a 64
        E 96 90 3a 00
        E 0 90 3c 64
        E 288 90 3c 00
        E 0 90 41 64
        E 192 90 41 00
        E 0 90 40 64
        E 96 90 40 00
        E 0 90 41 64
        E 96 90 41 00
        E 0 90 48 64
        E 96 90 48 00
        E 0 90 46 64
        E 96 90 46 00
        E 0 90 43 64
        E 96 90 43 00
        E 0 90 45 64
        E 192 90 45 00
        E 192 90 3c 64
        E 96 90 3c 00
        E 0 90 41 64
        E 192 90 41 00
        E 0 90 40 64
        E 96 90 40 00
        E 0 90 41 64
        E 192 90 41 00
        E 672 90 3e 64
        E 144 90 3e 00
        E 0 90 3f 64
        E 48 90 3f 00
        E 0 90 41 64
        E 96 90 41 00
        E 0 90 43 64
        E 144 90 43 00
        E 0 90 3f 64
        E 48 90 3f 00
        E 0 90 41 64
        E 96 90 41 00
        E 480 90 3f 64
        E 96 90 3f 00
        E 0 90 43 64
        E 192 90 43 00
        E 0 90 41 64
        E 96 90 41 00
        E 0 90 3e 64
        E 96 90 3e 00
        E 0 90 41 64
        E 96 90 41 00
        E 0 90 41 64
        E 96 90 41 00
        E 0 90 3f 64
        E 96 90 3f 00
        E 0 90 3e 64
        E 48 90 3e 00
        E 0 90 3c 64
        E 48 90 3c 00
        E 0 90 3a 64
        E 192 90 3a 00
        E 96 90 3c 64
        E 96 90 3c 00
        E 0 90 41 64
        E 192 90 41 00
        E 0 90 3e 64
        E 96 90 3e 00
        E 0 90 3a 64
        E 96 90 3a 00
        E 0 90 3e 64
        E 96 90 3e 00
        E 0 90 3e 64
        E 96 90 3e 00
        E 0 90 3c 64
        E 384 90 3c 00
        E 96 90 3e 64
        E 96 90 3e 00
        E 0 90 41 64
        E 384 90 41 00
        E 0 90 41 64
        E 96 90 41 00
        E 0 90 41 64
        E 96 90 41 00
        E 0 90 43 64
        E 288 90 43 00
        E 0 90 43 64
        E 96 90 43 00
        E 0 90 3c 64
        E 192 90 3c 00
        E 96 90 3e 64
        E 96 90 3e 00
        E 0 90 43 64
        E 96 90 43 00
        E 0 90 41 64
        E 96 90 41 00
        E 0 90 41 64
        E 96 90 41 00
        E 0 90 3a 64
        E 96 90 3a 00
        E 0 90 3f 64
        E 96 90 3f 00
        E 0 90 3c 64
        E 96 90 3c 00
        E 0 90 3a 64
        E 192 90 3a 00
        E 96 90 46 64
        E 96 90 46 00
        E 0 90 43 64
        E 48 90 43 00
        E 0 90 41 64
        E 48 90 41 00
        E 0 90 3f 64
        E 48 90 3f 00
        E 0 90 3e 64
        E 48 90 3e 00
        E 0 90 3c 64
        E 96 90 3c 00
        E 0 90 3e 64
        E 96 90 3e 00
        E 240 b0 7b 00
        CCINTERP 32
        CHASE_CC_TAKEOFFS 1
        GUID {11C421FB-E78B-C14A-9B0A-0C6308AF74B2}
        IGNTEMPO 0 120 4 4
        SRCCOLOR 452
        VELLANE -1 100 0
        CFGEDITVIEW 11347.895482 2.384408 55 12 0 -1 0 0 0 0.5
        KEYSNAP 0
        TRACKSEL -252
        EVTFILTER 0 -1 -1 -1 -1 0 0 0 0 -1 -1 -1 -1 0 -1 0 -1 -1
        CFGEDIT 1 1 0 1 0 0 1 1 1 1 1 0.125 259 283 1920 854 0 0 0 0 0 0 0 0 0 0.5 0 0 1 64
      >
    >
  >
  <TRACK {B769E8E8-B5EB-164C-A110-47BD02528B71}
    NAME Alto
    PEAKCOL 16576
    BEAT -1
    AUTOMODE 0
    VOLPAN 1 0 -1 -1 1
    MUTESOLO 0 0 0
    IPHASE 0
    PLAYOFFS 0 1
    ISBUS 0 0
    BUSCOMP 0 0 0 0 0
    SHOWINMIX 1 0.6667 0.5 1 0.5 -1 -1 -1
    FREEMODE 0
    SEL 0
    REC 0 0 1 0 0 0 0
    VU 2
    TRACKHEIGHT 0 0 0 0 0 0
    INQ 0 0 0 0.5 100 0 0 100
    NCHAN 2
    FX 1
    TRACKID {B769E8E8-B5EB-164C-A110-47BD02528B71}
    PERF 0
    MIDIOUT 0
    MAINSEND 1 0
    <ITEM
      POSITION 880.99999999991223
      SNAPOFFS 0
      LENGTH 131.22857142860937
      LOOP 0
      ALLTAKES 0
      FADEIN 1 0 0 1 0 0 0
      FADEOUT 1 0 0 1 0 0 0
      MUTE 0 0
      SEL 0
      IGUID {1F0FCFD2-78D7-F549-95E2-007E562F9423}
      IID 154
      NAME "English Horn  - tocatta_-glued"
      VOLPAN 1 0 1 -1
      SOFFS 0.00111607133874 0.00104166658275
      PLAYRATE 1 1 0 -1 0 0.0025
      CHANMODE 0
      GUID {CB2431DD-39F2-1444-8E47-5A85594C2C89}
      <SOURCE MIDI
        HASDATA 1 960 QN
        CCINTERP 32
        POOLEDEVTS {F05D1BC4-A32E-B54D-8877-C7B776A6FD62}
        E 1921 92 45 60
        E 240 82 45 00
        E 240 90 45 60
        E 240 80 45 00
        E 240 90 45 60
        E 240 80 45 00
        E 240 90 45 60
        E 240 80 45 00
        E 240 92 45 60
        E 240 82 45 00
        E 240 90 45 60
        E 240 80 45 00
        E 240 90 45 60
        E 240 80 45 00
        e 240 90 45 60
        e 240 80 45 00
        E 240 92 45 64
        E 5760 92 45 00
        E 1920 92 45 64
        E 1920 92 45 00
        E 0 92 41 64
        E 1920 92 41 00
        E 0 92 40 64
        E 5760 92 40 00
        E 0 92 43 64
        E 1920 92 43 00
        E 0 92 40 64
        E 1920 92 40 00
        E 36960 92 45 64
        E 480 92 45 00
        E 0 92 47 64
        E 480 92 47 00
        E 0 92 49 64
        E 480 92 49 00
        E 0 92 4a 64
        E 480 92 4a 00
        E 0 92 4c 64
        E 480 92 4c 00
        E 0 92 4d 64
        E 480 92 4d 00
        E 0 92 4f 64
        E 480 92 4f 00
        E 0 92 51 64
        E 480 92 51 00
        E 0 92 4a 64
        E 480 92 4a 00
        E 0 92 4c 64
        E 480 92 4c 00
        E 0 92 4d 64
        E 480 92 4d 00
        E 0 92 4f 64
        E 480 92 4f 00
        E 0 92 49 64
        E 480 92 49 00
        E 0 92 4a 64
        E 480 92 4a 00
        E 0 92 4c 64
        E 480 82 4c 00
        E 12000 92 40 64
        E 480 92 40 00
        E 0 92 41 64
        E 480 92 41 00
        E 0 92 43 64
        E 480 92 43 00
        E 0 92 45 64
        E 480 92 45 00
        E 0 92 47 64
        E 480 92 47 00
        E 0 92 48 64
        E 480 92 48 00
        E 0 92 4a 64
        E 480 92 4a 00
        E 0 92 48 64
        E 5760 92 48 00
        E 0 92 45 64
        E 3840 92 45 00
        E 0 92 44 64
        E 1920 92 44 00
        E 0 92 45 64
        E 3840 92 45 00
        E 0 92 44 64
        E 3840 92 44 00
        E 8160 92 4c 64
        E 480 92 4c 00
        E 0 92 49 64
        E 480 92 49 00
        E 0 92 45 64
        E 480 92 45 00
        E 0 92 4c 64
        E 480 92 4c 00
        E 0 92 4a 64
        E 480 92 4a 00
        E 0 92 4c 64
        E 240 92 4c 00
        E 0 92 4a 64
        E 240 92 4a 00
        E 0 92 49 64
        E 240 92 49 00
        E 0 92 47 64
        E 240 92 47 00
        E 0 92 45 64
        E 3840 92 45 00
        E 4320 92 47 64
        E 480 92 47 00
        E 0 92 4a 64
        E 240 92 4a 00
        E 0 92 48 64
        E 240 92 48 00
        E 0 92 47 64
        E 240 92 47 00
        E 0 92 45 64
        E 240 92 45 00
        E 0 92 43 64
        E 480 92 43 00
        E 0 92 41 64
        E 480 92 41 00
        E 0 92 43 64
        E 240 92 43 00
        E 0 92 41 64
        E 240 92 41 00
        E 0 92 40 64
        E 240 92 40 00
        E 0 92 3e 64
        E 240 92 3e 00
        E 0 92 3c 64
        E 480 92 3c 00
        E 0 92 43 64
        E 480 92 43 00
        E 0 92 40 64
        E 480 92 40 00
        E 0 92 3c 64
        E 480 92 3c 00
        E 0 92 43 64
        E 480 92 43 00
        E 0 92 40 64
        E 480 92 40 00
        E 0 92 3c 64
        E 480 92 3c 00
        E 0 92 43 64
        E 480 92 43 00
        E 3840 92 47 64
        E 480 92 47 00
        E 0 92 4a 64
        E 480 92 4a 00
        E 0 92 47 64
        E 480 92 47 00
        E 0 92 43 64
        E 480 92 43 00
        E 0 92 4a 64
        E 480 92 4a 00
        E 0 92 47 64
        E 480 92 47 00
        E 0 92 43 64
        E 480 92 43 00
        E 0 92 4a 64
        E 480 82 4a 00
        E 7680 92 44 64
        E 480 92 44 00
        E 0 92 47 64
        E 480 92 47 00
        E 0 92 44 64
        E 480 92 44 00
        E 0 92 40 64
        E 480 92 40 00
        E 0 92 47 64
        E 240 92 47 00
        E 0 92 45 64
        E 240 92 45 00
        E 0 92 43 64
        E 240 92 43 00
        E 0 92 42 64
        E 240 92 42 00
        E 0 92 40 64
        E 240 92 40 00
        E 0 92 3e 64
        E 240 92 3e 00
        E 0 92 3d 64
        E 240 92 3d 00
        E 0 92 3b 64
        E 240 92 3b 00
        E 11520 92 45 64
        E 240 92 45 00
        E 0 92 43 64
        E 240 92 43 00
        E 0 92 41 64
        E 240 92 41 00
        E 0 92 40 64
        E 240 92 40 00
        E 0 92 3e 64
        E 480 92 3e 00
        E 0 92 45 64
        E 480 92 45 00
        E 0 92 41 64
        E 480 92 41 00
        E 0 92 3e 64
        E 480 92 3e 00
        E 0 92 45 64
        E 480 92 45 00
        E 0 92 43 64
        E 240 92 43 00
        E 0 92 41 64
        E 240 92 41 00
        E 0 92 40 64
        E 240 92 40 00
        E 0 92 3e 64
        E 240 92 3e 00
        E 0 92 3c 64
        E 240 92 3c 00
        E 0 92 3b 64
        E 240 92 3b 00
        E 15360 92 3e 64
        E 240 92 3e 00
        E 0 92 40 64
        E 240 92 40 00
        E 0 92 41 64
        E 240 92 41 00
        E 0 92 43 64
        E 240 92 43 00
        E 0 92 45 64
        E 240 92 45 00
        E 0 92 47 64
        E 240 92 47 00
        E 0 92 48 64
        E 240 92 48 00
        E 0 92 4a 64
        E 240 92 4a 00
        E 0 92 4c 64
        E 240 92 4c 00
        E 0 92 4d 64
        E 240 92 4d 00
        E 0 92 4f 64
        E 240 92 4f 00
        E 0 92 51 64
        E 240 92 51 00
        E 7680 92 45 64
        E 11520 92 45 00
        E 0 b0 7b 00
        CCINTERP 32
        CHASE_CC_TAKEOFFS 1
        GUID {3D337A0A-E55D-F54E-B2E9-13D8CA96A1AB}
        IGNTEMPO 0 120 4 4
        SRCCOLOR 395
        VELLANE -1 100 0
        CFGEDITVIEW -806.4 0.065169 45 12 0 -1 0 0 0 0.5
        KEYSNAP 0
        TRACKSEL -252
        EVTFILTER 0 -1 -1 -1 -1 0 0 0 0 -1 -1 -1 -1 0 -1 0 -1 -1
        CFGEDIT 1 1 0 1 0 0 1 1 1 1 1 0.25 0 164 1920 938 0 0 0 0 0 0 0 0 0 0.5 0 0 1 64
      >
    >
    <ITEM
      POSITION 1117.6901098900835
      SNAPOFFS 0
      LENGTH 54.46153846156471
      LOOP 1
      ALLTAKES 0
      FADEIN 1 0 0 1 0 0 0
      FADEOUT 1 0 0 1 0 0 0
      MUTE 0 0
      SEL 0
      IGUID {493867A2-A0B0-B745-AEAE-2EA220179624}
      IID 91
      NAME "English Horn - hodie.mid"
      VOLPAN 1 0 1 -1
      SOFFS 0 0
      PLAYRATE 1 1 0 -1 0 0.0025
      CHANMODE 0
      GUID {FCCF6ACE-333F-F24E-97FF-1CA325B4F3D4}
      <SOURCE MIDI
        HASDATA 1 96 QN
        CCINTERP 32
        POOLEDEVTS {52E1D4E6-31C3-504F-9EEF-28F25F03E1F7}
        E 624 90 3e 64
        E 144 90 3e 00
        e 0 90 3c 64
        e 48 90 3c 00
        E 0 90 3a 64
        E 96 90 3a 00
        E 0 90 3c 64
        E 144 90 3c 00
        E 0 90 3c 64
        E 48 90 3c 00
        E 0 90 41 64
        E 96 90 41 00
        E 0 90 43 64
        E 768 90 43 00
        E 0 90 41 64
        E 192 90 41 00
        E 192 90 3a 64
        E 48 90 3a 00
        E 0 90 3c 64
        E 48 90 3c 00
        E 0 90 3e 64
        E 48 90 3e 00
        E 0 90 3f 64
        E 48 90 3f 00
        E 0 90 41 64
        E 144 90 41 00
        E 0 90 3f 64
        E 48 90 3f 00
        E 0 90 3e 64
        E 144 90 3e 00
        E 0 90 3c 64
        E 48 90 3c 00
        E 0 90 3a 64
        E 96 90 3a 00
        E 0 90 3a 64
        E 96 90 3a 00
        E 0 90 3c 64
        E 288 90 3c 00
        E 0 90 41 64
        E 192 90 41 00
        E 0 90 40 64
        E 96 90 40 00
        E 0 90 41 64
        E 96 90 41 00
        E 0 90 48 64
        E 96 90 48 00
        E 0 90 46 64
        E 96 90 46 00
        E 0 90 43 64
        E 96 90 43 00
        E 0 90 45 64
        E 192 90 45 00
        E 192 90 3c 64
        E 96 90 3c 00
        E 0 90 41 64
        E 192 90 41 00
        E 0 90 40 64
        E 96 90 40 00
        E 0 90 41 64
        E 192 90 41 00
        E 672 90 3e 64
        E 144 90 3e 00
        E 0 90 3f 64
        E 48 90 3f 00
        E 0 90 41 64
        E 96 90 41 00
        E 0 90 43 64
        E 144 90 43 00
        E 0 90 3f 64
        E 48 90 3f 00
        E 0 90 41 64
        E 96 90 41 00
        E 480 90 3f 64
        E 96 90 3f 00
        E 0 90 43 64
        E 192 90 43 00
        E 0 90 41 64
        E 96 90 41 00
        E 0 90 3e 64
        E 96 90 3e 00
        E 0 90 41 64
        E 96 90 41 00
        E 0 90 41 64
        E 96 90 41 00
        E 0 90 3f 64
        E 96 90 3f 00
        E 0 90 3e 64
        E 48 90 3e 00
        E 0 90 3c 64
        E 48 90 3c 00
        E 0 90 3a 64
        E 192 90 3a 00
        E 96 90 3c 64
        E 96 90 3c 00
        E 0 90 41 64
        E 192 90 41 00
        E 0 90 3e 64
        E 96 90 3e 00
        E 0 90 3a 64
        E 96 90 3a 00
        E 0 90 3e 64
        E 96 90 3e 00
        E 0 90 3e 64
        E 96 90 3e 00
        E 0 90 3c 64
        E 384 90 3c 00
        E 96 90 3e 64
        E 96 90 3e 00
        E 0 90 41 64
        E 384 90 41 00
        E 0 90 41 64
        E 96 90 41 00
        E 0 90 41 64
        E 96 90 41 00
        E 0 90 43 64
        E 288 90 43 00
        E 0 90 43 64
        E 96 90 43 00
        E 0 90 3c 64
        E 192 90 3c 00
        E 96 90 3e 64
        E 96 90 3e 00
        E 0 90 43 64
        E 96 90 43 00
        E 0 90 41 64
        E 96 90 41 00
        E 0 90 41 64
        E 96 90 41 00
        E 0 90 3a 64
        E 96 90 3a 00
        E 0 90 3f 64
        E 96 90 3f 00
        E 0 90 3c 64
        E 96 90 3c 00
        E 0 90 3a 64
        E 192 90 3a 00
        E 48 b0 7b 00
        CCINTERP 32
        CHASE_CC_TAKEOFFS 1
        GUID {0F210B8B-968B-354A-B364-4EE0D305812F}
        IGNTEMPO 0 120 4 4
        SRCCOLOR 268
        VELLANE -1 100 0
        CFGEDITVIEW 6252.447547 0.494274 55 12 0 -1 0 0 0 0.5
        KEYSNAP 0
        TRACKSEL -252
        EVTFILTER 0 -1 -1 -1 -1 0 0 0 0 -1 -1 -1 -1 0 -1 0 -1 -1
        CFGEDIT 1 1 0 1 0 0 1 1 1 1 1 0.125 259 283 1920 854 0 0 0 0 0 0 0 0 0 0.5 0 0 1 64
      >
    >
    <ITEM
      POSITION 1172.1516483516482
      SNAPOFFS 0
      LENGTH 3.69230769230762
      LOOP 1
      ALLTAKES 0
      FADEIN 1 0 0 1 0 0 0
      FADEOUT 1 0 0 1 0 0 0
      MUTE 0 0
      SEL 0
      IGUID {2834CC4E-9CA0-5442-A6A0-36D1990BBCB1}
      IID 209
      NAME "English Horn - hodie.mid"
      VOLPAN 1 0 1 -1
      SOFFS 54.46153846156471 118.00000000005684
      PLAYRATE 1 1 0 -1 0 0.0025
      CHANMODE 0
      GUID {117A82E7-CF11-C643-8A81-3A68B9E4CCEA}
      <SOURCE MIDI
        HASDATA 1 96 QN
        CCINTERP 32
        POOLEDEVTS {EFAD9C5A-8C43-3E46-A576-B3498C99C84C}
        E 624 90 3e 64
        E 144 90 3e 00
        e 0 90 3c 64
        e 48 90 3c 00
        E 0 90 3a 64
        E 96 90 3a 00
        E 0 90 3c 64
        E 144 90 3c 00
        E 0 90 3c 64
        E 48 90 3c 00
        E 0 90 41 64
        E 96 90 41 00
        E 0 90 43 64
        E 768 90 43 00
        E 0 90 41 64
        E 192 90 41 00
        E 192 90 3a 64
        E 48 90 3a 00
        E 0 90 3c 64
        E 48 90 3c 00
        E 0 90 3e 64
        E 48 90 3e 00
        E 0 90 3f 64
        E 48 90 3f 00
        E 0 90 41 64
        E 144 90 41 00
        E 0 90 3f 64
        E 48 90 3f 00
        E 0 90 3e 64
        E 144 90 3e 00
        E 0 90 3c 64
        E 48 90 3c 00
        E 0 90 3a 64
        E 96 90 3a 00
        E 0 90 3a 64
        E 96 90 3a 00
        E 0 90 3c 64
        E 288 90 3c 00
        E 0 90 41 64
        E 192 90 41 00
        E 0 90 40 64
        E 96 90 40 00
        E 0 90 41 64
        E 96 90 41 00
        E 0 90 48 64
        E 96 90 48 00
        E 0 90 46 64
        E 96 90 46 00
        E 0 90 43 64
        E 96 90 43 00
        E 0 90 45 64
        E 192 90 45 00
        E 192 90 3c 64
        E 96 90 3c 00
        E 0 90 41 64
        E 192 90 41 00
        E 0 90 40 64
        E 96 90 40 00
        E 0 90 41 64
        E 192 90 41 00
        E 672 90 3e 64
        E 144 90 3e 00
        E 0 90 3f 64
        E 48 90 3f 00
        E 0 90 41 64
        E 96 90 41 00
        E 0 90 43 64
        E 144 90 43 00
        E 0 90 3f 64
        E 48 90 3f 00
        E 0 90 41 64
        E 96 90 41 00
        E 480 90 3f 64
        E 96 90 3f 00
        E 0 90 43 64
        E 192 90 43 00
        E 0 90 41 64
        E 96 90 41 00
        E 0 90 3e 64
        E 96 90 3e 00
        E 0 90 41 64
        E 96 90 41 00
        E 0 90 41 64
        E 96 90 41 00
        E 0 90 3f 64
        E 96 90 3f 00
        E 0 90 3e 64
        E 48 90 3e 00
        E 0 90 3c 64
        E 48 90 3c 00
        E 0 90 3a 64
        E 192 90 3a 00
        E 96 90 3c 64
        E 96 90 3c 00
        E 0 90 41 64
        E 192 90 41 00
        E 0 90 3e 64
        E 96 90 3e 00
        E 0 90 3a 64
        E 96 90 3a 00
        E 0 90 3e 64
        E 96 90 3e 00
        E 0 90 3e 64
        E 96 90 3e 00
        E 0 90 3c 64
        E 384 90 3c 00
        E 96 90 3e 64
        E 96 90 3e 00
        E 0 90 41 64
        E 384 90 41 00
        E 0 90 41 64
        E 96 90 41 00
        E 0 90 41 64
        E 96 90 41 00
        E 0 90 43 64
        E 288 90 43 00
        E 0 90 43 64
        E 96 90 43 00
        E 0 90 3c 64
        E 192 90 3c 00
        E 96 90 3e 64
        E 96 90 3e 00
        E 0 90 43 64
        E 96 90 43 00
        E 0 90 41 64
        E 96 90 41 00
        E 0 90 41 64
        E 96 90 41 00
        E 0 90 3a 64
        E 96 90 3a 00
        E 0 90 3f 64
        E 96 90 3f 00
        E 0 90 3c 64
        E 96 90 3c 00
        E 0 90 3a 64
        E 192 90 3a 00
        E 96 90 41 64
        E 96 90 41 00
        E 0 90 3e 64
        E 48 90 3e 00
        E 0 90 3c 64
        E 48 90 3c 00
        E 0 90 3a 64
        E 48 90 3a 00
        E 0 90 39 64
        E 48 90 39 00
        E 0 90 37 64
        E 96 90 37 00
        E 0 90 39 64
        E 96 90 39 00
        E 0 90 3a 64
        E 96 90 3a 00
        E 0 90 3a 64
        E 96 90 3a 00
        E 0 90 46 64
        E 48 80 46 00
        E 0 b0 7b 00
        CCINTERP 32
        CHASE_CC_TAKEOFFS 1
        GUID {11C421FB-E78B-C14A-9B0A-0C6308AF74B2}
        IGNTEMPO 0 120 4 4
        SRCCOLOR 452
        VELLANE -1 100 0
        CFGEDITVIEW 0 0.494274 55 12 0 -1 0 0 0 0.5
        KEYSNAP 0
        TRACKSEL -252
        EVTFILTER 0 -1 -1 -1 -1 0 0 0 0 -1 -1 -1 -1 0 -1 0 -1 -1
        CFGEDIT 1 1 0 1 0 0 1 1 1 1 1 0.125 259 283 1920 854 0 0 0 0 0 0 0 0 0 0.5 0 0 1 64
      >
    >
    <ITEM
      POSITION 1175.8439560439558
      SNAPOFFS 0
      LENGTH 159.69230769229762
      LOOP 1
      ALLTAKES 0
      FADEIN 1 0 0 1 0 0 0
      FADEOUT 1 0 0 1 0 0 0
      MUTE 0 0
      SEL 0
      IGUID {B03C20B5-33D4-F24E-AA48-2319D2114302}
      IID 210
      NAME "English Horn - hodie.mid"
      VOLPAN 1 0 1 -1
      SOFFS 58.15384615387234 126.00000000005662
      PLAYRATE 1 1 0 -1 0 0.0025
      CHANMODE 0
      GUID {D7CCE70D-BBD6-264E-9AF0-0E4BA2CC6F13}
      <SOURCE MIDI
        HASDATA 1 96 QN
        CCINTERP 32
        POOLEDEVTS {8855D39D-46B6-CB46-A284-DC50D42122EA}
        E 624 90 3e 64
        E 144 90 3e 00
        e 0 90 3c 64
        e 48 90 3c 00
        E 0 90 3a 64
        E 96 90 3a 00
        E 0 90 3c 64
        E 144 90 3c 00
        E 0 90 3c 64
        E 48 90 3c 00
        E 0 90 41 64
        E 96 90 41 00
        E 0 90 43 64
        E 768 90 43 00
        E 0 90 41 64
        E 192 90 41 00
        E 192 90 3a 64
        E 48 90 3a 00
        E 0 90 3c 64
        E 48 90 3c 00
        E 0 90 3e 64
        E 48 90 3e 00
        E 0 90 3f 64
        E 48 90 3f 00
        E 0 90 41 64
        E 144 90 41 00
        E 0 90 3f 64
        E 48 90 3f 00
        E 0 90 3e 64
        E 144 90 3e 00
        E 0 90 3c 64
        E 48 90 3c 00
        E 0 90 3a 64
        E 96 90 3a 00
        E 0 90 3a 64
        E 96 90 3a 00
        E 0 90 3c 64
        E 288 90 3c 00
        E 0 90 41 64
        E 192 90 41 00
        E 0 90 40 64
        E 96 90 40 00
        E 0 90 41 64
        E 96 90 41 00
        E 0 90 48 64
        E 96 90 48 00
        E 0 90 46 64
        E 96 90 46 00
        E 0 90 43 64
        E 96 90 43 00
        E 0 90 45 64
        E 192 90 45 00
        E 192 90 3c 64
        E 96 90 3c 00
        E 0 90 41 64
        E 192 90 41 00
        E 0 90 40 64
        E 96 90 40 00
        E 0 90 41 64
        E 192 90 41 00
        E 672 90 3e 64
        E 144 90 3e 00
        E 0 90 3f 64
        E 48 90 3f 00
        E 0 90 41 64
        E 96 90 41 00
        E 0 90 43 64
        E 144 90 43 00
        E 0 90 3f 64
        E 48 90 3f 00
        E 0 90 41 64
        E 96 90 41 00
        E 480 90 3f 64
        E 96 90 3f 00
        E 0 90 43 64
        E 192 90 43 00
        E 0 90 41 64
        E 96 90 41 00
        E 0 90 3e 64
        E 96 90 3e 00
        E 0 90 41 64
        E 96 90 41 00
        E 0 90 41 64
        E 96 90 41 00
        E 0 90 3f 64
        E 96 90 3f 00
        E 0 90 3e 64
        E 48 90 3e 00
        E 0 90 3c 64
        E 48 90 3c 00
        E 0 90 3a 64
        E 192 90 3a 00
        E 96 90 3c 64
        E 96 90 3c 00
        E 0 90 41 64
        E 192 90 41 00
        E 0 90 3e 64
        E 96 90 3e 00
        E 0 90 3a 64
        E 96 90 3a 00
        E 0 90 3e 64
        E 96 90 3e 00
        E 0 90 3e 64
        E 96 90 3e 00
        E 0 90 3c 64
        E 384 90 3c 00
        E 96 90 3e 64
        E 96 90 3e 00
        E 0 90 41 64
        E 384 90 41 00
        E 0 90 41 64
        E 96 90 41 00
        E 0 90 41 64
        E 96 90 41 00
        E 0 90 43 64
        E 288 90 43 00
        E 0 90 43 64
        E 96 90 43 00
        E 0 90 3c 64
        E 192 90 3c 00
        E 96 90 3e 64
        E 96 90 3e 00
        E 0 90 43 64
        E 96 90 43 00
        E 0 90 41 64
        E 96 90 41 00
        E 0 90 41 64
        E 96 90 41 00
        E 0 90 3a 64
        E 96 90 3a 00
        E 0 90 3f 64
        E 96 90 3f 00
        E 0 90 3c 64
        E 96 90 3c 00
        E 0 90 3a 64
        E 192 90 3a 00
        E 96 90 41 64
        E 96 90 41 00
        E 0 90 3e 64
        E 48 90 3e 00
        E 0 90 3c 64
        E 48 90 3c 00
        E 0 90 3a 64
        E 48 90 3a 00
        E 0 90 39 64
        E 48 90 39 00
        E 0 90 37 64
        E 96 90 37 00
        E 0 90 39 64
        E 96 90 39 00
        E 0 90 3a 64
        E 96 90 3a 00
        E 0 90 3a 64
        E 96 90 3a 00
        E 0 90 46 64
        E 96 90 46 00
        E 0 90 43 64
        E 96 90 43 00
        E 0 90 41 64
        E 144 90 41 00
        E 0 90 3f 64
        E 48 90 3f 00
        E 0 90 3e 64
        E 96 90 3e 00
        E 0 90 37 64
        E 96 90 37 00
        E 0 90 3e 64
        E 48 90 3e 00
        E 0 90 3c 64
        E 48 90 3c 00
        E 0 90 3a 64
        E 48 90 3a 00
        E 0 90 39 64
        E 48 90 39 00
        E 0 90 37 64
        E 96 90 37 00
        E 0 90 39 64
        E 96 90 39 00
        E 0 90 3a 64
        E 192 90 3a 00
        E 672 90 3e 64
        E 144 90 3e 00
        E 0 90 3c 64
        E 48 90 3c 00
        E 0 90 3a 64
        E 96 90 3a 00
        E 0 90 3c 64
        E 144 90 3c 00
        E 0 90 3c 64
        E 48 90 3c 00
        E 0 90 41 64
        E 96 90 41 00
        E 960 90 3a 64
        E 192 90 3a 00
        E 0 90 35 64
        E 192 90 35 00
        E 0 90 35 64
        E 192 90 35 00
        E 0 90 37 64
        E 48 90 37 00
        E 0 90 35 64
        E 48 90 35 00
        E 0 90 37 64
        E 48 90 37 00
        E 0 90 39 64
        E 48 90 39 00
        E 0 90 3a 64
        E 48 90 3a 00
        E 0 90 39 64
        E 48 90 39 00
        E 0 90 3a 64
        E 48 90 3a 00
        E 0 90 37 64
        E 48 90 37 00
        E 0 90 39 64
        E 96 90 39 00
        E 0 90 3a 64
        E 96 90 3a 00
        E 0 90 3a 64
        E 96 90 3a 00
        E 0 90 39 64
        E 96 90 39 00
        E 0 90 3a 64
        E 96 90 3a 00
        E 0 90 3a 64
        E 96 90 3a 00
        E 0 90 3a 64
        E 96 90 3a 00
        E 0 90 3a 64
        E 96 90 3a 00
        E 0 90 41 64
        E 96 90 41 00
        E 0 90 40 64
        E 96 90 40 00
        E 0 90 41 64
        E 96 90 41 00
        E 0 90 41 64
        E 96 90 41 00
        E 0 90 41 64
        E 96 90 41 00
        E 0 90 41 64
        E 96 90 41 00
        E 0 90 3a 64
        E 96 90 3a 00
        E 0 90 46 64
        E 96 90 46 00
        E 0 90 43 64
        E 96 90 43 00
        E 0 90 41 64
        E 96 90 41 00
        E 0 90 43 64
        E 96 90 43 00
        E 0 90 43 64
        E 96 90 43 00
        E 0 90 41 64
        E 192 90 41 00
        E 0 90 3e 64
        E 96 90 3e 00
        E 0 90 41 64
        E 144 90 41 00
        E 0 90 43 64
        E 48 90 43 00
        E 0 90 41 64
        E 96 90 41 00
        E 0 90 41 64
        E 192 90 41 00
        E 0 90 43 64
        E 96 90 43 00
        E 0 90 3c 64
        E 192 90 3c 00
        E 0 90 41 64
        E 96 90 41 00
        E 0 90 41 64
        E 144 90 41 00
        E 0 90 41 64
        E 48 90 41 00
        E 0 90 43 64
        E 96 90 43 00
        E 0 90 3c 64
        E 192 90 3c 00
        E 0 90 41 64
        E 96 90 41 00
        E 0 90 3e 64
        E 192 90 3e 00
        E 0 90 43 64
        E 96 90 43 00
        E 0 90 42 64
        E 144 90 42 00
        E 0 90 40 64
        E 48 90 40 00
        E 0 90 42 64
        E 96 90 42 00
        E 0 90 43 64
        E 192 90 43 00
        E 0 90 3f 64
        E 96 90 3f 00
        E 0 90 3e 64
        E 192 90 3e 00
        E 0 90 3e 64
        E 96 90 3e 00
        E 0 90 37 64
        E 144 90 37 00
        E 0 90 37 64
        E 48 90 37 00
        E 0 90 43 64
        E 96 90 43 00
        E 0 90 43 64
        E 192 90 43 00
        E 0 90 43 64
        E 96 90 43 00
        E 0 90 3f 64
        E 192 90 3f 00
        E 0 90 3e 64
        E 48 90 3e 00
        E 0 90 3c 64
        E 48 90 3c 00
        E 0 90 3e 64
        E 192 90 3e 00
        E 96 90 43 64
        E 96 90 43 00
        E 0 90 43 64
        E 96 90 43 00
        E 0 90 43 64
        E 96 90 43 00
        E 0 90 43 64
        E 192 90 43 00
        E 0 90 43 64
        E 192 90 43 00
        E 0 90 43 64
        E 96 90 43 00
        E 0 90 41 64
        E 96 90 41 00
        E 0 90 41 64
        E 192 90 41 00
        E 0 90 41 64
        E 192 90 41 00
        E 0 90 41 64
        E 96 90 41 00
        E 0 90 41 64
        E 96 90 41 00
        E 0 90 41 64
        E 192 90 41 00
        E 672 90 3e 64
        E 144 90 3e 00
        E 0 90 3f 64
        E 48 90 3f 00
        E 0 90 41 64
        E 96 90 41 00
        E 0 90 43 64
        E 144 90 43 00
        E 0 90 3f 64
        E 48 90 3f 00
        E 0 90 41 64
        E 96 90 41 00
        E 48 90 41 64
        E 96 90 41 00
        E 0 90 41 64
        E 96 90 41 00
        E 0 90 41 64
        E 96 90 41 00
        E 0 90 41 64
        E 192 90 41 00
        E 0 90 41 64
        E 96 90 41 00
        E 0 90 41 64
        E 96 90 41 00
        E 0 90 41 64
        E 96 90 41 00
        E 0 90 41 64
        E 96 90 41 00
        E 0 90 41 64
        E 192 90 41 00
        E 0 90 41 64
        E 192 90 41 00
        E 288 90 3e 64
        E 96 90 3e 00
        E 0 90 3c 64
        E 192 90 3c 00
        E 0 90 3e 64
        E 192 90 3e 00
        E 0 90 41 64
        E 192 90 41 00
        E 0 90 41 64
        E 192 90 41 00
        E 0 90 41 64
        E 384 90 41 00
        E 0 90 3e 64
        E 96 90 3e 00
        E 0 90 3c 64
        E 96 90 3c 00
        E 0 90 3a 64
        E 96 90 3a 00
        E 0 90 3c 64
        E 96 90 3c 00
        E 0 90 3e 64
        E 96 90 3e 00
        E 0 90 3c 64
        E 96 90 3c 00
        E 0 90 3e 64
        E 96 90 3e 00
        E 0 90 3f 64
        E 96 90 3f 00
        E 0 90 41 64
        E 192 90 41 00
        E 0 90 43 64
        E 192 90 43 00
        E 0 90 41 64
        E 192 90 41 00
        E 0 90 43 64
        E 288 90 43 00
        E 0 90 45 64
        E 96 90 45 00
        E 0 90 46 64
        E 96 90 46 00
        E 0 90 47 64
        E 96 90 47 00
        E 0 90 48 64
        E 192 90 48 00
        E 0 90 46 64
        E 96 90 46 00
        E 0 90 45 64
        E 96 90 45 00
        E 0 90 43 64
        E 192 90 43 00
        E 0 90 43 64
        E 192 90 43 00
        E 0 90 43 64
        E 96 90 43 00
        E 0 90 45 64
        E 96 90 45 00
        E 0 90 46 64
        E 96 90 46 00
        E 0 90 45 64
        E 96 90 45 00
        E 0 90 43 64
        E 192 90 43 00
        E 0 90 43 64
        E 192 90 43 00
        E 0 90 43 64
        E 288 90 43 00
        E 0 90 43 64
        E 96 90 43 00
        E 0 90 43 64
        E 96 90 43 00
        E 0 90 43 64
        E 96 90 43 00
        E 0 90 43 64
        E 192 90 43 00
        E 0 90 40 64
        E 384 90 40 00
        E 0 90 41 64
        E 576 90 41 00
        E 0 90 3c 64
        E 192 90 3c 00
        E 0 90 41 64
        E 768 90 41 00
        E 0 90 45 64
        E 96 90 45 00
        E 0 90 43 64
        E 96 90 43 00
        E 0 90 41 64
        E 96 90 41 00
        E 0 90 43 64
        E 96 90 43 00
        E 0 90 45 64
        E 96 90 45 00
        E 0 90 43 64
        E 96 90 43 00
        E 0 90 41 64
        E 96 90 41 00
        E 0 90 3f 64
        E 96 90 3f 00
        E 0 90 3e 64
        E 192 90 3e 00
        E 0 90 3e 64
        E 192 90 3e 00
        E 0 90 41 64
        E 384 90 41 00
        E 384 90 41 64
        E 96 90 41 00
        E 0 90 43 64
        E 96 90 43 00
        E 0 90 45 64
        E 96 90 45 00
        E 0 90 43 64
        E 96 90 43 00
        E 0 90 41 64
        E 192 90 41 00
        E 0 90 41 64
        E 192 90 41 00
        E 288 90 45 64
        E 96 90 45 00
        E 0 90 43 64
        E 96 90 43 00
        E 0 90 43 64
        E 96 90 43 00
        E 0 90 41 64
        E 96 90 41 00
        E 0 90 41 64
        E 96 90 41 00
        E 0 90 3f 64
        E 96 90 3f 00
        E 0 90 3f 64
        E 96 90 3f 00
        E 0 90 3e 64
        E 192 90 3e 00
        E 288 90 41 64
        E 96 90 41 00
        E 0 90 41 64
        E 96 90 41 00
        E 0 90 43 64
        E 96 90 43 00
        E 0 90 41 64
        E 96 90 41 00
        E 0 90 41 64
        E 96 90 41 00
        E 0 90 3c 64
        E 96 90 3c 00
        E 0 90 41 64
        E 96 90 41 00
        E 0 90 41 64
        E 96 90 41 00
        E 0 90 45 64
        E 96 90 45 00
        E 0 90 46 64
        E 96 90 46 00
        E 0 90 43 64
        E 96 90 43 00
        E 0 90 44 64
        E 96 90 44 00
        E 0 90 41 64
        E 96 90 41 00
        E 0 90 3f 64
        E 192 90 3f 00
        E 96 90 46 64
        E 96 90 46 00
        E 0 90 46 64
        E 96 90 46 00
        E 0 90 45 64
        E 96 90 45 00
        E 0 90 43 64
        E 96 90 43 00
        E 0 90 43 64
        E 96 90 43 00
        E 0 90 43 64
        E 96 90 43 00
        E 0 90 40 64
        E 96 90 40 00
        E 0 90 41 64
        E 96 90 41 00
        E 0 90 3e 64
        E 96 90 3e 00
        E 0 90 3c 64
        E 192 90 3c 00
        E 96 90 3a 64
        E 96 90 3a 00
        E 0 90 3c 64
        E 96 90 3c 00
        E 0 90 39 64
        E 96 90 39 00
        E 0 90 3a 64
        E 96 90 3a 00
        E 0 90 37 64
        E 96 90 37 00
        E 0 90 35 64
        E 96 90 35 00
        E 0 90 41 64
        E 96 90 41 00
        E 0 90 3f 64
        E 96 90 3f 00
        E 0 90 3f 64
        E 96 90 3f 00
        E 0 90 3e 64
        E 96 90 3e 00
        E 0 90 41 64
        E 96 90 41 00
        E 0 90 43 64
        E 96 90 43 00
        E 0 90 41 64
        E 96 90 41 00
        E 0 90 3e 64
        E 192 90 3e 00
        E 96 90 3c 64
        E 96 90 3c 00
        E 0 90 41 64
        E 96 90 41 00
        E 0 90 3a 64
        E 96 90 3a 00
        E 0 90 3f 64
        E 96 90 3f 00
        E 0 90 41 64
        E 96 90 41 00
        E 0 90 3e 64
        E 96 90 3e 00
        E 0 90 41 64
        E 96 90 41 00
        E 0 90 43 64
        E 96 90 43 00
        E 0 90 41 64
        E 96 90 41 00
        E 0 90 3e 64
        E 192 90 3e 00
        E 96 90 46 64
        E 96 90 46 00
        E 0 90 46 64
        E 96 90 46 00
        E 0 90 43 64
        E 96 90 43 00
        E 0 90 46 64
        E 96 90 46 00
        E 0 90 46 64
        E 96 90 46 00
        E 0 90 46 64
        E 96 90 46 00
        E 0 90 43 64
        E 96 90 43 00
        E 0 90 46 64
        E 96 90 46 00
        E 0 90 46 64
        E 96 90 46 00
        E 0 90 43 64
        E 192 90 43 00
        E 0 90 43 64
        E 192 90 43 00
        E 0 90 41 64
        E 383 90 41 00
        E 1 b0 7b 00
        CCINTERP 32
        CHASE_CC_TAKEOFFS 1
        GUID {136A578A-366B-0A48-9FD7-036E398C3B91}
        IGNTEMPO 0 120 4 4
        SRCCOLOR 453
        VELLANE -1 100 0
        CFGEDITVIEW 0 0.494274 55 12 0 -1 0 0 0 0.5
        KEYSNAP 0
        TRACKSEL -252
        EVTFILTER 0 -1 -1 -1 -1 0 0 0 0 -1 -1 -1 -1 0 -1 0 -1 -1
        CFGEDIT 1 1 0 1 0 0 1 1 1 1 1 0.125 259 283 1920 854 0 0 0 0 0 0 0 0 0 0.5 0 0 1 64
      >
    >
  >
  <TRACK {0B10B25E-63BE-4E42-B484-E5E9C8B178CD}
    NAME Tenor
    PEAKCOL 16576
    BEAT -1
    AUTOMODE 0
    VOLPAN 1 0 -1 -1 1
    MUTESOLO 0 0 0
    IPHASE 0
    PLAYOFFS 0 1
    ISBUS 0 0
    BUSCOMP 0 0 0 0 0
    SHOWINMIX 1 0.6667 0.5 1 0.5 -1 -1 -1
    FREEMODE 0
    SEL 0
    REC 0 0 1 0 0 0 0
    VU 2
    TRACKHEIGHT 0 0 0 0 0 0
    INQ 0 0 0 0.5 100 0 0 100
    NCHAN 2
    FX 1
    TRACKID {0B10B25E-63BE-4E42-B484-E5E9C8B178CD}
    PERF 0
    MIDIOUT 0
    MAINSEND 1 0
    <ITEM
      POSITION 0
      SNAPOFFS 0
      LENGTH 457.14285714285717
      LOOP 0
      ALLTAKES 0
      FADEIN 1 0 0 1 0 0 0
      FADEOUT 1 0 0 1 0 0 0
      MUTE 0 0
      SEL 0
      IGUID {FB4FAF73-F9C9-8B4D-8145-6A2AF2C40756}
      IID 1
      NAME "Instrument 1 - fantasia_chromatica.mid"
      VOLPAN 1 0 1 -1
      SOFFS 0 0
      PLAYRATE 1 1 0 -1 0 0.0025
      CHANMODE 0
      GUID {ABDFE64D-F18C-854D-ABF4-A953F91660B3}
      <SOURCE MIDI
        HASDATA 1 1024 QN
        CCINTERP 32
        POOLEDEVTS {DDD90620-1B7A-6746-96A0-1DF07CC81FB2}
        e 10 92 32 78
        e 3958 82 32 00
        e 133 92 32 79
        e 1915 82 32 00
        e 154 92 32 78
        e 1766 82 32 00
        e 261 92 31 78
        e 2069 92 30 78
        e 80 82 31 00
        e 1947 92 2f 78
        e 75 82 30 00
        e 1994 92 2e 78
        e 80 82 2f 00
        e 1947 92 2d 77
        e 75 82 2e 00
        e 1959 82 2d 00
        e 1048 92 32 78
        e 1014 92 2d 78
        e 34 82 32 00
        e 1021 92 2f 78
        e 39 82 2d 00
        e 975 92 30 78
        e 39 82 2f 00
        e 974 92 32 78
        e 39 82 30 00
        e 975 92 34 77
        e 34 82 32 00
        e 986 82 34 00
        e 35 92 2f 78
        e 2027 92 31 78
        e 80 82 2f 00
        e 934 92 32 77
        e 34 82 31 00
        e 986 82 32 00
        e 35 92 2d 78
        e 2027 92 2f 78
        e 80 82 2d 00
        e 934 92 30 78
        e 34 82 2f 00
        e 266 92 2f 78
        e 29 82 30 00
        e 219 92 2d 78
        e 29 82 2f 00
        e 218 92 2f 78
        e 29 82 2d 00
        e 231 92 30 78
        e 29 82 2f 00
        e 230 92 2d 78
        e 29 82 30 00
        e 216 92 2f 78
        e 29 82 2d 00
        e 217 92 2b 78
        e 29 82 2f 00
        e 235 92 2d 78
        e 29 82 2b 00
        e 235 92 2b 78
        e 29 82 2d 00
        e 216 92 29 78
        e 29 82 2b 00
        e 217 92 2b 78
        e 29 82 29 00
        e 229 92 2d 78
        e 29 82 2b 00
        e 228 92 29 78
        e 29 82 2d 00
        e 217 92 2b 78
        e 29 82 29 00
        e 217 92 28 78
        e 29 82 2b 00
        e 236 92 29 77
        e 24 82 28 00
        e 996 82 29 00
        e 35 92 2b 78
        e 1014 92 2d 78
        e 39 82 2b 00
        e 974 92 2b 78
        e 39 82 2d 00
        e 464 92 29 78
        e 60 82 2b 00
        e 451 92 28 78
        e 55 82 29 00
        e 1504 92 2a 78
        e 60 82 28 00
        e 450 92 2b 78
        e 60 82 2a 00
        e 953 92 2d 77
        e 39 82 2b 00
        e 935 82 2d 00
        e 35 92 26 78
        e 1564 92 28 78
        e 60 82 26 00
        e 450 92 29 78
        e 60 82 28 00
        e 953 92 2b 77
        e 39 82 29 00
        e 935 82 2b 00
        e 40 92 2d 78
        e 1055 92 2b 78
        e 39 82 2d 00
        e 975 92 29 77
        e 39 82 2b 00
        e 1948 82 29 00
        e 40 92 2d 79
        e 2068 82 2d 00
        e 1 92 2d 78
        e 2027 92 2c 78
        e 75 82 2d 00
        e 1994 92 2b 78
        e 80 82 2c 00
        e 1947 92 2a 78
        e 75 82 2b 00
        e 1994 92 29 78
        e 80 82 2a 00
        e 1947 92 28 77
        e 75 82 29 00
        e 1959 82 28 00
        e 1048 92 2d 78
        e 1014 92 26 78
        e 34 82 2d 00
        e 1021 92 28 78
        e 39 82 26 00
        e 975 92 29 78
        e 39 82 28 00
        e 974 92 2b 78
        e 39 82 29 00
        e 975 92 2d 77
        e 34 82 2b 00
        e 986 82 2d 00
        e 35 92 28 78
        e 2027 92 2a 78
        e 80 82 28 00
        e 934 92 2b 77
        e 34 82 2a 00
        e 986 82 2b 00
        e 35 92 26 78
        e 2027 92 28 78
        e 80 82 26 00
        e 929 92 29 78
        e 39 82 28 00
        e 257 92 2b 78
        e 29 82 29 00
        e 219 92 2d 78
        e 29 82 2b 00
        e 219 92 2b 78
        e 29 82 2d 00
        e 231 92 29 78
        e 29 82 2b 00
        e 228 92 2b 78
        e 29 82 29 00
        e 211 92 2d 78
        e 29 82 2b 00
        e 214 92 2f 78
        e 27 82 2d 00
        e 229 82 2f 00
        e 0 92 30 78
        e 1536 82 30 00
        e 0 92 2f 78
        e 512 82 2f 00
        e 0 92 30 78
        e 1024 82 30 00
        e 0 92 32 78
        e 1024 82 32 00
        e 0 92 34 79
        e 1024 82 34 00
        e 0 92 32 79
        e 512 82 32 00
        e 0 92 30 79
        e 512 82 30 00
        e 0 92 2f 79
        e 1536 82 2f 00
        e 0 92 31 79
        e 512 82 31 00
        e 0 92 32 79
        e 1024 82 32 00
        e 0 92 34 79
        e 1024 82 34 00
        e 5 92 2d 78
        e 1559 92 2f 78
        e 60 82 2d 00
        e 450 92 30 78
        e 60 82 2f 00
        e 953 92 32 78
        e 39 82 30 00
        e 970 92 34 77
        e 39 82 32 00
        e 985 82 34 00
        e 36 92 32 78
        e 1014 92 30 78
        e 39 82 32 00
        e 974 92 2f 78
        e 39 82 30 00
        e 975 92 2d 77
        e 34 82 2f 00
        e 4022 82 2d 00
        e 9287 92 2d 78
        e 1014 92 26 78
        e 39 82 2d 00
        e 1477 92 28 78
        e 60 82 26 00
        e 451 92 29 78
        e 55 82 28 00
        e 1000 92 2b 78
        e 39 82 29 00
        e 975 92 2d 77
        e 39 82 2b 00
        e 1948 82 2d 00
        e 40 92 28 78
        e 1559 92 2a 78
        e 60 82 28 00
        e 450 92 2b 78
        e 60 82 2a 00
        e 953 92 28 78
        e 39 82 2b 00
        e 975 92 26 78
        e 34 82 28 00
        e 1525 92 28 78
        e 60 82 26 00
        e 450 92 29 78
        e 60 82 28 00
        e 953 92 28 78
        e 39 82 29 00
        e 458 82 28 00
        e 6 92 26 77
        e 441 82 26 00
        e 1629 92 2b 78
        e 510 92 2a 78
        e 60 82 2b 00
        e 449 92 2b 78
        e 60 82 2a 00
        e 186 92 2a 78
        e 29 82 2b 00
        e 229 92 2b 78
        e 29 82 2a 00
        e 103 92 2a 78
        e 14 82 2b 00
        e 111 92 2b 78
        e 14 82 2a 00
        e 109 92 2a 78
        e 14 82 2b 00
        e 109 92 2b 78
        e 14 82 2a 00
        e 108 92 2a 78
        e 14 82 2b 00
        e 110 92 28 78
        e 14 82 2a 00
        e 111 92 2a 78
        e 14 82 28 00
        e 126 92 2b 78
        e 9 82 2a 00
        e 2060 92 29 78
        e 80 82 2b 00
        e 933 92 28 77
        e 39 82 29 00
        e 935 82 28 00
        e 35 92 26 78
        e 1024 82 26 00
        e 0 92 28 78
        e 1050 92 29 78
        e 3 82 28 00
        e 1010 92 2b 78
        e 39 82 29 00
        e 975 92 2d 77
        e 34 82 2b 00
        e 986 82 2d 00
        e 35 92 28 78
        e 2027 92 2a 78
        e 80 82 28 00
        e 934 92 2b 77
        e 34 82 2a 00
        e 986 82 2b 00
        e 35 92 26 78
        e 2027 92 28 78
        e 80 82 26 00
        e 934 92 29 78
        e 34 82 28 00
        e 1021 92 28 77
        e 39 82 29 00
        e 940 82 28 00
        e 35 92 29 78
        e 509 92 2b 78
        e 60 82 29 00
        e 444 92 2d 78
        e 60 82 2b 00
        e 443 92 2f 78
        e 60 82 2d 00
        e 451 92 30 77
        e 55 82 2f 00
        e 2013 82 30 00
        e 1 92 30 78
        e 2027 92 2f 77
        e 75 82 30 00
        e 1993 82 2f 00
        e 1 92 2f 79
        e 998 92 28 78
        e 14 82 2f 00
        e 1010 82 28 00
        e 5 92 2d 79
        e 2068 82 2d 00
        e 1 92 2d 79
        e 998 92 26 77
        e 14 82 2d 00
        e 1010 82 26 00
        e 0 92 28 77
        e 2048 82 28 00
        e 26 92 30 79
        e 0 92 21 77
        e 1987 82 21 00
        e 34 82 30 00
        e 6 92 30 79
        e 2068 82 30 00
        e 1 92 30 79
        e 2021 82 30 00
        e 6 92 2f 78
        e 4090 82 2f 00
        e 6 92 2d 78
        e 4090 82 2d 00
        e 6 92 28 78
        e 4090 82 28 00
        e 2075 92 2d 78
        e 2027 92 28 78
        e 75 82 2d 00
        e 980 92 2a 78
        e 39 82 28 00
        e 975 92 2b 78
        e 39 82 2a 00
        e 974 92 2d 78
        e 39 82 2b 00
        e 975 92 2f 77
        e 34 82 2d 00
        e 986 82 2f 00
        e 35 92 2a 78
        e 2027 92 2c 78
        e 80 82 2a 00
        e 934 92 2d 77
        e 34 82 2c 00
        e 986 82 2d 00
        e 35 92 28 78
        e 2027 92 2a 78
        e 80 82 28 00
        e 934 92 2b 77
        e 34 82 2a 00
        e 2000 82 2b 00
        e 1048 92 2b 78
        e 1008 82 2b 00
        e 6 92 2b 78
        e 1055 92 2d 78
        e 39 82 2b 00
        e 949 82 2d 00
        e 0 92 2f 79
        e 1024 82 2f 00
        e 15 92 2d 78
        e 503 92 2b 78
        e 60 82 2d 00
        e 451 92 2a 78
        e 55 82 2b 00
        e 1504 92 2c 78
        e 60 82 2a 00
        e 450 92 2d 78
        e 60 82 2c 00
        e 938 92 2f 78
        e 54 82 2d 00
        e 970 82 2f 00
        e 5 92 28 78
        e 1559 92 2a 78
        e 60 82 28 00
        e 450 92 2b 78
        e 60 82 2a 00
        e 953 92 2d 77
        e 39 82 2b 00
        e 935 82 2d 00
        e 35 92 26 79
        e 2048 82 26 00
        e 4122 92 2d 79
        e 2021 82 2d 00
        e 6 92 2d 79
        e 2068 82 2d 00
        e 1 92 2d 78
        e 2027 92 2c 78
        e 75 82 2d 00
        e 1994 92 2b 78
        e 80 82 2c 00
        e 1947 92 2a 78
        e 75 82 2b 00
        e 1994 92 29 78
        e 80 82 2a 00
        e 1947 92 28 78
        e 75 82 29 00
        e 3007 92 26 77
        e 121 82 28 00
        e 853 82 26 00
        e 40 92 28 78
        e 1559 92 2a 78
        e 60 82 28 00
        e 450 92 2b 77
        e 60 82 2a 00
        e 952 82 2b 00
        e 1 92 2b 78
        e 1008 82 2b 00
        e 6 92 26 78
        e 1055 92 28 78
        e 39 82 26 00
        e 975 92 29 78
        e 39 82 28 00
        e 974 92 2b 78
        e 39 82 29 00
        e 970 92 2d 78
        e 39 82 2b 00
        e 2009 82 2d 00
        e 26 92 2d 79
        e 1012 82 2d 00
        e 1 92 2d 78
        e 1014 92 2c 78
        e 34 82 2d 00
        e 2035 92 2b 78
        e 80 82 2c 00
        e 1947 92 2d 78
        e 0 92 2a 78
        e 75 82 2b 00
        e 1994 92 29 78
        e 80 82 2a 00
        e 1941 82 2d 00
        e 6 92 28 77
        e 75 82 29 00
        e 1959 82 28 00
        e 1048 92 2b 78
        e 1014 92 26 78
        e 34 82 2b 00
        e 1525 92 28 78
        e 60 82 26 00
        e 450 92 29 78
        e 60 82 28 00
        e 449 92 2b 78
        e 60 82 29 00
        e 444 92 2d 78
        e 60 82 2b 00
        e 2009 92 2b 77
        e 39 82 2d 00
        e 940 82 2b 00
        e 35 92 29 79
        e 2021 82 29 00
        e 6 92 28 78
        e 1055 92 26 78
        e 39 82 28 00
        e 975 92 28 77
        e 39 82 26 00
        e 1948 82 28 00
        e 56 92 2a 78
        e 3066 92 2b 77
        e 121 82 2a 00
        e 853 82 2b 00
        e 40 92 2d 78
        e 4090 82 2d 00
        e 10267 92 2d 79
        e 2021 82 2d 00
        e 6 92 2d 79
        e 2068 82 2d 00
        e 1 92 2d 78
        e 2027 92 2c 78
        e 75 82 2d 00
        e 1994 92 2b 78
        e 80 82 2c 00
        e 1947 92 2a 78
        e 75 82 2b 00
        e 1994 92 29 78
        e 80 82 2a 00
        e 1947 92 28 77
        e 75 82 29 00
        e 1959 82 28 00
        e 35 92 29 79
        e 2021 82 29 00
        e 1025 92 2d 78
        e 1024 82 2d 00
        e 0 92 2e 78
        e 512 82 2e 00
        e 0 92 2d 78
        e 512 82 2d 00
        e 15 92 2b 78
        e 503 92 29 78
        e 60 82 2b 00
        e 451 92 28 77
        e 55 82 29 00
        e 964 92 2d 78
        e 1 82 28 00
        e 1023 82 2d 00
        e 0 92 2d 78
        e 512 82 2d 00
        e 23 92 2b 78
        e 504 92 29 78
        e 60 82 2b 00
        e 443 92 28 78
        e 60 82 29 00
        e 451 92 26 77
        e 55 82 28 00
        e 965 82 26 00
        e 35 92 2b 78
        e 1013 82 2b 00
        e 1 92 2b 78
        e 509 92 29 78
        e 60 82 2b 00
        e 444 92 28 78
        e 60 82 29 00
        e 443 92 26 78
        e 60 82 28 00
        e 451 92 24 77
        e 55 82 26 00
        e 965 82 24 00
        e 35 92 30 78
        e 1013 82 30 00
        e 1 92 30 78
        e 509 92 2f 78
        e 60 82 30 00
        e 444 92 2d 77
        e 60 82 2f 00
        e 914 82 2d 00
        e 8232 92 2b 79
        e 1054 82 2b 00
        e 1 92 2b 78
        e 504 92 29 78
        e 60 82 2b 00
        e 450 92 28 78
        e 60 82 29 00
        e 449 92 26 77
        e 60 82 28 00
        e 379 82 26 00
        e 65 92 24 78
        e 503 92 26 78
        e 60 82 24 00
        e 451 92 28 78
        e 55 82 26 00
        e 1000 92 29 78
        e 39 82 28 00
        e 1484 92 28 78
        e 60 82 29 00
        e 186 92 26 78
        e 29 82 28 00
        e 229 92 28 78
        e 29 82 26 00
        e 257 82 28 00
        e 217 92 26 78
        e 246 92 28 78
        e 29 82 26 00
        e 236 92 29 77
        e 24 82 28 00
        e 4032 82 29 00
        e 1095 92 2e 78
        e 1013 82 2e 00
        e 1 92 2e 78
        e 509 92 2d 78
        e 60 82 2e 00
        e 444 92 2b 78
        e 60 82 2d 00
        e 443 92 29 78
        e 60 82 2b 00
        e 451 92 2b 78
        e 55 82 29 00
        e 1504 92 2d 78
        e 60 82 2b 00
        e 450 92 2e 78
        e 60 82 2d 00
        e 1967 92 2d 77
        e 75 82 2e 00
        e 1968 82 2d 00
        e 4122 92 2b 79
        e 1012 82 2b 00
        e 1 92 2b 78
        e 503 92 29 78
        e 60 82 2b 00
        e 451 92 28 78
        e 55 82 29 00
        e 493 92 26 78
        e 60 82 28 00
        e 447 92 24 78
        e 60 82 26 00
        e 444 92 26 78
        e 60 82 24 00
        e 450 92 28 77
        e 60 82 26 00
        e 1927 82 28 00
        e 40 92 29 79
        e 1020 82 29 00
        e 35 92 29 78
        e 1014 92 28 78
        e 39 82 29 00
        e 1988 92 26 78
        e 75 82 28 00
        e 473 92 28 78
        e 60 82 26 00
        e 447 92 29 78
        e 60 82 28 00
        e 444 92 26 77
        e 60 82 29 00
        e 385 82 26 00
        e 65 92 2e 78
        e 1013 92 2d 78
        e 39 82 2e 00
        e 464 92 2b 78
        e 60 82 2d 00
        e 451 92 2d 77
        e 55 82 2b 00
        e 8132 82 2d 00
        e 5156 92 2d 78
        e 1013 82 2d 00
        e 1 92 2d 78
        e 1013 92 2f 78
        e 39 82 2d 00
        e 975 92 30 78
        e 34 82 2f 00
        e 1021 92 2d 78
        e 39 82 30 00
        e 975 92 30 78
        e 39 82 2d 00
        e 974 92 2f 78
        e 39 82 30 00
        e 464 92 2d 78
        e 60 82 2f 00
        e 451 92 2c 78
        e 55 82 2d 00
        e 1000 92 2d 78
        e 39 82 2c 00
        e 949 92 2a 77
        e 65 82 2d 00
        e 959 82 2a 00
        e 0 92 28 77
        e 512 82 28 00
        e 0 92 26 77
        e 512 82 26 00
        e 0 92 28 77
        e 1024 82 28 00
        e 36 92 2d 78
        e 1013 82 2d 00
        e 1 92 2d 78
        e 1013 92 2f 78
        e 39 82 2d 00
        e 975 92 30 78
        e 34 82 2f 00
        e 1021 92 2d 78
        e 39 82 30 00
        e 975 92 30 78
        e 39 82 2d 00
        e 974 92 2f 78
        e 39 82 30 00
        e 464 92 2d 78
        e 60 82 2f 00
        e 451 92 2b 78
        e 55 82 2d 00
        e 1000 92 2d 78
        e 39 82 2b 00
        e 975 92 2b 78
        e 39 82 2d 00
        e 974 92 2d 78
        e 39 82 2b 00
        e 975 92 2e 78
        e 34 82 2d 00
        e 1021 92 2b 77
        e 39 82 2e 00
        e 940 82 2b 00
        e 35 92 2e 78
        e 1013 92 2d 78
        e 39 82 2e 00
        e 464 92 2b 78
        e 60 82 2d 00
        e 451 92 29 78
        e 55 82 2b 00
        e 1504 92 2b 78
        e 60 82 29 00
        e 450 92 2d 77
        e 60 82 2b 00
        e 1927 82 2d 00
        e 21575 92 2d 78
        e 1013 82 2d 00
        e 1 92 2d 78
        e 1013 92 2f 78
        e 39 82 2d 00
        e 975 92 30 77
        e 34 82 2f 00
        e 986 82 30 00
        e 35 92 2d 78
        e 1014 92 30 78
        e 39 82 2d 00
        e 974 92 2f 78
        e 39 82 30 00
        e 464 92 2d 78
        e 60 82 2f 00
        e 451 92 2b 77
        e 55 82 2d 00
        e 4001 82 2b 00
        e 1095 92 30 78
        e 1013 82 30 00
        e 1 92 30 79
        e 1012 82 30 00
        e 1 92 32 78
        e 1008 82 32 00
        e 1 92 34 77
        e 1024 82 34 00
        e 36 92 30 78
        e 988 92 34 77
        e 25 82 30 00
        e 999 82 34 00
        e 15 92 32 78
        e 472 82 32 00
        e 31 92 30 78
        e 511 92 2f 77
        e 55 82 30 00
        e 965 82 2f 00
        e 35 92 30 78
        e 1013 82 30 00
        e 1 92 30 79
        e 1012 82 30 00
        e 1 92 2f 78
        e 503 92 2d 77
        e 60 82 2f 00
        e 381 82 2d 00
        e 70 92 2c 78
        e 2069 92 2d 78
        e 80 82 2c 00
        e 933 92 2b 78
        e 39 82 2d 00
        e 464 92 29 77
        e 60 82 2b 00
        e 381 82 29 00
        e 70 92 28 78
        e 4090 82 28 00
        e 6 92 29 78
        e 1019 82 29 00
        e 2063 92 32 78
        e 1008 82 32 00
        e 1 92 35 78
        e 1024 82 35 00
        e 0 92 34 78
        e 1024 82 34 00
        e 26 92 32 79
        e 1012 82 32 00
        e 1 92 30 78
        e 1008 82 30 00
        e 1 92 2e 79
        e 1054 82 2e 00
        e 6 92 2d 78
        e 1013 82 2d 00
        e 1 92 2b 79
        e 1012 82 2b 00
        e 1 92 29 78
        e 1008 82 29 00
        e 6 92 28 78
        e 4090 82 28 00
        e 3088 92 2d 78
        e 1008 82 2d 00
        e 6 92 32 79
        e 1054 82 32 00
        e 1 92 30 78
        e 1013 82 30 00
        e 1 92 2f 79
        e 1012 82 2f 00
        e 1 92 2d 78
        e 1008 82 2d 00
        e 6 92 2b 79
        e 1054 82 2b 00
        e 1 92 29 78
        e 1013 82 29 00
        e 1 92 28 79
        e 1012 82 28 00
        e 1 92 26 78
        e 1008 82 26 00
        e 6 92 28 79
        e 2068 82 28 00
        e 1 92 2d 79
        e 2021 82 2d 00
        e 6 92 2d 78
        e 4090 82 2d 00
        e 6 92 2d 78
        e 4090 82 2d 00
        e 6 92 2c 78
        e 4090 82 2c 00
        e 6 92 2b 78
        e 4090 82 2b 00
        e 6 92 2a 78
        e 4090 82 2a 00
        e 6 92 29 78
        e 4090 82 29 00
        e 6 92 28 78
        e 4090 82 28 00
        e 1061 92 28 78
        e 1014 92 2d 78
        e 39 82 28 00
        e 1477 92 2b 78
        e 60 82 2d 00
        e 451 92 2a 78
        e 55 82 2b 00
        e 1000 92 28 78
        e 39 82 2a 00
        e 975 92 26 77
        e 39 82 28 00
        e 6079 82 26 00
        e 5 92 24 78
        e 2043 82 24 00
        e 1039 92 2b 78
        e 1014 92 30 78
        e 34 82 2b 00
        e 1525 92 2f 78
        e 60 82 30 00
        e 450 92 2d 78
        e 60 82 2f 00
        e 953 92 2b 78
        e 39 82 2d 00
        e 975 92 29 78
        e 34 82 2b 00
        e 1021 92 28 78
        e 39 82 29 00
        e 465 92 26 78
        e 60 82 28 00
        e 450 92 28 77
        e 60 82 26 00
        e 1927 82 28 00
        e 40 92 26 79
        e 517 82 26 00
        e 31 92 28 78
        e 476 82 28 00
        e 31 92 29 78
        e 473 82 29 00
        e 31 92 2b 78
        e 479 82 2b 00
        e 31 92 2d 79
        e 2021 82 2d 00
        e 5121 92 34 76
        e 1024 82 34 00
        e 0 92 34 76
        e 1024 82 34 00
        e 0 92 34 76
        e 1024 82 34 00
        e 64 92 32 76
        e 4031 82 32 00
        e 1061 92 32 78
        e 1013 82 32 00
        e 1 92 32 79
        e 1012 82 32 00
        e 1 92 32 78
        e 1008 82 32 00
        e 15 92 2d 79
        e 2059 82 2d 00
        e 1 92 2d 79
        e 1012 82 2d 00
        e 1 92 2d 78
        e 1008 82 2d 00
        e 1 92 24 78
        e 256 82 24 00
        e 49 92 26 78
        e 248 92 28 78
        e 29 82 26 00
        e 218 92 29 78
        e 29 82 28 00
        e 195 92 2b 78
        e 65 82 29 00
        e 191 82 2b 00
        e 39 92 2d 78
        e 245 92 2f 78
        e 29 82 2d 00
        e 217 92 30 77
        e 29 82 2f 00
        e 234 82 30 00
        e 1 92 32 78
        e 230 92 34 78
        e 63 82 32 00
        e 193 82 34 00
        e 0 92 35 78
        e 256 82 35 00
        e 0 92 37 78
        e 256 82 37 00
        e 1038 92 2b 79
        e 4081 82 2b 00
        e 16 92 29 7b
        e 2058 82 29 00
        e 1 92 26 7b
        e 2021 82 26 00
        e 23 92 28 7b
        e 1002 82 28 00
        e 36 92 2d 78
        e 1013 82 2d 00
        e 1 92 2d 79
        e 478 82 2d 00
        e 31 92 2f 78
        e 473 82 2f 00
        e 31 92 30 78
        e 472 82 30 00
        e 31 92 32 78
        e 475 82 32 00
        e 31 92 34 78
        e 512 82 34 00
        e 41 92 28 78
        e 247 92 2a 78
        e 29 82 28 00
        e 231 92 2b 78
        e 29 82 2a 00
        e 230 92 2d 78
        e 29 82 2b 00
        e 216 92 2f 78
        e 29 82 2d 00
        e 217 92 30 78
        e 29 82 2f 00
        e 235 92 32 77
        e 29 82 30 00
        e 415 82 32 00
        e 65 92 26 78
        e 246 92 28 78
        e 29 82 26 00
        e 229 92 29 78
        e 29 82 28 00
        e 228 92 2b 78
        e 29 82 29 00
        e 217 92 2d 78
        e 29 82 2b 00
        e 217 92 2f 78
        e 29 82 2d 00
        e 236 92 30 77
        e 24 82 2f 00
        e 459 82 30 00
        e 18983 92 28 78
        e 257 92 24 78
        e 29 82 28 00
        e 211 92 28 78
        e 35 82 24 00
        e 217 92 29 78
        e 4 82 28 00
        e 261 92 2b 78
        e 24 82 29 00
        e 276 92 2d 78
        e 29 82 2b 00
        e 219 92 2f 78
        e 29 82 2d 00
        e 218 92 30 78
        e 29 82 2f 00
        e 231 92 32 77
        e 29 82 30 00
        e 180 82 32 00
        e 50 92 2b 78
        e 245 92 2e 78
        e 29 82 2b 00
        e 217 92 30 78
        e 29 82 2e 00
        e 235 92 32 77
        e 29 82 30 00
        e 185 82 32 00
        e 50 92 26 78
        e 245 92 29 78
        e 29 82 26 00
        e 217 92 2b 78
        e 29 82 29 00
        e 229 92 2d 77
        e 29 82 2b 00
        e 178 82 2d 00
        e 50 92 29 78
        e 246 92 2d 78
        e 29 82 29 00
        e 217 92 2f 78
        e 29 82 2d 00
        e 236 92 30 78
        e 24 82 2f 00
        e 276 92 32 78
        e 29 82 30 00
        e 178 92 34 78
        e 70 82 32 00
        e 186 82 34 00
        e 0 92 35 78
        e 256 82 35 00
        e 0 92 37 78
        e 512 82 37 00
        e 0 92 35 78
        e 256 82 35 00
        e 0 92 34 78
        e 256 82 34 00
        e 26 92 32 78
        e 264 92 30 78
        e 29 82 32 00
        e 216 92 2e 78
        e 29 82 30 00
        e 217 92 2d 78
        e 29 82 2e 00
        e 229 92 2b 78
        e 29 82 2d 00
        e 228 92 29 78
        e 29 82 2b 00
        e 217 92 28 78
        e 29 82 29 00
        e 217 92 26 78
        e 29 82 28 00
        e 236 92 24 78
        e 24 82 26 00
        e 305 82 24 00
        e 8163 92 2d 78
        e 248 92 26 78
        e 29 82 2d 00
        e 218 92 28 78
        e 29 82 26 00
        e 231 92 29 78
        e 29 82 28 00
        e 230 92 2b 78
        e 29 82 29 00
        e 216 92 2d 78
        e 29 82 2b 00
        e 217 92 2f 78
        e 29 82 2d 00
        e 235 92 31 78
        e 29 82 2f 00
        e 235 92 2d 78
        e 29 82 31 00
        e 216 92 2f 78
        e 29 82 2d 00
        e 217 92 31 78
        e 29 82 2f 00
        e 229 92 32 78
        e 29 82 31 00
        e 228 92 31 78
        e 29 82 32 00
        e 217 92 32 78
        e 29 82 31 00
        e 93 92 31 78
        e 14 82 32 00
        e 110 92 2f 78
        e 14 82 31 00
        e 111 92 31 78
        e 14 82 2f 00
        e 126 92 32 77
        e 9 82 31 00
        e 1010 92 34 78
        e 1 82 32 00
        e 1023 82 34 00
        e 26 92 30 79
        e 478 82 30 00
        e 31 92 32 78
        e 473 82 32 00
        e 16 92 34 78
        e 512 82 34 00
        e 6 92 30 78
        e 475 82 30 00
        e 31 92 34 78
        e 512 82 34 00
        e 41 92 2f 78
        e 471 92 28 78
        e 5 82 2f 00
        e 507 82 28 00
        e 0 92 34 78
        e 512 82 34 00
        e 26 92 32 79
        e 478 82 32 00
        e 31 92 2d 78
        e 473 82 2d 00
        e 16 92 26 78
        e 512 82 26 00
        e 6 92 32 78
        e 475 82 32 00
        e 31 92 34 78
        e 512 82 34 00
        e 41 92 30 78
        e 476 82 30 00
        e 31 92 2f 78
        e 473 82 2f 00
        e 31 92 2d 78
        e 479 82 2d 00
        e 31 92 2f 79
        e 478 82 2f 00
        e 31 92 30 78
        e 473 82 30 00
        e 31 92 32 78
        e 472 82 32 00
        e 31 92 2f 78
        e 475 82 2f 00
        e 36 92 32 79
        e 517 82 32 00
        e 31 92 2d 78
        e 1010 82 2d 00
        e 1 92 2d 78
        e 479 82 2d 00
        e 31 92 2f 79
        e 478 82 2f 00
        e 31 92 2d 78
        e 473 82 2d 00
        e 31 92 2f 78
        e 472 82 2f 00
        e 31 92 30 78
        e 475 82 30 00
        e 36 92 32 79
        e 547 82 32 00
        e 1 92 32 78
        e 507 92 30 78
        e 60 82 32 00
        e 444 92 2f 78
        e 60 82 30 00
        e 450 92 2d 78
        e 60 82 2f 00
        e 449 92 2f 78
        e 60 82 2d 00
        e 444 92 30 78
        e 60 82 2f 00
        e 443 92 32 77
        e 60 82 30 00
        e 381 82 32 00
        e 70 92 2b 78
        e 548 92 2d 78
        e 60 82 2b 00
        e 447 92 2f 78
        e 60 82 2d 00
        e 444 92 30 77
        e 60 82 2f 00
        e 385 82 30 00
        e 65 92 29 78
        e 509 92 2b 78
        e 60 82 29 00
        e 444 92 2d 78
        e 60 82 2b 00
        e 443 92 2f 77
        e 60 82 2d 00
        e 381 82 2f 00
        e 65 92 30 79
        e 1024 82 30 00
        e 36 92 2f 78
        e 1013 82 2f 00
        e 1 92 2b 79
        e 1012 82 2b 00
        e 1 92 2f 78
        e 1008 82 2f 00
        e 6 92 2a 79
        e 1054 82 2a 00
        e 1 92 2f 78
        e 2026 82 2f 00
        e 1 92 2d 78
        e 1008 82 2d 00
        e 6 92 2f 79
        e 2043 82 2f 00
        e 26 92 2d 79
        e 1012 82 2d 00
        e 1 92 2a 78
        e 1008 82 2a 00
        e 6 92 28 79
        e 1054 82 28 00
        e 1 92 2d 78
        e 2027 92 2b 78
        e 80 82 2d 00
        e 934 92 2d 78
        e 34 82 2b 00
        e 1525 92 2b 78
        e 60 82 2d 00
        e 186 92 29 78
        e 29 82 2b 00
        e 235 92 28 77
        e 29 82 29 00
        e 1958 82 28 00
        e 7218 92 32 78
        e 1008 82 32 00
        e 6 92 32 79
        e 1054 82 32 00
        e 1 92 32 78
        e 1013 82 32 00
        e 1 92 31 79
        e 1012 82 31 00
        e 1 92 30 78
        e 1008 82 30 00
        e 6 92 2f 79
        e 1054 82 2f 00
        e 1 92 2e 78
        e 1013 82 2e 00
        e 1 92 2d 79
        e 4095 82 2d 00
        e 3083 92 2d 78
        e 1013 82 2d 00
        e 1 92 28 79
        e 2021 82 28 00
        e 6 92 2c 79
        e 1054 82 2c 00
        e 1 92 2b 78
        e 1013 82 2b 00
        e 1 92 2a 79
        e 1012 82 2a 00
        e 1 92 29 78
        e 1008 82 29 00
        e 6 92 28 79
        e 2068 82 28 00
        e 1014 92 32 78
        e 1008 82 32 00
        e 6 92 32 79
        e 1054 82 32 00
        e 1 92 32 78
        e 1013 82 32 00
        e 1 92 31 79
        e 1012 82 31 00
        e 1 92 30 78
        e 1008 82 30 00
        e 6 92 2f 79
        e 1054 82 2f 00
        e 1 92 2e 78
        e 1013 82 2e 00
        e 1 92 2d 79
        e 478 82 2d 00
        e 31 92 2f 78
        e 473 82 2f 00
        e 31 92 30 78
        e 472 82 30 00
        e 31 92 32 78
        e 475 82 32 00
        e 31 92 34 79
        e 512 82 34 00
        e 41 92 32 78
        e 476 82 32 00
        e 31 92 31 78
        e 473 82 31 00
        e 31 92 32 78
        e 479 82 32 00
        e 5 92 34 78
        e 512 82 34 00
        e 23 92 32 78
        e 230 82 32 00
        e 16 92 30 78
        e 242 82 30 00
        e 16 92 2f 78
        e 472 82 2f 00
        e 31 92 30 78
        e 475 82 30 00
        e 36 92 32 79
        e 517 82 32 00
        e 31 92 30 78
        e 231 82 30 00
        e 16 92 2f 78
        e 244 82 2f 00
        e 16 92 2d 78
        e 473 82 2d 00
        e 31 92 2f 78
        e 479 82 2f 00
        e 31 92 30 79
        e 1012 82 30 00
        e 1 92 2f 78
        e 1008 82 2f 00
        e 554 92 2d 78
        e 506 82 2d 00
        e 1 92 2d 78
        e 503 82 2d 00
        e 1 92 2d 78
        e 510 92 2c 78
        e 60 82 2d 00
        e 449 92 2b 78
        e 60 82 2c 00
        e 444 92 2a 78
        e 60 82 2b 00
        e 443 92 29 78
        e 60 82 2a 00
        e 451 92 28 78
        e 55 82 29 00
        e 3027 92 26 78
        e 121 82 28 00
        e 893 92 25 78
        e 34 82 26 00
        e 3048 92 26 77
        e 121 82 25 00
        e 853 82 26 00
        e 40 92 28 79
        e 517 82 28 00
        e 31 92 2d 78
        e 506 82 2d 00
        e 1 92 2d 78
        e 503 82 2d 00
        e 1 92 2d 78
        e 510 92 2c 78
        e 60 82 2d 00
        e 449 92 2b 78
        e 60 82 2c 00
        e 444 92 2a 78
        e 60 82 2b 00
        e 443 92 29 77
        e 60 82 2a 00
        e 381 82 29 00
        e 79 92 28 79
        e 4081 82 28 00
        e 6 92 2a 78
        e 1559 92 2b 78
        e 60 82 2a 00
        e 450 92 2d 78
        e 60 82 2b 00
        e 953 92 2b 78
        e 39 82 2d 00
        e 975 92 2a 77
        e 34 82 2b 00
        e 473 82 2a 00
        e 41 92 32 78
        e 506 82 32 00
        e 1 92 32 78
        e 503 82 32 00
        e 1 92 32 78
        e 510 92 31 78
        e 60 82 32 00
        e 449 92 30 78
        e 60 82 31 00
        e 444 92 2f 78
        e 60 82 30 00
        e 443 92 2e 78
        e 60 82 2f 00
        e 451 92 2d 77
        e 55 82 2e 00
        e 965 82 2d 00
        e 35 92 2a 78
        e 2027 92 2b 78
        e 80 82 2a 00
        e 934 92 2d 77
        e 34 82 2b 00
        e 986 82 2d 00
        e 35 92 2b 78
        e 1014 92 26 78
        e 39 82 2b 00
        e 1477 92 28 78
        e 60 82 26 00
        e 451 92 29 78
        e 55 82 28 00
        e 493 92 2b 78
        e 60 82 29 00
        e 447 92 2d 77
        e 60 82 2b 00
        e 379 82 2d 00
        e 65 92 29 78
        e 479 82 29 00
        e 31 92 2e 79
        e 2021 82 2e 00
        e 6 92 2d 78
        e 12282 82 2d 00
        e 311 92 2d 76
        e 9930 82 2d 00
        E 6144 b0 7b 00
        CCINTERP 32
        CHASE_CC_TAKEOFFS 1
        GUID {6F6C1B8C-35DF-BF46-AAEC-15301AACE252}
        IGNTEMPO 0 120 4 4
        SRCCOLOR 1
        VELLANE -1 100 0
        CFGEDITVIEW -1179.258824 0.061096 45 12 0 -1 0 0 0 0.5
        KEYSNAP 0
        TRACKSEL -252
        EVTFILTER 0 -1 -1 -1 -1 0 0 0 0 -1 -1 -1 -1 0 -1 0 -1 -1
        CFGEDIT 1 1 0 1 0 4 1 1 1 1 1 0.25 0 164 1920 938 0 0 0 0 0 0 0 0 0 0.5 0 0 1 64
      >
    >
    <ITEM
      POSITION 887.42857142857122
      SNAPOFFS 0
      LENGTH 124.79999999995039
      LOOP 0
      ALLTAKES 0
      FADEIN 1 0 0 1 0 0 0
      FADEOUT 1 0 0 1 0 0 0
      MUTE 0 0
      SEL 0
      IGUID {298C8577-75DC-254C-8CA1-C5DBA6A5D59A}
      IID 121
      NAME "Clarinet - tocatta_.mid"
      VOLPAN 1 0 1 -1
      SOFFS 0 0
      PLAYRATE 1 1 0 -1 0 0.0025
      CHANMODE 0
      GUID {8D7D7C20-4A94-6643-9D7A-D5612EAC5970}
      <SOURCE MIDI
        HASDATA 1 96 QN
        CCINTERP 32
        POOLEDEVTS {E5F60CE0-E696-5B47-AD70-A2A69748F8C0}
        e 0 92 3c 64
        e 288 92 3c 00
        e 0 92 3e 64
        e 96 92 3e 00
        e 0 92 40 64
        e 288 92 40 00
        e 0 92 3e 64
        e 96 92 3e 00
        e 0 92 3c 64
        e 96 92 3c 00
        e 0 92 40 64
        e 96 92 40 00
        e 0 92 3e 64
        e 96 92 3e 00
        e 0 92 3c 64
        e 96 92 3c 00
        e 0 92 3b 64
        e 192 92 3b 00
        e 0 92 38 64
        e 192 92 38 00
        e 0 92 39 64
        e 192 92 39 00
        e 0 92 3b 64
        e 192 92 3b 00
        e 0 92 3c 64
        e 192 92 3c 00
        e 0 92 3b 64
        e 96 92 3b 00
        e 0 92 39 64
        e 48 92 39 00
        e 0 92 3b 64
        e 48 92 3b 00
        e 0 92 3c 64
        e 96 92 3c 00
        e 0 92 3b 64
        e 48 92 3b 00
        e 0 92 3c 64
        e 48 92 3c 00
        e 0 92 3e 64
        e 96 92 3e 00
        e 0 92 3c 64
        e 48 92 3c 00
        e 0 92 3e 64
        e 48 92 3e 00
        e 0 92 40 64
        e 192 92 40 00
        e 0 92 41 64
        e 192 92 41 00
        e 0 92 43 64
        e 192 92 43 00
        e 0 92 45 64
        e 192 92 45 00
        e 0 92 43 64
        e 96 92 43 00
        e 0 92 45 64
        e 48 92 45 00
        e 0 92 43 64
        e 48 92 43 00
        e 0 92 41 64
        e 96 92 41 00
        e 0 92 43 64
        e 48 92 43 00
        e 0 92 41 64
        e 48 92 41 00
        e 0 92 40 64
        e 96 92 40 00
        e 0 92 41 64
        e 48 92 41 00
        e 0 92 40 64
        e 48 92 40 00
        e 0 92 3e 64
        e 48 92 3e 00
        e 0 92 40 64
        e 48 92 40 00
        e 0 92 3c 64
        e 48 92 3c 00
        e 0 92 3e 64
        e 48 92 3e 00
        e 0 92 3b 64
        e 384 92 3b 00
        e 0 92 40 64
        e 192 92 40 00
        e 0 92 3e 64
        e 96 92 3e 00
        e 0 92 3c 64
        e 96 92 3c 00
        e 0 92 3b 64
        e 384 92 3b 00
        e 0 92 34 64
        e 96 92 34 00
        e 0 92 39 64
        e 192 92 39 00
        e 0 92 38 64
        e 96 92 38 00
        e 0 92 39 64
        e 192 92 39 00
        e 0 92 40 64
        e 288 92 40 00
        e 0 92 3e 64
        e 192 92 3e 00
        e 0 92 3d 64
        e 96 92 3d 00
        e 0 92 3e 64
        e 96 92 3e 00
        e 672 92 3b 64
        e 96 92 3b 00
        e 0 92 40 64
        e 192 92 40 00
        e 0 92 3e 64
        e 192 92 3e 00
        e 0 92 3c 64
        e 192 92 3c 00
        e 0 92 3b 64
        e 96 92 3b 00
        e 0 92 3c 64
        e 96 92 3c 00
        e 480 92 41 64
        e 192 92 41 00
        e 0 92 40 64
        e 384 92 40 00
        e 0 92 40 64
        e 192 92 40 00
        e 0 92 41 64
        e 192 92 41 00
        e 0 92 40 64
        e 384 92 40 00
        e 0 92 38 64
        e 0 92 3b 64
        e 384 92 38 00
        e 0 92 3b 00
        e 816 92 39 64
        e 48 92 39 00
        e 0 92 36 64
        e 48 92 36 00
        e 0 92 32 64
        e 48 92 32 00
        e 0 92 39 64
        e 48 92 39 00
        e 0 92 37 64
        e 48 92 37 00
        e 0 92 39 64
        e 24 92 39 00
        e 0 92 37 64
        e 24 92 37 00
        e 0 92 36 64
        e 24 92 36 00
        e 0 92 34 64
        e 24 92 34 00
        e 0 92 36 64
        e 0 92 32 64
        e 384 92 36 00
        e 0 92 32 00
        e 0 92 3e 64
        e 0 92 3b 64
        e 384 92 3e 00
        e 0 92 3b 00
        e 0 92 3c 64
        e 0 92 37 64
        e 192 92 3c 00
        e 192 92 37 00
        e 0 92 3e 64
        e 0 92 39 64
        e 192 92 3e 00
        e 192 92 39 00
        e 0 92 37 64
        e 384 92 37 00
        e 0 92 39 64
        e 0 92 34 64
        e 384 92 39 00
        e 0 92 34 00
        e 0 92 39 64
        e 384 92 39 00
        e 0 92 3b 64
        e 192 92 3b 00
        e 3360 92 39 64
        e 192 92 39 00
        e 0 92 3e 64
        e 96 92 3e 00
        e 0 92 39 64
        e 192 92 39 00
        e 0 92 3e 64
        e 192 92 3e 00
        e 0 92 39 64
        e 0 92 35 64
        e 384 92 39 00
        e 0 92 35 00
        e 0 92 39 64
        e 0 92 40 64
        e 1152 92 39 00
        e 0 92 40 00
        E 0 b0 7b 00
        CCINTERP 32
        CHASE_CC_TAKEOFFS 1
        GUID {6EA38833-D67C-444D-A45E-B47E48FFC248}
        IGNTEMPO 0 120 4 4
        SRCCOLOR 361
        VELLANE -1 100 0
        CFGEDITVIEW -656.64 0.65169 45 12 0 -1 0 0 0 0.5
        KEYSNAP 0
        TRACKSEL -252
        EVTFILTER 0 -1 -1 -1 -1 0 0 0 0 -1 -1 -1 -1 0 -1 0 -1 -1
        CFGEDIT 1 1 0 1 0 4 1 1 1 1 1 0.25 0 164 1920 938 0 0 0 0 0 0 0 0 0 0.5 0 0 1 64
      >
    >
    <ITEM
      POSITION 1117.6901098900835
      SNAPOFFS 0
      LENGTH 217.84615384616995
      LOOP 1
      ALLTAKES 0
      FADEIN 1 0 0 1 0 0 0
      FADEOUT 1 0 0 1 0 0 0
      MUTE 0 0
      SEL 0
      IGUID {5E3A6238-01CE-D242-998D-68636FBCA3B3}
      IID 92
      NAME "Bassoon - hodie.mid"
      VOLPAN 1 0 1 -1
      SOFFS 0 0
      PLAYRATE 1 1 0 -1 0 0.0025
      CHANMODE 0
      GUID {95A4C984-38DA-C24B-9734-7689F46B2CB6}
      <SOURCE MIDI
        HASDATA 1 96 QN
        CCINTERP 32
        POOLEDEVTS {1357C7E2-D944-2541-9D2F-8A9D18A911E0}
        E 0 90 3a 64
        E 144 90 3a 00
        E 0 90 3c 64
        E 48 90 3c 00
        E 0 90 3e 64
        E 96 90 3e 00
        E 0 90 41 64
        E 144 90 41 00
        E 0 90 3f 64
        E 48 90 3f 00
        E 0 90 3e 64
        E 96 90 3e 00
        E 816 90 3f 64
        E 384 90 3f 00
        E 0 90 3a 64
        E 192 90 3a 00
        E 0 90 3a 64
        E 48 90 3a 00
        E 0 90 3c 64
        E 48 90 3c 00
        E 0 90 3e 64
        E 48 90 3e 00
        E 0 90 3f 64
        E 48 90 3f 00
        E 0 90 41 64
        E 144 90 41 00
        E 0 90 3f 64
        E 48 90 3f 00
        E 0 90 3e 64
        E 144 90 3e 00
        E 0 90 3c 64
        E 48 90 3c 00
        E 0 90 3a 64
        E 96 90 3a 00
        E 0 90 3a 64
        E 96 90 3a 00
        E 0 90 35 64
        E 192 90 35 00
        E 0 90 41 64
        E 288 90 41 00
        E 0 90 41 64
        E 96 90 41 00
        E 0 90 41 64
        E 192 90 41 00
        E 672 90 39 64
        E 96 90 39 00
        E 0 90 37 64
        E 96 90 37 00
        E 0 90 3c 64
        E 96 90 3c 00
        E 0 90 35 64
        E 96 90 35 00
        E 0 90 39 64
        E 96 90 39 00
        E 0 90 3c 64
        E 96 90 3c 00
        E 0 90 3c 64
        E 96 90 3c 00
        E 0 90 3c 64
        E 192 90 3c 00
        E 48 90 41 64
        E 144 90 41 00
        E 0 90 3f 64
        E 48 90 3f 00
        E 0 90 3e 64
        E 96 90 3e 00
        E 0 90 3a 64
        E 144 90 3a 00
        E 0 90 3c 64
        E 48 90 3c 00
        E 0 90 3e 64
        E 96 90 3e 00
        E 912 90 3e 64
        E 96 90 3e 00
        E 0 90 43 64
        E 192 90 43 00
        E 0 90 3f 64
        E 96 90 3f 00
        E 0 90 3c 64
        E 96 90 3c 00
        E 0 90 41 64
        E 96 90 41 00
        E 0 90 41 64
        E 96 90 41 00
        E 0 90 3e 64
        E 192 90 3e 00
        E 96 90 3a 64
        E 96 90 3a 00
        E 0 90 3f 64
        E 192 90 3f 00
        E 0 90 3c 64
        E 96 90 3c 00
        E 0 90 39 64
        E 96 90 39 00
        E 0 90 3c 64
        E 96 90 3c 00
        E 0 90 3c 64
        E 96 90 3c 00
        E 0 90 3a 64
        E 96 90 3a 00
        E 0 90 37 64
        E 96 90 37 00
        E 0 90 3a 64
        E 96 90 3a 00
        E 0 90 3a 64
        E 96 90 3a 00
        E 0 90 35 64
        E 192 90 35 00
        E 96 90 3c 64
        E 96 90 3c 00
        E 0 90 41 64
        E 192 90 41 00
        E 0 90 3e 64
        E 96 90 3e 00
        E 0 90 3a 64
        E 96 90 3a 00
        E 0 90 3c 64
        E 96 90 3c 00
        E 0 90 3c 64
        E 96 90 3c 00
        E 0 90 3a 64
        E 192 90 3a 00
        E 480 90 41 64
        E 96 90 41 00
        E 0 90 3e 64
        E 48 90 3e 00
        E 0 90 3c 64
        E 48 90 3c 00
        E 0 90 3a 64
        E 48 90 3a 00
        E 0 90 39 64
        E 48 90 39 00
        E 0 90 37 64
        E 96 90 37 00
        E 0 90 39 64
        E 96 90 39 00
        E 0 90 3a 64
        E 192 90 3a 00
        E 96 90 41 64
        E 96 90 41 00
        E 0 90 3e 64
        E 48 90 3e 00
        E 0 90 3c 64
        E 48 90 3c 00
        E 0 90 3a 64
        E 48 90 3a 00
        E 0 90 39 64
        E 48 90 39 00
        E 0 90 37 64
        E 96 90 37 00
        E 0 90 39 64
        E 96 90 39 00
        E 0 90 3a 64
        E 96 90 3a 00
        E 0 90 41 64
        E 96 90 41 00
        E 0 90 43 64
        E 96 90 43 00
        E 0 90 41 64
        E 96 90 41 00
        E 0 90 41 64
        E 192 90 41 00
        E 96 90 3c 64
        E 96 90 3c 00
        E 0 90 41 64
        E 48 90 41 00
        E 0 90 3f 64
        E 48 90 3f 00
        E 0 90 3e 64
        E 48 90 3e 00
        E 0 90 3c 64
        E 48 90 3c 00
        E 0 90 3a 64
        E 96 90 3a 00
        E 0 90 3c 64
        E 96 90 3c 00
        E 0 90 35 64
        E 96 90 35 00
        E 0 90 35 64
        E 96 90 35 00
        E 0 90 3a 64
        E 96 90 3a 00
        E 0 90 33 64
        E 96 90 33 00
        E 0 90 35 64
        E 192 90 35 00
        E 48 90 3a 64
        E 144 90 3a 00
        E 0 90 3c 64
        E 48 90 3c 00
        E 0 90 3e 64
        E 96 90 3e 00
        E 0 90 41 64
        E 144 90 41 00
        E 0 90 3f 64
        E 48 90 3f 00
        E 0 90 3e 64
        E 96 90 3e 00
        E 624 90 3e 64
        E 384 90 3e 00
        E 0 90 3a 64
        E 192 90 3a 00
        E 0 90 3a 64
        E 192 90 3a 00
        E 0 90 3f 64
        E 48 90 3f 00
        E 0 90 3e 64
        E 48 90 3e 00
        E 0 90 3f 64
        E 48 90 3f 00
        E 0 90 3c 64
        E 48 90 3c 00
        E 0 90 3e 64
        E 48 90 3e 00
        E 0 90 3c 64
        E 48 90 3c 00
        E 0 90 3e 64
        E 48 90 3e 00
        E 0 90 3a 64
        E 48 90 3a 00
        E 0 90 3c 64
        E 96 90 3c 00
        E 0 90 3e 64
        E 96 90 3e 00
        E 0 90 3c 64
        E 96 90 3c 00
        E 0 90 3c 64
        E 96 90 3c 00
        E 0 90 3a 64
        E 192 90 3a 00
        E 96 90 3e 64
        E 96 90 3e 00
        E 0 90 3c 64
        E 96 90 3c 00
        E 0 90 3e 64
        E 96 90 3e 00
        E 0 90 3c 64
        E 48 90 3c 00
        E 0 90 3a 64
        E 48 90 3a 00
        E 0 90 3c 64
        E 48 90 3c 00
        E 0 90 3e 64
        E 48 90 3e 00
        E 0 90 3f 64
        E 96 90 3f 00
        E 0 90 3f 64
        E 96 90 3f 00
        E 0 90 3e 64
        E 144 90 3e 00
        E 0 90 3f 64
        E 48 90 3f 00
        E 0 90 3c 64
        E 96 90 3c 00
        E 0 90 3a 64
        E 96 90 3a 00
        E 0 90 3c 64
        E 96 90 3c 00
        E 0 90 3c 64
        E 96 90 3c 00
        E 0 90 3a 64
        E 192 90 3a 00
        E 0 90 3e 64
        E 48 90 3e 00
        E 0 90 3c 64
        E 48 90 3c 00
        E 0 90 3e 64
        E 48 90 3e 00
        E 0 90 3a 64
        E 48 90 3a 00
        E 0 90 3c 64
        E 96 90 3c 00
        E 0 90 3e 64
        E 96 90 3e 00
        E 0 90 3c 64
        E 96 90 3c 00
        E 0 90 3c 64
        E 96 90 3c 00
        E 0 90 35 64
        E 192 90 35 00
        E 576 90 3a 64
        E 96 90 3a 00
        E 0 90 39 64
        E 144 90 39 00
        E 0 90 37 64
        E 48 90 37 00
        E 0 90 39 64
        E 96 90 39 00
        E 0 90 3a 64
        E 192 90 3a 00
        E 0 90 37 64
        E 96 90 37 00
        E 0 90 35 64
        E 192 90 35 00
        E 0 90 35 64
        E 96 90 35 00
        E 0 90 3a 64
        E 144 90 3a 00
        E 0 90 39 64
        E 48 90 39 00
        E 0 90 37 64
        E 96 90 37 00
        E 0 90 3e 64
        E 192 90 3e 00
        E 0 90 3e 64
        E 96 90 3e 00
        E 0 90 37 64
        E 192 90 37 00
        E 0 90 43 64
        E 96 90 43 00
        E 0 90 42 64
        E 144 90 42 00
        E 0 90 40 64
        E 48 90 40 00
        E 0 90 42 64
        E 96 90 42 00
        E 0 90 43 64
        E 192 90 43 00
        E 0 90 3f 64
        E 96 90 3f 00
        E 0 90 3e 64
        E 288 90 3e 00
        E 384 90 37 64
        E 96 90 37 00
        E 0 90 3c 64
        E 96 90 3c 00
        E 0 90 3b 64
        E 96 90 3b 00
        E 0 90 3c 64
        E 96 90 3c 00
        E 0 90 37 64
        E 96 90 37 00
        E 0 90 3c 64
        E 96 90 3c 00
        E 0 90 3b 64
        E 96 90 3b 00
        E 0 90 3c 64
        E 96 90 3c 00
        E 0 90 37 64
        E 96 90 37 00
        E 0 90 3c 64
        E 96 90 3c 00
        E 0 90 39 64
        E 96 90 39 00
        E 0 90 3a 64
        E 96 90 3a 00
        E 0 90 35 64
        E 96 90 35 00
        E 0 90 3a 64
        E 96 90 3a 00
        E 0 90 39 64
        E 96 90 39 00
        E 0 90 3a 64
        E 96 90 3a 00
        E 0 90 3a 64
        E 96 90 3a 00
        E 0 90 3c 64
        E 192 90 3c 00
        E 48 90 41 64
        E 144 90 41 00
        E 0 90 3f 64
        E 48 90 3f 00
        E 0 90 3e 64
        E 96 90 3e 00
        E 0 90 3a 64
        E 144 90 3a 00
        E 0 90 3c 64
        E 48 90 3c 00
        E 0 90 3e 64
        E 96 90 3e 00
        E 672 90 3a 64
        E 96 90 3a 00
        E 0 90 3e 64
        E 96 90 3e 00
        E 0 90 41 64
        E 96 90 41 00
        E 0 90 3a 64
        E 192 90 3a 00
        E 0 90 3a 64
        E 96 90 3a 00
        E 0 90 3a 64
        E 96 90 3a 00
        E 0 90 35 64
        E 96 90 35 00
        E 0 90 35 64
        E 96 90 35 00
        E 0 90 35 64
        E 192 90 35 00
        E 0 90 3a 64
        E 96 90 3a 00
        E 0 90 3a 64
        E 96 90 3a 00
        E 0 90 3f 64
        E 192 90 3f 00
        E 0 90 3e 64
        E 192 90 3e 00
        E 384 90 3e 64
        E 96 90 3e 00
        E 0 90 3c 64
        E 96 90 3c 00
        E 0 90 3a 64
        E 96 90 3a 00
        E 0 90 3c 64
        E 96 90 3c 00
        E 0 90 3e 64
        E 96 90 3e 00
        E 0 90 3c 64
        E 96 90 3c 00
        E 0 90 3e 64
        E 96 90 3e 00
        E 0 90 3f 64
        E 96 90 3f 00
        E 0 90 41 64
        E 192 90 41 00
        E 0 90 41 64
        E 192 90 41 00
        E 0 90 41 64
        E 384 90 41 00
        E 0 90 3e 64
        E 96 90 3e 00
        E 0 90 3c 64
        E 96 90 3c 00
        E 0 90 3a 64
        E 96 90 3a 00
        E 0 90 3c 64
        E 96 90 3c 00
        E 0 90 3e 64
        E 96 90 3e 00
        E 0 90 3c 64
        E 96 90 3c 00
        E 0 90 3a 64
        E 96 90 3a 00
        E 0 90 39 64
        E 96 90 39 00
        E 0 90 37 64
        E 192 90 37 00
        E 0 90 37 64
        E 192 90 37 00
        E 0 90 37 64
        E 384 90 37 00
        E 384 90 3f 64
        E 96 90 3f 00
        E 0 90 41 64
        E 96 90 41 00
        E 0 90 43 64
        E 96 90 43 00
        E 0 90 41 64
        E 96 90 41 00
        E 0 90 3f 64
        E 192 90 3f 00
        E 0 90 3c 64
        E 192 90 3c 00
        E 0 90 3f 64
        E 96 90 3f 00
        E 0 90 41 64
        E 96 90 41 00
        E 0 90 43 64
        E 96 90 43 00
        E 0 90 3f 64
        E 96 90 3f 00
        E 0 90 3e 64
        E 384 90 3e 00
        E 0 90 3c 64
        E 384 90 3c 00
        E 0 90 35 64
        E 192 90 35 00
        E 0 90 35 64
        E 192 90 35 00
        E 0 90 35 64
        E 384 90 35 00
        E 0 90 3c 64
        E 96 90 3c 00
        E 0 90 3a 64
        E 96 90 3a 00
        E 0 90 39 64
        E 96 90 39 00
        E 0 90 3a 64
        E 96 90 3a 00
        E 0 90 3c 64
        E 96 90 3c 00
        E 0 90 3a 64
        E 96 90 3a 00
        E 0 90 39 64
        E 96 90 39 00
        E 0 90 37 64
        E 96 90 37 00
        E 0 90 35 64
        E 192 90 35 00
        E 0 90 35 64
        E 192 90 35 00
        E 0 90 35 64
        E 384 90 35 00
        E 384 90 3e 64
        E 96 90 3e 00
        E 0 90 3f 64
        E 96 90 3f 00
        E 0 90 41 64
        E 96 90 41 00
        E 0 90 3f 64
        E 96 90 3f 00
        E 0 90 3e 64
        E 192 90 3e 00
        E 0 90 3a 64
        E 192 90 3a 00
        E 0 90 3e 64
        E 96 90 3e 00
        E 0 90 3f 64
        E 96 90 3f 00
        E 0 90 41 64
        E 96 90 41 00
        E 0 90 3f 64
        E 96 90 3f 00
        E 0 90 3e 64
        E 192 90 3e 00
        E 0 90 3a 64
        E 192 90 3a 00
        E 288 90 3e 64
        E 96 90 3e 00
        E 0 90 3a 64
        E 96 90 3a 00
        E 0 90 3c 64
        E 96 90 3c 00
        E 0 90 3e 64
        E 192 90 3e 00
        E 288 90 41 64
        E 96 90 41 00
        E 0 90 41 64
        E 96 90 41 00
        E 0 90 3e 64
        E 96 90 3e 00
        E 0 90 3f 64
        E 96 90 3f 00
        E 0 90 3c 64
        E 96 90 3c 00
        E 0 90 3a 64
        E 192 90 3a 00
        E 96 90 3c 64
        E 96 90 3c 00
        E 0 90 41 64
        E 96 90 41 00
        E 0 90 3e 64
        E 96 90 3e 00
        E 0 90 3c 64
        E 192 90 3c 00
        E 288 90 3e 64
        E 96 90 3e 00
        E 0 90 3a 64
        E 96 90 3a 00
        E 0 90 3c 64
        E 96 90 3c 00
        E 0 90 3e 64
        E 96 90 3e 00
        E 0 90 3e 64
        E 96 90 3e 00
        E 0 90 43 64
        E 96 90 43 00
        E 0 90 41 64
        E 96 90 41 00
        E 0 90 3e 64
        E 192 90 3e 00
        E 288 90 43 64
        E 96 90 43 00
        E 0 90 43 64
        E 96 90 43 00
        E 0 90 41 64
        E 96 90 41 00
        E 0 90 3e 64
        E 96 90 3e 00
        E 0 90 40 64
        E 96 90 40 00
        E 0 90 41 64
        E 144 90 41 00
        E 0 90 3f 64
        E 48 90 3f 00
        E 0 90 3e 64
        E 96 90 3e 00
        E 0 90 3c 64
        E 48 90 3c 00
        E 0 90 3a 64
        E 48 90 3a 00
        E 0 90 39 64
        E 48 90 39 00
        E 0 90 37 64
        E 48 90 37 00
        E 0 90 35 64
        E 96 90 35 00
        E 288 90 3a 64
        E 96 90 3a 00
        E 0 90 37 64
        E 96 90 37 00
        E 0 90 39 64
        E 96 90 39 00
        E 0 90 3a 64
        E 96 90 3a 00
        E 0 90 41 64
        E 96 90 41 00
        E 0 90 43 64
        E 96 90 43 00
        E 0 90 41 64
        E 96 90 41 00
        E 0 90 3e 64
        E 192 90 3e 00
        E 96 90 41 64
        E 96 90 41 00
        E 0 90 41 64
        E 96 90 41 00
        E 0 90 3e 64
        E 96 90 3e 00
        E 0 90 3f 64
        E 96 90 3f 00
        E 0 90 3c 64
        E 96 90 3c 00
        E 0 90 3a 64
        E 192 90 3a 00
        E 96 90 3a 64
        E 96 90 3a 00
        E 0 90 3f 64
        E 192 90 3f 00
        E 0 90 3e 64
        E 192 90 3e 00
        E 0 90 3f 64
        E 192 90 3f 00
        E 0 90 3a 64
        E 192 90 3a 00
        E 0 90 3a 64
        E 767 90 3a 00
        E 1 b0 7b 00
        CCINTERP 32
        CHASE_CC_TAKEOFFS 1
        GUID {0C786080-13B0-5143-8F37-190A7B8F2114}
        IGNTEMPO 0 120 4 4
        SRCCOLOR 269
        VELLANE -1 100 0
        CFGEDITVIEW 8415.590886 0.43392 57 12 0 -1 0 0 0 0.5
        KEYSNAP 0
        TRACKSEL -252
        EVTFILTER 0 -1 -1 -1 -1 0 0 0 0 -1 -1 -1 -1 0 -1 0 -1 -1
        CFGEDIT 1 1 0 1 0 0 1 1 1 1 1 0.125 259 283 1920 854 0 0 0 0 0 0 0 0 0 0.5 0 0 1 64
      >
    >
  >
  <TRACK {2B9CA2B4-C9B8-5649-8229-AFD6F585B262}
    NAME Bass
    PEAKCOL 16576
    BEAT -1
    AUTOMODE 0
    VOLPAN 1 0 -1 -1 1
    MUTESOLO 0 0 0
    IPHASE 0
    PLAYOFFS 0 1
    ISBUS 0 0
    BUSCOMP 0 0 0 0 0
    SHOWINMIX 1 0.6667 0.5 1 0.5 -1 -1 -1
    FREEMODE 0
    SEL 0
    REC 0 0 1 0 0 0 0
    VU 2
    TRACKHEIGHT 0 0 0 0 0 0
    INQ 0 0 0 0.5 100 0 0 100
    NCHAN 2
    FX 1
    TRACKID {2B9CA2B4-C9B8-5649-8229-AFD6F585B262}
    PERF 0
    MIDIOUT 0
    MAINSEND 1 0
    <ITEM
      POSITION 0
      SNAPOFFS 0
      LENGTH 450.85714285714283
      LOOP 1
      ALLTAKES 0
      FADEIN 1 0 0 1 0 0 0
      FADEOUT 1 0 0 1 0 0 0
      MUTE 0 0
      SEL 0
      IGUID {B5EA1E12-F65D-104C-BF94-BE1FE023A976}
      IID 1
      NAME "Instrument 1 - fantasia_chromatica.mid"
      VOLPAN 1 0 1 -1
      SOFFS 0 0
      PLAYRATE 1 1 0 -1 0 0.0025
      CHANMODE 0
      GUID {FD31D1BE-BF47-9743-AA63-312AD0253DCC}
      <SOURCE MIDI
        HASDATA 1 1024 QN
        CCINTERP 32
        POOLEDEVTS {00D03EFE-7FC7-8F44-B2FF-F0244FD6FD82}
        e 34842 95 32 79
        e 2021 85 32 00
        e 6 95 32 79
        e 2068 85 32 00
        e 1 95 32 78
        e 2027 95 31 78
        e 75 85 32 00
        e 1994 95 30 78
        e 80 85 31 00
        e 1947 95 32 78
        e 0 95 2f 78
        e 75 85 30 00
        e 1544 85 32 00
        e 450 95 2e 78
        e 80 85 2f 00
        e 1947 95 2d 77
        e 75 85 2e 00
        e 1959 85 2d 00
        e 1048 95 32 78
        e 1014 95 2d 78
        e 34 85 32 00
        e 1021 95 2f 78
        e 39 85 2d 00
        e 975 95 30 78
        e 39 85 2f 00
        e 974 95 32 78
        e 39 85 30 00
        e 1009 85 32 00
        e 1021 95 2f 78
        e 2027 95 31 78
        e 80 85 2f 00
        e 934 95 32 77
        e 34 85 31 00
        e 986 85 32 00
        e 35 95 2d 78
        e 2027 95 2f 78
        e 80 85 2d 00
        e 934 95 31 78
        e 34 85 2f 00
        e 2035 95 32 77
        e 80 85 31 00
        e 1907 85 32 00
        e 40 95 2e 78
        e 4096 95 2d 77
        e 157 85 2e 00
        e 3899 85 2d 00
        e 4131 95 39 60
        e 3968 95 39 60
        e 128 85 39 00
        e 2048 85 39 00
        e 128 95 39 60
        e 1792 85 39 00
        e 0 95 38 60
        e 2176 95 37 60
        e 128 85 38 00
        e 1792 85 37 00
        e 133 95 36 78
        e 2069 95 35 78
        e 80 85 36 00
        e 1947 95 34 77
        e 75 85 35 00
        e 1959 85 34 00
        e 9 95 39 60
        e 2048 85 39 00
        e 5 95 32 78
        e 1055 95 34 78
        e 39 85 32 00
        e 975 95 35 78
        e 39 85 34 00
        e 959 95 37 60
        e 54 85 35 00
        e 970 85 37 00
        e 0 95 39 60
        e 1024 85 39 00
        e 36 95 34 78
        e 2027 95 36 78
        e 80 85 34 00
        e 929 95 37 60
        e 39 85 36 00
        e 985 85 37 00
        e 36 95 32 78
        e 2027 95 34 78
        e 80 85 32 00
        e 934 95 35 77
        e 34 85 34 00
        e 4022 85 35 00
        e 18493 95 32 79
        e 2021 85 32 00
        e 6 95 32 79
        e 2068 85 32 00
        e 1 95 32 78
        e 2027 95 31 78
        e 75 85 32 00
        e 1994 95 30 78
        e 80 85 31 00
        e 1947 95 2f 78
        e 75 85 30 00
        e 1994 95 2e 78
        e 80 85 2f 00
        e 1947 95 2d 77
        e 75 85 2e 00
        e 1959 85 2d 00
        e 1048 95 32 78
        e 1014 95 2d 78
        e 34 85 32 00
        e 1021 95 2f 78
        e 39 85 2d 00
        e 975 95 30 78
        e 39 85 2f 00
        e 974 95 32 78
        e 39 85 30 00
        e 975 95 34 77
        e 34 85 32 00
        e 986 85 34 00
        e 35 95 2f 78
        e 2027 95 31 78
        e 80 85 2f 00
        e 934 95 32 77
        e 34 85 31 00
        e 986 85 32 00
        e 35 95 2d 78
        e 2027 95 2f 78
        e 80 85 2d 00
        e 934 95 30 78
        e 34 85 2f 00
        e 2035 95 2d 77
        e 80 85 30 00
        e 1907 85 2d 00
        e 34877 95 34 79
        e 2021 85 34 00
        e 6 95 34 79
        e 2068 85 34 00
        e 1 95 34 78
        e 2027 95 33 78
        e 75 85 34 00
        e 1994 95 32 78
        e 80 85 33 00
        e 1947 95 31 78
        e 75 85 32 00
        e 1994 95 30 78
        e 80 85 31 00
        e 1947 95 2f 77
        e 75 85 30 00
        e 1959 85 2f 00
        e 35 95 32 79
        e 2021 85 32 00
        e 6 95 32 79
        e 2068 85 32 00
        e 1 95 32 78
        e 2027 95 31 78
        e 75 85 32 00
        e 1994 95 30 78
        e 80 85 31 00
        e 1947 95 2f 78
        e 75 85 30 00
        e 1994 95 2e 78
        e 80 85 2f 00
        e 1947 95 2d 77
        e 75 85 2e 00
        e 8111 85 2d 00
        e 6171 95 32 78
        e 2027 95 2d 78
        e 75 85 32 00
        e 980 95 2f 78
        e 39 85 2d 00
        e 975 95 30 78
        e 39 85 2f 00
        e 974 95 32 78
        e 39 85 30 00
        e 975 95 34 77
        e 34 85 32 00
        e 2000 85 34 00
        e 35 95 2f 78
        e 1576 85 2f 00
        e 8 95 31 78
        e 443 95 32 77
        e 123 85 31 00
        e 1911 85 32 00
        e 35 95 2d 78
        e 1516 95 2f 78
        e 60 85 2d 00
        e 451 95 30 77
        e 55 85 2f 00
        e 1979 85 30 00
        e 35 95 2b 78
        e 1516 95 2d 78
        e 60 85 2b 00
        e 451 95 2e 77
        e 55 85 2d 00
        e 1979 85 2e 00
        e 35 95 29 78
        e 1516 95 2b 78
        e 60 85 29 00
        e 451 95 2d 77
        e 55 85 2b 00
        e 8004 85 2d 00
        e 128 95 32 78
        e 6272 85 32 00
        e 28570 95 32 79
        e 2021 85 32 00
        e 6 95 32 79
        e 2068 85 32 00
        e 1 95 32 78
        e 2027 95 31 78
        e 75 85 32 00
        e 1994 95 30 78
        e 80 85 31 00
        e 1947 95 2f 78
        e 75 85 30 00
        e 1994 95 2e 78
        e 80 85 2f 00
        e 1947 95 2d 77
        e 75 85 2e 00
        e 944 95 39 77
        e 1 85 2d 00
        e 1023 85 39 00
        e 0 95 39 77
        e 512 85 39 00
        e 0 95 37 77
        e 512 85 37 00
        e 15 95 35 78
        e 503 95 34 78
        e 60 85 35 00
        e 451 95 32 77
        e 55 85 34 00
        e 964 95 37 77
        e 1 85 32 00
        e 1023 85 37 00
        e 0 95 37 77
        e 512 85 37 00
        e 23 95 35 78
        e 504 95 34 78
        e 60 85 35 00
        e 443 95 32 78
        e 60 85 34 00
        e 451 95 30 77
        e 55 85 32 00
        e 965 85 30 00
        e 35 95 35 78
        e 1013 85 35 00
        e 1 95 35 78
        e 509 95 34 78
        e 60 85 35 00
        e 444 95 32 78
        e 60 85 34 00
        e 443 95 30 78
        e 60 85 32 00
        e 451 95 2f 78
        e 55 85 30 00
        e 493 95 2d 78
        e 60 85 2f 00
        e 447 95 2b 77
        e 60 85 2d 00
        e 919 85 2b 00
        e 35 95 30 79
        e 1012 85 30 00
        e 1 95 30 78
        e 503 95 2f 78
        e 60 85 30 00
        e 451 95 2d 78
        e 55 85 2f 00
        e 493 95 2b 78
        e 60 85 2d 00
        e 447 95 29 77
        e 60 85 2b 00
        e 919 85 29 00
        e 35 95 30 79
        e 2022 85 30 00
        e 5 95 29 79
        e 2068 85 29 00
        e 1 95 2d 78
        e 2027 95 2e 77
        e 75 85 2d 00
        e 1959 85 2e 00
        e 7177 95 39 78
        e 1024 85 39 00
        e 0 95 39 78
        e 512 85 39 00
        e 0 95 37 78
        e 512 85 37 00
        e 15 95 35 78
        e 503 95 34 78
        e 60 85 35 00
        e 451 95 32 77
        e 55 85 34 00
        e 965 85 32 00
        e 35 95 34 78
        e 988 95 37 78
        e 25 85 34 00
        e 999 85 37 00
        e 15 95 2b 78
        e 1014 95 34 78
        e 0 95 2d 77
        e 34 85 2b 00
        e 514 95 32 78
        e 60 85 34 00
        e 447 95 30 78
        e 60 85 32 00
        e 444 95 32 78
        e 60 85 30 00
        e 415 85 2d 00
        e 35 95 34 77
        e 60 85 32 00
        e 953 95 2d 78
        e 974 85 34 00
        e 34 85 2d 00
        e 6 95 35 79
        e 0 95 32 78
        e 548 95 30 78
        e 60 85 32 00
        e 412 85 35 00
        e 35 95 35 78
        e 0 95 2e 78
        e 60 85 30 00
        e 444 95 2d 78
        e 60 85 2e 00
        e 450 95 34 78
        e 0 95 2b 78
        e 39 85 35 00
        e 21 85 2d 00
        e 953 95 2d 78
        e 39 85 2b 00
        e 975 95 35 77
        e 0 95 32 78
        e 0 95 2e 77
        e 34 85 2d 00
        e 41 85 34 00
        e 473 95 34 78
        e 60 85 32 00
        e 412 85 35 00
        e 35 95 35 78
        e 60 85 34 00
        e 444 95 32 77
        e 60 85 35 00
        e 385 85 32 00
        e 30 85 2e 00
        e 35 95 2b 79
        e 2021 85 2b 00
        e 6 95 32 78
        e 4090 85 32 00
        e 5157 95 32 78
        e 1013 85 32 00
        e 1 95 32 78
        e 1013 95 34 78
        e 39 85 32 00
        e 975 95 35 78
        e 34 85 34 00
        e 1021 95 32 78
        e 39 85 35 00
        e 975 95 35 78
        e 39 85 32 00
        e 974 95 34 78
        e 39 85 35 00
        e 464 95 32 78
        e 60 85 34 00
        e 451 95 30 78
        e 55 85 32 00
        e 1000 95 32 78
        e 39 85 30 00
        e 975 95 34 78
        e 39 85 32 00
        e 974 95 35 78
        e 39 85 34 00
        e 975 95 34 78
        e 34 85 35 00
        e 1021 95 31 78
        e 39 85 34 00
        e 975 95 35 78
        e 0 95 32 78
        e 39 85 31 00
        e 974 95 34 78
        e 0 95 30 78
        e 39 85 35 00
        e 0 85 32 00
        e 464 95 32 78
        e 0 95 2f 78
        e 60 85 34 00
        e 0 85 30 00
        e 451 95 34 77
        e 0 95 2d 77
        e 55 85 32 00
        e 0 85 2f 00
        e 965 85 34 00
        e 1014 85 2d 00
        e 3117 95 2d 78
        e 1013 85 2d 00
        e 1 95 2d 78
        e 1013 95 2f 78
        e 39 85 2d 00
        e 975 95 30 78
        e 34 85 2f 00
        e 1021 95 2d 78
        e 39 85 30 00
        e 975 95 30 78
        e 39 85 2d 00
        e 974 95 2f 78
        e 39 85 30 00
        e 464 95 2d 78
        e 60 85 2f 00
        e 451 95 2b 77
        e 55 85 2d 00
        e 1979 85 2b 00
        e 1048 95 35 78
        e 503 95 34 78
        e 60 85 35 00
        e 451 95 35 78
        e 0 95 32 77
        e 55 85 34 00
        e 999 85 32 00
        e 1 95 32 78
        e 564 85 35 00
        e 449 85 32 00
        e 1 95 32 78
        e 1013 95 34 78
        e 39 85 32 00
        e 975 95 35 78
        e 34 85 34 00
        e 217 95 36 78
        e 78 85 35 00
        e 178 85 36 00
        e 41 95 35 78
        e 247 95 34 78
        e 29 85 35 00
        e 231 95 32 78
        e 29 85 34 00
        e 230 95 30 78
        e 29 85 32 00
        e 216 95 32 78
        e 29 85 30 00
        e 217 95 34 78
        e 29 85 32 00
        e 235 95 35 78
        e 29 85 34 00
        e 235 95 32 78
        e 29 85 35 00
        e 216 95 34 78
        e 29 85 32 00
        e 217 95 35 78
        e 29 85 34 00
        e 214 95 37 78
        e 44 85 35 00
        e 212 85 37 00
        e 16 95 34 78
        e 246 95 35 78
        e 29 85 34 00
        e 221 95 37 78
        e 25 85 35 00
        e 231 85 37 00
        e 0 95 39 78
        e 512 85 39 00
        e 0 95 37 78
        e 256 85 37 00
        e 32 95 35 78
        e 260 95 34 78
        e 29 85 35 00
        e 230 95 32 78
        e 29 85 34 00
        e 216 95 31 78
        e 29 85 32 00
        e 217 95 2f 78
        e 29 85 31 00
        e 235 95 2d 77
        e 29 85 2f 00
        e 338 85 2d 00
        e 142 95 34 78
        e 396 85 34 00
        e 93 95 39 78
        e 512 85 39 00
        e 6 95 2d 78
        e 398 85 2d 00
        e 113 95 34 78
        e 300 95 35 78
        e 29 85 34 00
        e 219 95 34 78
        e 29 85 35 00
        e 218 95 32 78
        e 29 85 34 00
        e 231 95 30 78
        e 29 85 32 00
        e 230 95 2f 78
        e 29 85 30 00
        e 216 95 30 78
        e 29 85 2f 00
        e 217 95 32 78
        e 29 85 30 00
        e 235 95 34 78
        e 29 85 32 00
        e 235 95 30 78
        e 29 85 34 00
        e 216 95 32 78
        e 29 85 30 00
        e 217 95 34 78
        e 29 85 32 00
        e 229 95 35 78
        e 29 85 34 00
        e 228 95 32 78
        e 29 85 35 00
        e 217 95 34 78
        e 29 85 32 00
        e 217 95 35 78
        e 29 85 34 00
        e 231 95 37 78
        e 29 85 35 00
        e 483 85 37 00
        e 41 95 35 78
        e 247 95 34 78
        e 29 85 35 00
        e 231 95 32 78
        e 29 85 34 00
        e 230 95 30 78
        e 29 85 32 00
        e 216 95 2f 78
        e 29 85 30 00
        e 217 95 2d 78
        e 29 85 2f 00
        e 235 95 2b 77
        e 29 85 2d 00
        e 338 85 2b 00
        e 142 95 32 78
        e 396 85 32 00
        e 93 95 37 78
        e 512 85 37 00
        e 6 95 2b 78
        e 398 85 2b 00
        e 113 95 32 78
        e 300 95 34 78
        e 29 85 32 00
        e 219 95 32 78
        e 29 85 34 00
        e 218 95 30 78
        e 29 85 32 00
        e 231 95 2e 78
        e 29 85 30 00
        e 230 95 2d 78
        e 29 85 2e 00
        e 216 95 2e 78
        e 29 85 2d 00
        e 217 95 30 78
        e 29 85 2e 00
        e 235 95 32 78
        e 29 85 30 00
        e 235 95 34 78
        e 29 85 32 00
        e 216 95 35 78
        e 29 85 34 00
        e 217 95 32 78
        e 29 85 35 00
        e 229 95 34 78
        e 29 85 32 00
        e 228 95 30 78
        e 29 85 34 00
        e 217 95 32 78
        e 29 85 30 00
        e 217 95 34 78
        e 29 85 32 00
        e 236 95 35 77
        e 24 85 34 00
        e 996 85 35 00
        e 35 95 32 78
        e 1014 95 35 78
        e 39 85 32 00
        e 974 95 34 78
        e 39 85 35 00
        e 464 95 32 78
        e 60 85 34 00
        e 451 95 30 78
        e 55 85 32 00
        e 1000 95 32 77
        e 39 85 30 00
        e 940 85 32 00
        e 35 95 2d 78
        e 264 95 2f 78
        e 29 85 2d 00
        e 216 95 30 78
        e 29 85 2f 00
        e 217 95 2d 78
        e 29 85 30 00
        e 229 95 2f 78
        e 29 85 2d 00
        e 228 95 30 78
        e 29 85 2f 00
        e 217 95 32 78
        e 29 85 30 00
        e 217 95 2f 78
        e 29 85 32 00
        e 236 95 30 77
        e 24 85 2f 00
        e 4066 85 30 00
        e 6 95 30 79
        e 2068 85 30 00
        e 3083 95 30 78
        e 1013 85 30 00
        e 1 95 30 79
        e 1012 85 30 00
        e 1 95 32 78
        e 1008 85 32 00
        e 6 95 34 79
        e 1054 85 34 00
        e 1 95 30 78
        e 1013 85 30 00
        e 1 95 34 79
        e 1012 85 34 00
        e 1 95 32 78
        e 472 85 32 00
        e 31 95 30 78
        e 511 95 2f 77
        e 55 85 30 00
        e 1979 85 2f 00
        e 35 95 2d 79
        e 1516 95 35 77
        e 441 85 35 00
        e 64 85 2d 00
        e 6 95 34 78
        e 4090 85 34 00
        e 6 95 35 78
        e 0 95 32 78
        e 4090 85 35 00
        e 0 85 32 00
        e 6 95 32 78
        e 4090 85 32 00
        e 6 95 32 78
        e 3082 95 35 78
        e 1008 85 32 00
        e 0 85 35 00
        e 6 95 34 78
        e 0 95 31 78
        e 4090 85 34 00
        e 0 85 31 00
        e 6 95 30 78
        e 4090 85 30 00
        e 6 95 2f 78
        e 4090 85 2f 00
        e 6 95 2e 78
        e 1055 95 35 78
        e 1013 85 35 00
        e 1 95 34 79
        e 1012 85 34 00
        e 1 95 32 78
        e 1008 85 2e 00
        e 0 85 32 00
        e 6 95 34 79
        e 0 95 2d 78
        e 2068 85 34 00
        e 2022 85 2d 00
        e 1061 95 2d 78
        e 1014 95 35 78
        e 39 85 2d 00
        e 974 95 34 78
        e 39 85 35 00
        e 975 95 32 77
        e 34 85 34 00
        e 986 85 32 00
        e 35 95 30 78
        e 504 95 32 78
        e 60 85 30 00
        e 186 95 34 78
        e 29 85 32 00
        e 235 95 35 77
        e 29 85 34 00
        e 1958 85 35 00
        e 40 95 34 78
        e 8186 85 34 00
        e 6 95 36 78
        e 3082 95 2d 78
        e 1008 85 36 00
        e 6 95 35 78
        e 0 95 32 78
        e 34 85 2d 00
        e 1525 95 30 78
        e 60 85 32 00
        e 450 95 2e 78
        e 60 85 30 00
        e 953 95 2d 78
        e 39 85 2e 00
        e 969 85 35 00
        e 6 95 34 78
        e 0 95 2b 77
        e 34 85 2d 00
        e 2000 85 2b 00
        e 35 95 2d 79
        e 2021 85 34 00
        e 1061 95 34 78
        e 1013 85 2d 00
        e 40 85 34 00
        e 974 95 2d 78
        e 1014 95 36 78
        e 0 95 32 78
        e 34 85 2d 00
        e 1021 95 34 78
        e 39 85 36 00
        e 465 95 30 78
        e 60 85 32 00
        e 450 95 32 77
        e 0 95 2f 78
        e 39 85 34 00
        e 21 85 30 00
        e 953 95 2d 77
        e 39 85 2f 00
        e 935 85 2d 00
        e 34 85 32 00
        e 6 95 32 78
        e 0 95 2b 78
        e 1055 95 2d 78
        e 39 85 2b 00
        e 975 95 2f 78
        e 39 85 2d 00
        e 1982 85 32 00
        e 6 95 34 79
        e 0 95 30 78
        e 75 85 2f 00
        e 1484 95 2f 78
        e 60 85 30 00
        e 449 85 34 00
        e 1 95 2d 78
        e 60 85 2f 00
        e 953 95 2b 77
        e 39 85 2d 00
        e 935 85 2b 00
        e 40 95 29 78
        e 1055 95 28 78
        e 39 85 29 00
        e 975 95 29 77
        e 39 85 28 00
        e 939 85 29 00
        e 35 95 30 78
        e 1014 95 35 78
        e 0 95 32 78
        e 34 85 30 00
        e 1021 95 34 78
        e 0 95 2e 78
        e 39 85 35 00
        e 0 85 32 00
        e 465 95 32 78
        e 60 85 34 00
        e 450 95 34 77
        e 0 95 2d 77
        e 39 85 2e 00
        e 21 85 32 00
        e 1927 85 34 00
        e 0 85 2d 00
        e 40 95 32 79
        e 517 85 32 00
        e 31 95 34 78
        e 476 85 34 00
        e 31 95 35 78
        e 0 95 32 78
        e 473 85 35 00
        e 540 85 32 00
        e 1 95 32 79
        e 478 85 32 00
        e 31 95 34 78
        e 473 85 34 00
        e 31 95 35 78
        e 472 85 35 00
        e 1337 95 35 78
        e 260 95 34 78
        e 29 85 35 00
        e 230 95 32 78
        e 29 85 34 00
        e 216 95 31 78
        e 29 85 32 00
        e 217 95 2f 78
        e 29 85 31 00
        e 235 95 2d 77
        e 29 85 2f 00
        e 185 85 2d 00
        e 50 95 34 78
        e 245 95 32 78
        e 29 85 34 00
        e 217 95 34 78
        e 29 85 32 00
        e 229 95 2d 77
        e 29 85 34 00
        e 178 85 2d 00
        e 807 95 34 77
        e 250 85 34 00
        e 50 95 2f 78
        e 248 95 31 78
        e 29 85 2f 00
        e 218 95 32 78
        e 29 85 31 00
        e 231 95 34 78
        e 29 85 32 00
        e 230 95 36 78
        e 29 85 34 00
        e 245 85 36 00
        e 990 95 34 78
        e 1007 95 36 78
        e 39 85 34 00
        e 527 85 36 00
        e 245 95 32 78
        e 248 95 34 78
        e 29 85 32 00
        e 218 95 35 78
        e 29 85 34 00
        e 260 85 35 00
        e 230 95 2e 78
        e 245 95 30 78
        e 29 85 2e 00
        e 217 95 32 78
        e 29 85 30 00
        e 235 95 2b 77
        e 29 85 32 00
        e 185 85 2b 00
        e 50 95 32 78
        e 245 95 34 78
        e 29 85 32 00
        e 217 95 35 78
        e 29 85 34 00
        e 258 85 35 00
        e 228 95 2b 78
        e 246 95 2e 78
        e 29 85 2b 00
        e 217 95 30 78
        e 29 85 2e 00
        e 236 95 32 78
        e 24 85 30 00
        e 276 95 34 78
        e 29 85 32 00
        e 219 95 36 78
        e 29 85 34 00
        e 247 85 36 00
        e 490 95 36 78
        e 274 85 36 00
        e 217 95 34 78
        e 264 95 36 78
        e 29 85 34 00
        e 235 95 32 78
        e 29 85 36 00
        e 216 95 34 78
        e 29 85 32 00
        e 217 95 31 78
        e 29 85 34 00
        e 229 95 32 77
        e 29 85 31 00
        e 178 85 32 00
        e 50 95 26 78
        e 230 85 26 00
        e 16 95 32 78
        e 246 95 34 78
        e 29 85 32 00
        e 200 95 35 77
        e 60 85 34 00
        e 226 85 35 00
        e 50 95 29 78
        e 232 85 29 00
        e 16 95 30 78
        e 247 95 2e 78
        e 29 85 30 00
        e 231 95 2d 78
        e 29 85 2e 00
        e 230 95 2b 78
        e 29 85 2d 00
        e 216 95 29 78
        e 29 85 2b 00
        e 217 95 28 78
        e 29 85 29 00
        e 235 95 29 78
        e 29 85 28 00
        e 235 95 2b 78
        e 29 85 29 00
        e 216 95 2d 78
        e 29 85 2b 00
        e 217 95 2f 78
        e 29 85 2d 00
        e 229 95 30 78
        e 29 85 2f 00
        e 228 95 32 78
        e 29 85 30 00
        e 217 95 34 78
        e 29 85 32 00
        e 217 95 35 77
        e 29 85 34 00
        e 181 85 35 00
        e 16 95 30 78
        e 339 95 32 78
        e 29 85 30 00
        e 219 95 34 78
        e 29 85 32 00
        e 218 95 35 78
        e 29 85 34 00
        e 260 85 35 00
        e 2976 95 30 76
        e 4094 95 32 78
        e 32 85 30 00
        e 16 95 35 7b
        e 2058 85 32 00
        e 0 85 35 00
        e 1 95 2e 77
        e 0 95 32 7b
        e 1959 95 2d 78
        e 62 85 2e 00
        e 0 85 32 00
        e 23 95 34 7b
        e 2051 85 2d 00
        e 0 85 34 00
        e 2576 95 34 78
        e 247 95 35 78
        e 29 85 34 00
        e 260 85 35 00
        e 1494 95 32 78
        e 246 95 34 78
        e 29 85 32 00
        e 229 95 35 78
        e 29 85 34 00
        e 257 85 35 00
        e 16355 95 35 78
        e 246 95 34 78
        e 29 85 35 00
        e 217 95 32 78
        e 29 85 34 00
        e 236 95 30 78
        e 24 85 32 00
        e 276 95 2f 78
        e 29 85 30 00
        e 219 95 2d 78
        e 29 85 2f 00
        e 218 95 2b 78
        e 29 85 2d 00
        e 231 95 2d 78
        e 29 85 2b 00
        e 230 95 2f 78
        e 29 85 2d 00
        e 216 95 30 78
        e 29 85 2f 00
        e 217 95 32 78
        e 29 85 30 00
        e 235 95 34 77
        e 29 85 32 00
        e 185 85 34 00
        e 50 95 2d 78
        e 245 95 30 78
        e 29 85 2d 00
        e 217 95 32 78
        e 29 85 30 00
        e 229 95 34 78
        e 29 85 32 00
        e 228 95 30 78
        e 29 85 34 00
        e 217 95 34 78
        e 29 85 30 00
        e 217 95 35 78
        e 29 85 34 00
        e 260 85 35 00
        e 2309 95 32 78
        e 245 95 35 78
        e 29 85 32 00
        e 246 85 35 00
        e 486 95 35 78
        e 275 85 35 00
        e 3821 95 35 78
        e 246 95 34 78
        e 29 85 35 00
        e 217 95 32 78
        e 29 85 34 00
        e 236 95 30 78
        e 24 85 32 00
        e 276 95 2e 78
        e 29 85 30 00
        e 219 95 2d 78
        e 29 85 2e 00
        e 218 95 2b 78
        e 29 85 2d 00
        e 231 95 29 78
        e 29 85 2b 00
        e 230 95 2b 78
        e 29 85 29 00
        e 216 95 2d 78
        e 29 85 2b 00
        e 217 95 2f 78
        e 29 85 2d 00
        e 235 95 30 78
        e 29 85 2f 00
        e 235 95 32 78
        e 29 85 30 00
        e 216 95 34 78
        e 29 85 32 00
        e 217 95 35 78
        e 29 85 34 00
        e 258 85 35 00
        e 2790 95 35 78
        e 264 95 34 77
        e 29 85 35 00
        e 185 85 34 00
        e 50 95 30 78
        e 274 85 30 00
        e 217 95 35 78
        e 258 95 34 78
        e 29 85 35 00
        e 228 95 32 78
        e 29 85 34 00
        e 217 95 30 78
        e 29 85 32 00
        e 217 95 2f 78
        e 29 85 30 00
        e 236 95 2d 77
        e 24 85 2f 00
        e 226 85 2d 00
        e 298 95 32 78
        e 247 95 34 78
        e 29 85 32 00
        e 231 95 35 78
        e 29 85 34 00
        e 259 85 35 00
        e 7904 95 34 78
        e 473 85 34 00
        e 541 95 36 79
        e 1012 85 36 00
        e 1 95 32 78
        e 0 95 35 78
        e 472 85 32 00
        e 536 85 35 00
        e 6 95 34 79
        e 1054 85 34 00
        e 3042 95 36 79
        e 1054 85 36 00
        e 1 95 35 78
        e 1013 85 35 00
        e 1 95 34 79
        e 1012 85 34 00
        e 1 95 34 78
        e 1008 85 34 00
        e 6 95 32 79
        e 1054 85 32 00
        e 1 95 35 78
        e 1013 85 35 00
        e 1 95 35 79
        e 1012 85 35 00
        e 1 95 35 78
        e 1008 85 35 00
        e 6 95 34 79
        e 1054 85 34 00
        e 1 95 34 78
        e 1013 85 34 00
        e 1 95 35 78
        e 0 95 32 79
        e 569 85 35 00
        e 443 85 32 00
        e 1 95 32 78
        e 1008 85 32 00
        e 6 95 30 79
        e 1054 85 30 00
        e 1 95 34 78
        e 1013 85 34 00
        e 1 95 34 79
        e 1012 85 34 00
        e 1 95 34 78
        e 1014 95 36 79
        e 0 95 33 78
        e 34 85 34 00
        e 1020 85 36 00
        e 1 95 32 78
        e 39 85 33 00
        e 975 95 31 78
        e 39 85 32 00
        e 974 95 30 78
        e 39 85 31 00
        e 975 95 2f 77
        e 34 85 30 00
        e 986 85 2f 00
        e 35 95 32 78
        e 1013 85 32 00
        e 1 95 32 79
        e 1012 85 32 00
        e 1 95 36 78
        e 0 95 32 78
        e 1008 85 36 00
        e 6 95 34 79
        e 0 95 31 78
        e 34 85 32 00
        e 1020 85 34 00
        e 1 95 30 78
        e 39 85 31 00
        e 975 95 2f 78
        e 39 85 30 00
        e 974 95 2e 78
        e 39 85 2f 00
        e 975 95 2d 77
        e 34 85 2e 00
        e 1771 95 35 78
        e 264 95 34 77
        e 29 85 35 00
        e 1958 85 2d 00
        e 0 85 34 00
        e 19506 95 32 78
        e 1008 85 32 00
        e 6 95 35 79
        e 0 95 32 79
        e 1054 85 32 00
        e 1 95 32 78
        e 1013 85 35 00
        e 0 85 32 00
        e 1 95 34 79
        e 0 95 31 79
        e 1012 85 31 00
        e 1 95 30 78
        e 1008 85 34 00
        e 0 85 30 00
        e 6 95 2f 79
        e 1054 85 2f 00
        e 1 95 2e 78
        e 1013 85 2e 00
        e 1 95 36 79
        e 0 95 2d 79
        e 1012 85 36 00
        e 1 95 35 78
        e 1008 85 2d 00
        e 0 85 35 00
        e 6 95 34 79
        e 0 95 2d 79
        e 517 85 2d 00
        e 31 95 2f 78
        e 476 85 2f 00
        e 31 95 30 78
        e 473 85 30 00
        e 31 95 32 78
        e 479 85 32 00
        e 30 85 34 00
        e 1 95 34 79
        e 478 85 34 00
        e 31 95 35 78
        e 473 85 35 00
        e 1045 95 32 79
        e 517 85 32 00
        e 31 95 34 78
        e 476 85 34 00
        e 31 95 35 78
        e 473 85 35 00
        e 10760 95 36 79
        e 1054 85 36 00
        e 1 95 35 78
        e 1013 85 35 00
        e 1 95 34 79
        e 2021 85 34 00
        e 6 95 2d 78
        e 3082 95 36 78
        e 503 95 35 78
        e 60 85 36 00
        e 445 85 2d 00
        e 6 95 34 78
        e 0 95 2d 78
        e 55 85 35 00
        e 3027 95 32 78
        e 121 85 34 00
        e 887 85 2d 00
        e 6 95 31 78
        e 0 95 2d 78
        e 34 85 32 00
        e 3048 95 32 77
        e 121 85 31 00
        e 853 85 32 00
        e 34 85 2d 00
        e 6 95 34 79
        e 0 95 2d 78
        e 517 85 34 00
        e 2565 95 36 78
        e 503 95 35 77
        e 60 85 36 00
        e 381 85 35 00
        e 27 85 2d 00
        e 7 95 2d 76
        e 45 95 34 79
        e 4081 85 2d 00
        e 0 85 34 00
        e 6 95 36 78
        e 0 95 32 78
        e 1619 85 36 00
        e 2471 85 32 00
        e 6 95 36 77
        e 0 95 32 78
        e 2034 85 36 00
        e 2056 85 32 00
        e 6 95 32 78
        e 1055 95 36 78
        e 2107 85 36 00
        e 928 85 32 00
        e 6 95 32 79
        e 1054 85 32 00
        e 1 95 2b 78
        e 1014 95 32 78
        e 509 95 2d 78
        e 60 85 2b 00
        e 444 95 2e 78
        e 60 85 2d 00
        e 443 95 34 78
        e 0 95 30 78
        e 60 85 32 00
        e 0 85 2e 00
        e 451 95 35 78
        e 0 95 32 78
        e 55 85 34 00
        e 0 85 30 00
        e 493 95 34 78
        e 60 85 35 00
        e 0 85 32 00
        e 447 95 35 77
        e 60 85 34 00
        e 379 85 35 00
        e 65 95 35 78
        e 0 95 32 78
        e 479 85 35 00
        e 0 85 32 00
        e 1044 95 2b 78
        e 1008 85 2b 00
        e 6 95 32 78
        e 12282 85 32 00
        e 1 95 26 76
        e 155 95 32 79
        e 3050 85 26 00
        e 0 85 32 00
        E 1915 b0 7b 00
        CCINTERP 32
        CHASE_CC_TAKEOFFS 1
        GUID {6F6C1B8C-35DF-BF46-AAEC-15301AACE252}
        IGNTEMPO 0 120 4 4
        SRCCOLOR 1
        VELLANE -1 100 0
        CFGEDITVIEW 262363.81231 0.061096 45 12 0 -1 0 0 0 0.5
        KEYSNAP 0
        TRACKSEL -252
        EVTFILTER 0 -1 -1 -1 -1 0 0 0 0 -1 -1 -1 -1 0 -1 0 -1 -1
        CFGEDIT 1 1 0 1 0 4 1 1 1 1 1 0.25 0 164 1920 938 0 0 0 0 0 0 0 0 0 0.5 0 0 1 64
      >
    >
    <ITEM
      POSITION 887.42857142857122
      SNAPOFFS 0
      LENGTH 124.79999999995039
      LOOP 0
      ALLTAKES 0
      FADEIN 1 0 0 1 0 0 0
      FADEOUT 1 0 0 1 0 0 0
      MUTE 0 0
      SEL 0
      IGUID {86AC35B5-8ED6-AE40-AF6E-2C252CB0A8BE}
      IID 122
      NAME "Bassoon - tocatta_.mid"
      VOLPAN 1 0 1 -1
      SOFFS 0 0
      PLAYRATE 1 1 0 -1 0 0.0025
      CHANMODE 0
      GUID {6373C38E-FC25-B048-B6E8-6466C08D1C71}
      <SOURCE MIDI
        HASDATA 1 96 QN
        CCINTERP 32
        POOLEDEVTS {BADE8A48-BE6B-1748-9191-97DCBAF8C451}
        e 0 95 2d 64
        e 576 95 2d 00
        e 0 95 2c 64
        e 192 95 2c 00
        e 0 95 2d 64
        e 192 95 2d 00
        e 0 95 26 64
        e 192 95 26 00
        e 0 95 28 64
        e 384 95 28 00
        e 576 95 2c 64
        e 192 95 2c 00
        e 0 95 2d 64
        e 192 95 2d 00
        e 0 95 2f 64
        e 192 95 2f 00
        e 0 95 30 64
        e 192 95 30 00
        e 0 95 32 64
        e 192 95 32 00
        e 0 95 34 64
        e 192 95 34 00
        e 0 95 35 64
        e 192 95 35 00
        e 0 95 34 64
        e 192 95 34 00
        e 0 95 32 64
        e 192 95 32 00
        e 0 95 30 64
        e 192 95 30 00
        e 0 95 2f 64
        e 96 95 2f 00
        e 0 95 2d 64
        e 96 95 2d 00
        e 0 95 2c 64
        e 384 95 2c 00
        e 0 95 2d 64
        e 384 95 2d 00
        e 0 95 28 64
        e 192 95 28 00
        e 0 95 26 64
        e 192 95 26 00
        e 0 95 24 64
        e 192 95 24 00
        e 0 95 23 64
        e 192 95 23 00
        e 0 95 21 64
        e 96 95 21 00
        e 0 95 2d 64
        e 192 95 2d 00
        e 0 95 2b 64
        e 96 95 2b 00
        e 0 95 29 64
        e 192 95 29 00
        e 0 95 28 64
        e 192 95 28 00
        e 0 95 26 64
        e 48 95 26 00
        e 0 95 26 64
        e 48 95 26 00
        e 0 95 28 64
        e 48 95 28 00
        e 0 95 2a 64
        e 48 95 2a 00
        e 0 95 2b 64
        e 48 95 2b 00
        e 0 95 2d 64
        e 48 95 2d 00
        e 0 95 2f 64
        e 48 95 2f 00
        e 0 95 30 64
        e 48 95 30 00
        e 0 95 32 64
        e 48 95 32 00
        e 0 95 2d 64
        e 48 95 2d 00
        e 0 95 2f 64
        e 48 95 2f 00
        e 0 95 30 64
        e 48 95 30 00
        e 0 95 32 64
        e 48 95 32 00
        e 0 95 2f 64
        e 48 95 2f 00
        e 0 95 30 64
        e 48 95 30 00
        e 0 95 32 64
        e 48 95 32 00
        e 0 95 2b 64
        e 192 95 2b 00
        e 0 95 2d 64
        e 0 95 29 64
        e 192 95 2d 00
        e 0 95 29 00
        e 0 95 2b 64
        e 0 95 28 64
        e 192 95 2b 00
        e 0 95 28 00
        e 0 95 29 64
        e 0 95 26 64
        e 192 95 29 00
        e 0 95 26 00
        e 0 95 2b 64
        e 0 95 24 64
        e 48 95 2b 00
        e 0 95 24 00
        e 0 95 24 64
        e 48 95 24 00
        e 0 95 26 64
        e 48 95 26 00
        e 0 95 28 64
        e 48 95 28 00
        e 0 95 29 64
        e 48 95 29 00
        e 0 95 2b 64
        e 48 95 2b 00
        e 0 95 2d 64
        e 48 95 2d 00
        e 0 95 2f 64
        e 48 95 2f 00
        e 0 95 30 64
        e 48 95 30 00
        e 0 95 21 64
        e 48 95 21 00
        e 0 95 23 64
        e 48 95 23 00
        e 0 95 24 64
        e 48 95 24 00
        e 0 95 26 64
        e 48 95 26 00
        e 0 95 28 64
        e 48 95 28 00
        e 0 95 29 64
        e 48 95 29 00
        e 0 95 2b 64
        e 48 95 2b 00
        e 0 95 2d 64
        e 48 95 2d 00
        e 0 95 2f 64
        e 48 95 2f 00
        e 0 95 30 64
        e 48 95 30 00
        e 0 95 32 64
        e 48 95 32 00
        e 0 95 34 64
        e 48 95 34 00
        e 0 95 32 64
        e 48 95 32 00
        e 0 95 30 64
        e 48 95 30 00
        e 0 95 2f 64
        e 48 95 2f 00
        e 0 95 2d 64
        e 48 95 2d 00
        e 0 95 2b 64
        e 48 95 2b 00
        e 0 95 29 64
        e 48 95 29 00
        e 0 95 28 64
        e 48 95 28 00
        e 0 95 26 64
        e 48 95 26 00
        e 0 95 28 64
        e 48 95 28 00
        e 0 95 29 64
        e 48 95 29 00
        e 0 95 26 64
        e 48 95 26 00
        e 0 95 28 64
        e 48 95 28 00
        e 0 95 2f 64
        e 48 95 2f 00
        e 0 95 2c 64
        e 48 95 2c 00
        e 0 95 28 64
        e 48 95 28 00
        e 0 95 2f 64
        e 48 95 2f 00
        e 0 95 2d 64
        e 48 95 2d 00
        e 0 95 2f 64
        e 24 95 2f 00
        e 0 95 2d 64
        e 24 95 2d 00
        e 0 95 2c 64
        e 24 95 2c 00
        e 0 95 2a 64
        e 24 95 2a 00
        e 0 95 28 64
        e 384 95 28 00
        e 48 95 28 64
        e 48 95 28 00
        e 0 95 25 64
        e 48 95 25 00
        e 0 95 21 64
        e 48 95 21 00
        e 0 95 28 64
        e 48 95 28 00
        e 0 95 26 64
        e 48 95 26 00
        e 0 95 28 64
        e 24 95 28 00
        e 0 95 26 64
        e 24 95 26 00
        e 0 95 25 64
        e 24 95 25 00
        e 0 95 23 64
        e 24 95 23 00
        e 0 95 25 64
        e 0 95 21 64
        e 384 95 25 00
        e 0 95 21 00
        e 768 95 2b 64
        e 384 95 2b 00
        e 0 95 24 64
        e 192 95 24 00
        e 0 95 28 64
        e 192 95 28 00
        e 0 95 26 64
        e 192 95 26 00
        e 0 95 2a 64
        e 192 95 2a 00
        e 0 95 1f 64
        e 192 95 1f 00
        e 0 95 23 64
        e 192 95 23 00
        e 0 95 21 64
        e 192 95 21 00
        e 0 95 25 64
        e 192 95 25 00
        e 0 95 26 64
        e 192 95 26 00
        e 0 95 29 64
        e 192 95 29 00
        e 0 95 28 64
        e 0 95 2c 64
        e 192 95 28 00
        e 0 95 2c 00
        e 192 95 2d 64
        e 48 95 2d 00
        e 0 95 34 64
        e 48 95 34 00
        e 0 95 31 64
        e 48 95 31 00
        e 0 95 2d 64
        e 48 95 2d 00
        e 0 95 34 64
        e 24 95 34 00
        e 0 95 32 64
        e 24 95 32 00
        e 0 95 31 64
        e 24 95 31 00
        e 0 95 2f 64
        e 24 95 2f 00
        e 0 95 2d 64
        e 24 95 2d 00
        e 0 95 2b 64
        e 24 95 2b 00
        e 0 95 29 64
        e 24 95 29 00
        e 0 95 28 64
        e 24 95 28 00
        e 0 95 26 64
        e 24 95 26 00
        e 0 95 28 64
        e 24 95 28 00
        e 0 95 29 64
        e 24 95 29 00
        e 0 95 2b 64
        e 24 95 2b 00
        e 0 95 2d 64
        e 24 95 2d 00
        e 0 95 2f 64
        e 24 95 2f 00
        e 0 95 31 64
        e 24 95 31 00
        e 0 95 32 64
        e 24 95 32 00
        e 192 95 26 64
        e 0 95 2d 64
        e 576 95 26 00
        e 0 95 2d 00
        e 288 95 2d 64
        e 24 95 2d 00
        e 0 95 2b 64
        e 24 95 2b 00
        e 0 95 29 64
        e 24 95 29 00
        e 0 95 28 64
        e 24 95 28 00
        e 0 95 26 64
        e 48 95 26 00
        e 0 95 28 64
        e 48 95 28 00
        e 0 95 29 64
        e 48 95 29 00
        e 0 95 2b 64
        e 48 95 2b 00
        e 0 95 2d 64
        e 48 95 2d 00
        e 0 95 2f 64
        e 48 95 2f 00
        e 0 95 30 64
        e 48 95 30 00
        e 0 95 32 64
        e 48 95 32 00
        e 0 95 34 64
        e 48 95 34 00
        e 0 95 35 64
        e 48 95 35 00
        e 0 95 37 64
        e 48 95 37 00
        e 0 95 35 64
        e 48 95 35 00
        e 0 95 34 64
        e 48 95 34 00
        e 0 95 32 64
        e 48 95 32 00
        e 0 95 30 64
        e 48 95 30 00
        e 0 95 2f 64
        e 48 95 2f 00
        e 0 95 2d 64
        e 48 95 2d 00
        e 0 95 32 64
        e 48 95 32 00
        e 0 95 30 64
        e 48 95 30 00
        e 0 95 2f 64
        e 48 95 2f 00
        e 0 95 2d 64
        e 48 95 2d 00
        e 0 95 2b 64
        e 48 95 2b 00
        e 0 95 29 64
        e 48 95 29 00
        e 0 95 28 64
        e 48 95 28 00
        e 0 95 26 64
        e 48 95 26 00
        e 0 95 2b 64
        e 48 95 2b 00
        e 0 95 29 64
        e 48 95 29 00
        e 0 95 28 64
        e 48 95 28 00
        e 0 95 26 64
        e 1152 95 26 00
        e 0 95 21 64
        e 0 95 28 64
        e 1152 95 21 00
        e 0 95 28 00
        E 0 b0 7b 00
        CCINTERP 32
        CHASE_CC_TAKEOFFS 1
        GUID {975F49EE-0015-8942-B932-202124C28B77}
        IGNTEMPO 0 120 4 4
        SRCCOLOR 362
        VELLANE -1 100 0
        CFGEDITVIEW -656.64 0.65169 45 12 0 -1 0 0 0 0.5
        KEYSNAP 0
        TRACKSEL -252
        EVTFILTER 0 -1 -1 -1 -1 0 0 0 0 -1 -1 -1 -1 0 -1 0 -1 -1
        CFGEDIT 1 1 0 1 0 4 1 1 1 1 1 0.25 0 164 1920 938 0 0 0 0 0 0 0 0 0 0.5 0 0 1 64
      >
    >
    <ITEM
      POSITION 1117.6901098900835
      SNAPOFFS 0
      LENGTH 217.84615384616995
      LOOP 1
      ALLTAKES 0
      FADEIN 1 0 0 1 0 0 0
      FADEOUT 1 0 0 1 0 0 0
      MUTE 0 0
      SEL 0
      IGUID {86121FAB-F567-A344-AB44-6B91ECCCB398}
      IID 93
      NAME "Tenor Sax - hodie.mid"
      VOLPAN 1 0 1 -1
      SOFFS 0 0
      PLAYRATE 1 1 0 -1 0 0.0025
      CHANMODE 0
      GUID {9F896038-885F-524F-B29A-5B7C9BBD0BD3}
      <SOURCE MIDI
        HASDATA 1 96 QN
        CCINTERP 32
        POOLEDEVTS {EE383611-C380-AA43-A764-5B9A30E30154}
        E 624 90 3a 64
        E 144 90 3a 00
        e 0 90 39 64
        e 48 90 39 00
        E 0 90 37 64
        E 96 90 37 00
        E 0 90 35 64
        E 144 90 35 00
        E 0 90 3c 64
        E 48 90 3c 00
        E 0 90 3a 64
        E 96 90 3a 00
        E 0 90 33 64
        E 768 90 33 00
        E 0 90 2e 64
        E 384 90 2e 00
        E 0 90 2e 64
        E 384 90 2e 00
        E 0 90 2e 64
        E 384 90 2e 00
        E 0 90 35 64
        E 384 90 35 00
        E 288 90 39 64
        E 96 90 39 00
        E 0 90 37 64
        E 96 90 37 00
        E 0 90 3c 64
        E 96 90 3c 00
        E 0 90 35 64
        E 192 90 35 00
        E 288 90 35 64
        E 96 90 35 00
        E 0 90 30 64
        E 96 90 30 00
        E 0 90 30 64
        E 96 90 30 00
        E 0 90 35 64
        E 192 90 35 00
        E 672 90 3a 64
        E 144 90 3a 00
        E 0 90 3c 64
        E 48 90 3c 00
        E 0 90 3e 64
        E 96 90 3e 00
        E 0 90 3f 64
        E 144 90 3f 00
        E 0 90 3c 64
        E 48 90 3c 00
        E 0 90 3a 64
        E 96 90 3a 00
        E 0 90 2e 64
        E 384 90 2e 00
        E 0 90 2e 64
        E 384 90 2e 00
        E 0 90 32 64
        E 384 90 32 00
        E 0 90 33 64
        E 384 90 33 00
        E 0 90 35 64
        E 384 90 35 00
        E 0 90 37 64
        E 384 90 37 00
        E 0 90 39 64
        E 384 90 39 00
        E 0 90 3a 64
        E 384 90 3a 00
        E 0 90 35 64
        E 192 90 35 00
        E 0 90 3a 64
        E 192 90 3a 00
        E 0 90 37 64
        E 96 90 37 00
        E 0 90 33 64
        E 96 90 33 00
        E 0 90 37 64
        E 96 90 37 00
        E 0 90 37 64
        E 96 90 37 00
        E 0 90 35 64
        E 96 90 35 00
        E 0 90 35 64
        E 96 90 35 00
        E 0 90 3a 64
        E 48 90 3a 00
        E 0 90 39 64
        E 48 90 39 00
        E 0 90 37 64
        E 48 90 37 00
        E 0 90 35 64
        E 48 90 35 00
        E 0 90 33 64
        E 96 90 33 00
        E 0 90 35 64
        E 96 90 35 00
        E 0 90 2e 64
        E 192 90 2e 00
        E 96 90 35 64
        E 96 90 35 00
        E 0 90 3a 64
        E 48 90 3a 00
        E 0 90 39 64
        E 48 90 39 00
        E 0 90 37 64
        E 48 90 37 00
        E 0 90 35 64
        E 48 90 35 00
        E 0 90 33 64
        E 96 90 33 00
        E 0 90 35 64
        E 96 90 35 00
        E 0 90 2e 64
        E 192 90 2e 00
        E 96 90 35 64
        E 96 90 35 00
        E 0 90 41 64
        E 48 90 41 00
        E 0 90 3f 64
        E 48 90 3f 00
        E 0 90 3e 64
        E 48 90 3e 00
        E 0 90 3c 64
        E 48 90 3c 00
        E 0 90 3a 64
        E 96 90 3a 00
        E 0 90 3c 64
        E 96 90 3c 00
        E 0 90 35 64
        E 96 90 35 00
        E 0 90 35 64
        E 96 90 35 00
        E 0 90 37 64
        E 96 90 37 00
        E 0 90 33 64
        E 96 90 33 00
        E 0 90 32 64
        E 96 90 32 00
        E 0 90 32 64
        E 96 90 32 00
        E 0 90 33 64
        E 96 90 33 00
        E 0 90 30 64
        E 96 90 30 00
        E 0 90 2e 64
        E 192 90 2e 00
        E 672 90 3a 64
        E 144 90 3a 00
        E 0 90 39 64
        E 48 90 39 00
        E 0 90 37 64
        E 96 90 37 00
        E 0 90 35 64
        E 144 90 35 00
        E 0 90 3c 64
        E 48 90 3c 00
        E 0 90 3a 64
        E 96 90 3a 00
        E 0 90 3a 64
        E 192 90 3a 00
        E 0 90 2e 64
        E 384 90 2e 00
        E 0 90 2e 64
        E 192 90 2e 00
        E 1248 90 2e 64
        E 96 90 2e 00
        E 0 90 35 64
        E 96 90 35 00
        E 0 90 35 64
        E 96 90 35 00
        E 0 90 33 64
        E 48 90 33 00
        E 0 90 32 64
        E 48 90 32 00
        E 0 90 33 64
        E 48 90 33 00
        E 0 90 35 64
        E 48 90 35 00
        E 0 90 37 64
        E 48 90 37 00
        E 0 90 35 64
        E 48 90 35 00
        E 0 90 37 64
        E 48 90 37 00
        E 0 90 33 64
        E 48 90 33 00
        E 0 90 35 64
        E 96 90 35 00
        E 0 90 37 64
        E 96 90 37 00
        E 0 90 35 64
        E 96 90 35 00
        E 0 90 35 64
        E 96 90 35 00
        E 0 90 2e 64
        E 384 90 2e 00
        E 576 90 3a 64
        E 96 90 3a 00
        E 0 90 39 64
        E 144 90 39 00
        E 0 90 37 64
        E 48 90 37 00
        E 0 90 39 64
        E 96 90 39 00
        E 0 90 3a 64
        E 192 90 3a 00
        E 0 90 37 64
        E 96 90 37 00
        E 0 90 35 64
        E 288 90 35 00
        E 192 90 3a 64
        E 96 90 3a 00
        E 0 90 39 64
        E 144 90 39 00
        E 0 90 37 64
        E 48 90 37 00
        E 0 90 39 64
        E 96 90 39 00
        E 0 90 37 64
        E 192 90 37 00
        E 0 90 33 64
        E 96 90 33 00
        E 0 90 32 64
        E 288 90 32 00
        E 768 90 3c 64
        E 96 90 3c 00
        E 0 90 3b 64
        E 144 90 3b 00
        E 0 90 39 64
        E 48 90 39 00
        E 0 90 3b 64
        E 96 90 3b 00
        E 0 90 3c 64
        E 192 90 3c 00
        E 0 90 38 64
        E 96 90 38 00
        E 0 90 37 64
        E 192 90 37 00
        E 96 90 37 64
        E 96 90 37 00
        E 0 90 3c 64
        E 96 90 3c 00
        E 0 90 3b 64
        E 96 90 3b 00
        E 0 90 3c 64
        E 96 90 3c 00
        E 0 90 37 64
        E 96 90 37 00
        E 0 90 3c 64
        E 96 90 3c 00
        E 0 90 3b 64
        E 96 90 3b 00
        E 0 90 3c 64
        E 96 90 3c 00
        E 0 90 35 64
        E 96 90 35 00
        E 0 90 3a 64
        E 96 90 3a 00
        E 0 90 39 64
        E 96 90 39 00
        E 0 90 3a 64
        E 96 90 3a 00
        E 0 90 35 64
        E 96 90 35 00
        E 0 90 3a 64
        E 96 90 3a 00
        E 0 90 2e 64
        E 96 90 2e 00
        E 0 90 35 64
        E 192 90 35 00
        E 672 90 3a 64
        E 144 90 3a 00
        E 0 90 3c 64
        E 48 90 3c 00
        E 0 90 3e 64
        E 96 90 3e 00
        E 0 90 3f 64
        E 144 90 3f 00
        E 0 90 3c 64
        E 48 90 3c 00
        E 0 90 3a 64
        E 96 90 3a 00
        E 624 90 2e 64
        E 96 90 2e 00
        E 0 90 32 64
        E 96 90 32 00
        E 0 90 35 64
        E 96 90 35 00
        E 0 90 2e 64
        E 192 90 2e 00
        E 0 90 2e 64
        E 192 90 2e 00
        E 192 90 2e 64
        E 192 90 2e 00
        E 0 90 33 64
        E 192 90 33 00
        E 0 90 32 64
        E 192 90 32 00
        E 0 90 2e 64
        E 576 90 2e 00
        E 0 90 2e 64
        E 192 90 2e 00
        E 0 90 2e 64
        E 768 90 2e 00
        E 0 90 3a 64
        E 96 90 3a 00
        E 0 90 39 64
        E 96 90 39 00
        E 0 90 37 64
        E 96 90 37 00
        E 0 90 39 64
        E 96 90 39 00
        E 0 90 3a 64
        E 96 90 3a 00
        E 0 90 39 64
        E 96 90 39 00
        E 0 90 37 64
        E 96 90 37 00
        E 0 90 35 64
        E 96 90 35 00
        E 0 90 33 64
        E 288 90 33 00
        E 0 90 32 64
        E 96 90 32 00
        E 0 90 30 64
        E 48 90 30 00
        E 0 90 32 64
        E 48 90 32 00
        E 0 90 33 64
        E 48 90 33 00
        E 0 90 35 64
        E 48 90 35 00
        E 0 90 37 64
        E 192 90 37 00
        E 0 90 3c 64
        E 96 90 3c 00
        E 0 90 3e 64
        E 96 90 3e 00
        E 0 90 3f 64
        E 96 90 3f 00
        E 0 90 3e 64
        E 96 90 3e 00
        E 0 90 3c 64
        E 192 90 3c 00
        E 0 90 37 64
        E 192 90 37 00
        E 0 90 3c 64
        E 96 90 3c 00
        E 0 90 3e 64
        E 96 90 3e 00
        E 0 90 3f 64
        E 96 90 3f 00
        E 0 90 3e 64
        E 96 90 3e 00
        E 0 90 3c 64
        E 384 90 3c 00
        E 0 90 37 64
        E 384 90 37 00
        E 192 90 3c 64
        E 288 90 3c 00
        E 0 90 3a 64
        E 96 90 3a 00
        E 0 90 39 64
        E 96 90 39 00
        E 0 90 3a 64
        E 96 90 3a 00
        E 0 90 3c 64
        E 96 90 3c 00
        E 0 90 3a 64
        E 96 90 3a 00
        E 0 90 39 64
        E 96 90 39 00
        E 0 90 37 64
        E 96 90 37 00
        E 0 90 35 64
        E 192 90 35 00
        E 0 90 35 64
        E 192 90 35 00
        E 0 90 35 64
        E 384 90 35 00
        E 0 90 35 64
        E 96 90 35 00
        E 0 90 33 64
        E 96 90 33 00
        E 0 90 32 64
        E 96 90 32 00
        E 0 90 33 64
        E 96 90 33 00
        E 0 90 35 64
        E 96 90 35 00
        E 0 90 33 64
        E 96 90 33 00
        E 0 90 32 64
        E 96 90 32 00
        E 0 90 30 64
        E 96 90 30 00
        E 0 90 2e 64
        E 192 90 2e 00
        E 0 90 2e 64
        E 192 90 2e 00
        E 0 90 2e 64
        E 384 90 2e 00
        E 0 90 3a 64
        E 96 90 3a 00
        E 0 90 3c 64
        E 96 90 3c 00
        E 0 90 3e 64
        E 96 90 3e 00
        E 0 90 3c 64
        E 96 90 3c 00
        E 0 90 3a 64
        E 192 90 3a 00
        E 0 90 35 64
        E 192 90 35 00
        E 0 90 3a 64
        E 96 90 3a 00
        E 0 90 3c 64
        E 96 90 3c 00
        E 0 90 3e 64
        E 96 90 3e 00
        E 0 90 3f 64
        E 96 90 3f 00
        E 0 90 41 64
        E 192 90 41 00
        E 0 90 41 64
        E 192 90 41 00
        E 288 90 3a 64
        E 96 90 3a 00
        E 0 90 37 64
        E 96 90 37 00
        E 0 90 39 64
        E 96 90 39 00
        E 0 90 3a 64
        E 192 90 3a 00
        E 288 90 35 64
        E 96 90 35 00
        E 0 90 32 64
        E 96 90 32 00
        E 0 90 33 64
        E 96 90 33 00
        E 0 90 35 64
        E 96 90 35 00
        E 0 90 35 64
        E 96 90 35 00
        E 0 90 35 64
        E 96 90 35 00
        E 0 90 2e 64
        E 96 90 2e 00
        E 0 90 35 64
        E 192 90 35 00
        E 288 90 2e 64
        E 96 90 2e 00
        E 0 90 33 64
        E 96 90 33 00
        E 0 90 30 64
        E 96 90 30 00
        E 0 90 37 64
        E 96 90 37 00
        E 0 90 37 64
        E 96 90 37 00
        E 0 90 33 64
        E 96 90 33 00
        E 0 90 35 64
        E 96 90 35 00
        E 0 90 37 64
        E 192 90 37 00
        E 288 90 37 64
        E 96 90 37 00
        E 0 90 3c 64
        E 96 90 3c 00
        E 0 90 39 64
        E 96 90 39 00
        E 0 90 3a 64
        E 96 90 3a 00
        E 0 90 37 64
        E 96 90 37 00
        E 0 90 35 64
        E 192 90 35 00
        E 96 90 30 64
        E 96 90 30 00
        E 0 90 35 64
        E 96 90 35 00
        E 0 90 32 64
        E 96 90 32 00
        E 0 90 33 64
        E 96 90 33 00
        E 0 90 30 64
        E 96 90 30 00
        E 0 90 2e 64
        E 192 90 2e 00
        E 288 90 3a 64
        E 96 90 3a 00
        E 0 90 37 64
        E 96 90 37 00
        E 0 90 39 64
        E 96 90 39 00
        E 0 90 3a 64
        E 192 90 3a 00
        E 96 90 35 64
        E 96 90 35 00
        E 0 90 3a 64
        E 96 90 3a 00
        E 0 90 2e 64
        E 96 90 2e 00
        E 0 90 33 64
        E 96 90 33 00
        E 0 90 35 64
        E 96 90 35 00
        E 0 90 2e 64
        E 384 90 2e 00
        E 192 90 2e 64
        E 192 90 2e 00
        E 0 90 33 64
        E 192 90 33 00
        E 0 90 32 64
        E 192 90 32 00
        E 0 90 33 64
        E 192 90 33 00
        E 0 90 33 64
        E 192 90 33 00
        E 0 90 2e 64
        E 383 90 2e 00
        E 1 b0 7b 00
        CCINTERP 32
        CHASE_CC_TAKEOFFS 1
        GUID {4053F02F-EF7F-9A43-A788-E74F0132DE17}
        IGNTEMPO 0 120 4 4
        SRCCOLOR 270
        VELLANE -1 100 0
        CFGEDITVIEW 9026.252698 1.312662 62 12 0 -1 0 0 0 0.5
        KEYSNAP 0
        TRACKSEL -252
        EVTFILTER 0 -1 -1 -1 -1 0 0 0 0 -1 -1 -1 -1 0 -1 0 -1 -1
        CFGEDIT 1 1 0 1 0 0 1 1 1 1 1 0.125 259 283 1920 854 0 0 0 0 0 0 0 0 0 0.5 0 0 1 64
      >
    >
  >
  <TRACK {F7E6D1D0-12F3-1F43-B53A-C71C2883F041}
    NAME iSeq1
    PEAKCOL 16576
    BEAT -1
    AUTOMODE 0
    VOLPAN 1 0 -1 -1 1
    MUTESOLO 0 0 0
    IPHASE 0
    PLAYOFFS 0 1
    ISBUS 0 0
    BUSCOMP 0 0 0 0 0
    SHOWINMIX 1 0.6667 0.5 1 0.5 -1 -1 -1
    FREEMODE 0
    SEL 0
    REC 0 0 1 0 0 0 0
    VU 2
    TRACKHEIGHT 0 0 0 0 0 0
    INQ 0 0 0 0.5 100 0 0 100
    NCHAN 2
    FX 1
    TRACKID {F7E6D1D0-12F3-1F43-B53A-C71C2883F041}
    PERF 0
    MIDIOUT -1
    MAINSEND 1 0
  >
>
